<svg width="122" height="45" viewBox="0 0 122 45" fill="none" xmlns="http://www.w3.org/2000/svg">
<path d="M3.42758 38.8878C3.49275 39.6327 3.66434 40.3683 3.94234 41.0946C4.28198 41.7082 4.7318 42.1514 5.29181 42.4241C5.36275 42.4179 5.41751 42.431 5.45609 42.4634C5.53014 42.4926 5.60418 42.5219 5.67823 42.5512C6.07463 42.588 6.45018 42.5909 6.8049 42.5598C7.16272 42.5643 7.53208 42.4962 7.91296 42.3557C8.50046 42.1255 9.06868 41.8792 9.61761 41.6167C10.2051 41.3866 10.7687 41.0871 11.3083 40.7182C12.1871 40.1409 13.0289 39.549 13.8337 38.9424C14.6739 38.3328 15.4933 37.6892 16.2919 37.0117C16.7575 36.6135 17.223 36.2154 17.6886 35.8172C18.1511 35.3836 18.6552 35.0178 19.2011 34.7198C19.2689 34.6781 19.319 34.638 19.3514 34.5994C19.4192 34.5577 19.4871 34.5161 19.5549 34.4744C20.0081 33.9343 20.4867 33.4814 20.9909 33.1156C21.5274 32.7112 22.0446 32.2907 22.5425 31.8539C22.7106 31.732 22.8609 31.6116 22.9935 31.4928C23.1615 31.3709 23.328 31.2312 23.493 31.0738C23.8814 30.6109 24.2906 30.1819 24.7207 29.7868C25.1863 29.3887 25.6342 28.9921 26.0643 28.597C26.5622 28.1603 27.0424 27.7251 27.5049 27.2914C27.9642 26.8223 28.422 26.3355 28.8783 25.8309C29.108 25.5963 29.3392 25.3795 29.572 25.1804C29.8017 24.9459 30.0329 24.7291 30.2657 24.53C30.4661 24.3695 30.645 24.3717 30.8025 24.5366C30.9953 24.6985 31.0656 24.8889 31.0133 25.108C31.0257 25.2499 30.9833 25.3787 30.8862 25.4944C30.8925 25.5653 30.8809 25.6378 30.8517 25.7119C30.8193 25.7504 30.7885 25.8068 30.7592 25.8808C30.7007 26.0289 30.6244 26.1785 30.5304 26.3297C30.4364 26.4809 30.3247 26.6337 30.1952 26.788C29.8453 27.2833 29.4955 27.7785 29.1457 28.2738C28.7927 28.7336 28.422 29.195 28.0336 29.6579C27.6806 30.1177 27.2907 30.5628 26.8637 30.9934C26.4722 31.4208 26.0629 31.8498 25.6359 32.2803C25.0701 32.7587 24.5236 33.2533 23.9964 33.7641C23.5047 34.2718 22.9759 34.7649 22.4101 35.2433C22.1419 35.4455 21.8767 35.6831 21.6147 35.9562C21.385 36.1908 21.136 36.4092 20.8678 36.6114C20.043 37.3984 19.1959 38.1337 18.3264 38.8175C17.4924 39.4981 16.6406 40.1802 15.7711 40.8639C15.3703 41.1849 14.9663 41.4705 14.5593 41.7206C14.1553 42.0061 13.7514 42.2916 13.3475 42.5772C12.5657 43.0388 11.7601 43.4309 10.9305 43.7537C10.1395 44.1089 9.28591 44.3623 8.36985 44.5139C7.98277 44.5835 7.60876 44.5984 7.24783 44.5584C6.89001 44.554 6.5129 44.5334 6.11651 44.4966C6.04246 44.4673 5.95068 44.4396 5.84116 44.4134C5.73474 44.4227 5.62522 44.3966 5.5126 44.335C4.62714 44.0192 3.80952 43.6619 3.05974 43.2628C2.12329 42.7728 1.49589 41.9341 1.17754 40.7467C1.01216 40.0821 0.898438 39.395 0.83637 38.6856C0.81775 38.4727 0.818417 38.2761 0.838372 38.0956C0.855224 37.8797 0.870524 37.646 0.884272 37.3946C1.16718 35.7257 1.49021 34.1068 1.85337 32.5381C2.2489 30.9308 2.73311 29.3157 3.306 27.6929C3.50775 27.1391 3.69177 26.5868 3.85805 26.0361C4.05669 25.4469 4.21987 24.8607 4.34758 24.2776C4.43537 24.0555 4.54401 23.8673 4.67348 23.713C4.89696 23.4075 5.06412 23.0711 5.17497 22.704C5.3213 22.3338 5.44989 21.9651 5.56074 21.598C5.78555 20.8992 6.05049 20.2505 6.35555 19.6519C6.65752 19.0178 6.95948 18.3838 7.26144 17.7497C7.90704 16.5495 8.57348 15.3831 9.26076 14.2507C9.94804 13.1183 10.6901 11.9989 11.4869 10.8926C11.584 10.7769 11.6633 10.6627 11.725 10.5501C11.8221 10.4344 11.9015 10.3202 11.9631 10.2076C12.1804 9.83115 12.3814 9.474 12.5663 9.13613C12.7836 8.75969 13.0202 8.39943 13.276 8.05536C13.4964 7.71439 13.7199 7.40889 13.9464 7.13886C14.2054 6.83026 14.4258 6.48929 14.6076 6.11595C14.7016 5.96475 14.8619 5.75414 15.0884 5.48411C15.3797 5.13694 15.6711 4.78976 15.9624 4.44258C16.2537 4.0954 16.5257 3.73204 16.7785 3.3525C17.0312 2.97295 17.3032 2.60959 17.5946 2.26241C17.9213 1.91213 18.2111 1.54722 18.4638 1.16768C18.6873 0.862177 19.0265 0.653783 19.4814 0.542494C19.7652 0.517667 20.0328 0.512128 20.2842 0.525878C20.568 0.501051 20.8502 0.458487 21.1309 0.398187C21.663 0.351636 22.2044 0.411501 22.7551 0.577783C23.2348 0.75027 23.7199 0.779318 24.2103 0.664928L24.7956 0.613722C24.9791 0.669148 25.1257 0.709941 25.2352 0.736102C25.3447 0.762264 25.4735 0.80461 25.6216 0.863141C25.8407 0.915464 26.0142 1.06112 26.1424 1.30012C26.2674 1.50364 26.3069 1.75039 26.2608 2.04037C26.1637 2.1561 26.1328 2.21241 26.1683 2.2093C26.116 2.42834 26.0559 2.5587 25.9881 2.60038C25.5442 3.24685 25.1374 3.90795 24.7676 4.58368C24.4333 5.25631 24.0827 5.94823 23.716 6.65944C23.5635 6.95873 23.4125 7.27575 23.2631 7.61052C23.1492 7.94218 23.0175 8.27539 22.868 8.61015C22.6109 9.34752 22.3537 10.0849 22.0965 10.8223C21.8362 11.5242 21.6161 12.2762 21.436 13.0783C21.3021 13.5904 21.1343 14.1233 20.9325 14.6771C20.7631 15.1924 20.6146 15.7415 20.4869 16.3246C20.4146 16.7241 20.3262 17.1429 20.2215 17.5809C20.1169 18.019 20.0461 18.4363 20.0093 18.8327C19.9433 19.3031 19.8579 19.7574 19.7533 20.1954C19.6486 20.6335 19.5262 21.0731 19.3861 21.5143C19.2367 21.8491 19.0471 22.1337 18.8174 22.3683C18.7851 22.4069 18.7157 22.4308 18.6093 22.4401C18.5383 22.4463 18.4596 22.3639 18.3732 22.1927C18.2202 21.6699 18.1413 21.1764 18.1364 20.7122C18.1732 20.3158 18.1907 19.9032 18.189 19.4745C18.2196 19.0071 18.271 18.5737 18.3433 18.1742C18.4124 17.7392 18.4639 17.3058 18.4976 16.8739C18.5668 16.439 18.6375 16.0217 18.7098 15.6222C18.9483 14.672 19.1691 13.7234 19.3722 12.7763C19.5722 11.7937 19.827 10.8242 20.1365 9.86782C20.1626 9.7583 20.1888 9.64878 20.2149 9.53926C20.2411 9.42974 20.2673 9.32023 20.2934 9.21071C20.3396 8.92073 20.3857 8.63074 20.4318 8.34076C20.5103 8.0122 20.571 7.6852 20.614 7.35975C20.6695 7.17618 20.7087 7.0119 20.7318 6.86691C20.7517 6.68645 20.7894 6.50443 20.8448 6.32087C20.9943 5.9861 21.1452 5.66908 21.2978 5.36979C21.4472 5.03502 21.5596 4.68563 21.635 4.3216C21.5995 4.3247 21.5802 4.30852 21.5771 4.27304C21.574 4.23757 21.5547 4.22139 21.5193 4.22449C21.5193 4.22449 21.5177 4.20676 21.5146 4.17129C21.4375 4.10655 21.3811 4.07573 21.3457 4.07883C21.2747 4.08504 21.2053 4.10898 21.1375 4.15066C20.8661 4.31738 20.6141 4.50028 20.3813 4.69936C20.184 4.89534 19.9527 5.11216 19.6876 5.34982C19.0925 5.90228 18.5006 6.49022 17.9117 7.11363C17.3584 7.73394 16.805 8.35424 16.2516 8.97455C15.834 9.5115 15.434 10.0469 15.0518 10.5807C14.6696 11.1146 14.2696 11.65 13.8519 12.1869C12.958 13.4089 12.1204 14.6617 11.3392 15.9454C10.5934 17.2259 9.86839 18.5403 9.16425 19.8887C8.92082 20.3747 8.67739 20.8606 8.43396 21.3466C8.2229 21.794 7.9941 22.2429 7.74757 22.6934C7.50724 23.2148 7.2831 23.717 7.07514 24.1998C6.86408 24.6472 6.65612 25.1301 6.45126 25.6484C6.04465 26.7205 5.67352 27.7896 5.33785 28.8555C5.00219 29.9214 4.68581 31.0035 4.38872 32.1018C4.17322 32.907 3.97546 33.7107 3.79543 34.5128C3.64777 35.2763 3.52095 36.0738 3.41497 36.9051C3.36441 37.5529 3.36862 38.2138 3.42758 38.8878ZM38.3325 28.167C37.8714 28.2074 37.4218 28.1752 36.9837 28.0706C36.9097 28.0413 36.8356 28.0121 36.7616 27.9828C36.6844 27.9181 36.6088 27.8711 36.5348 27.8418C36.1814 27.4795 36.0069 27.1195 36.0114 26.7617C36.0282 26.5457 36.0644 26.346 36.1198 26.1624C36.1752 25.9789 36.179 25.8177 36.1311 25.6789C36.1187 25.537 36.0415 25.4723 35.8997 25.4847C35.8673 25.5233 35.8334 25.5441 35.7979 25.5472C35.7624 25.5503 35.7285 25.5711 35.6961 25.6097C35.4789 25.9862 35.2538 26.2739 35.0211 26.473C34.8561 26.6304 34.7073 26.7685 34.5748 26.8874C34.4422 27.0062 34.2919 27.1266 34.1238 27.2485C33.9589 27.4059 33.7955 27.581 33.6336 27.7739C33.5042 27.9282 33.3377 28.0679 33.1342 28.1929C32.4065 28.8642 31.506 29.1932 30.4325 29.1799C30.1487 29.2047 29.8171 29.0908 29.4375 28.838C29.277 28.6376 29.1389 28.4889 29.0232 28.3917C28.747 28.0942 28.7028 27.7943 28.8908 27.4919C28.9755 27.2343 29.0602 26.9766 29.1449 26.719C29.1941 26.4645 29.2063 26.1954 29.1815 25.9116C29.2569 25.5476 29.3447 25.3254 29.4449 25.2452C29.5974 24.9459 29.7531 24.6821 29.9118 24.4537C30.0705 24.2254 30.2648 23.9939 30.4944 23.7594C30.6563 23.5665 30.8181 23.3736 30.98 23.1807C31.1387 22.9524 31.299 22.7418 31.4608 22.5489C31.5548 22.3977 31.6681 22.2627 31.8007 22.1439C31.9333 22.025 32.0628 21.8707 32.1891 21.681C32.3541 21.5236 32.4835 21.3693 32.5775 21.2181C32.707 21.0638 32.8365 20.9095 32.966 20.7552C33.4484 20.1411 33.9818 19.7012 34.5662 19.4356L35.947 18.6714C36.0472 18.5912 36.1682 18.5449 36.3101 18.5324C36.4489 18.4846 36.5877 18.4367 36.7265 18.3888C36.93 18.2637 37.1605 18.2436 37.4182 18.3283L37.5246 18.319C37.7467 18.4068 37.9835 18.4575 38.2349 18.4713C38.5218 18.4819 38.7909 18.4941 39.0423 18.5079C39.4032 18.5478 39.6462 18.6695 39.7713 18.873C39.9287 19.038 39.9828 19.2477 39.9335 19.5022C39.977 19.9988 39.8963 20.5063 39.6914 21.0246C39.6098 21.3177 39.5105 21.6123 39.3934 21.9085C39.2764 22.2047 39.1948 22.4978 39.1487 22.7878C39.0933 22.9713 39.0378 23.1549 38.9824 23.3385C38.9239 23.4865 38.8669 23.6524 38.8115 23.8359C38.7299 24.129 38.6483 24.4221 38.5667 24.7152C38.4851 25.0083 38.4197 25.2821 38.3705 25.5366L38.4031 25.909C38.4062 25.9445 38.4463 25.9946 38.5235 26.0594C38.5975 26.0886 38.67 26.1002 38.7409 26.0939C38.9183 26.0784 39.0586 26.0483 39.1619 26.0035C39.4364 25.8723 39.7093 25.7233 39.9807 25.5566C40.2875 25.3867 40.5766 25.2185 40.848 25.0518C41.2488 24.7307 41.6674 24.4082 42.1037 24.0841C42.5369 23.7245 42.9539 23.3842 43.3547 23.0632C43.9298 22.6911 44.5096 22.3724 45.094 22.1068C45.1973 22.062 45.3199 22.0334 45.4618 22.021C45.5327 22.0148 45.6068 22.044 45.6839 22.1088C45.7611 22.1735 45.8028 22.2413 45.809 22.3123L45.5316 22.8191C45.3374 23.0505 45.1432 23.282 44.949 23.5134C44.7548 23.7449 44.559 23.9586 44.3617 24.1546C43.893 24.5173 43.4614 24.8946 43.0667 25.2866C42.6721 25.6785 42.2582 26.0543 41.825 26.4139C41.5922 26.613 41.3417 26.8136 41.0734 27.0158C40.8021 27.1825 40.5323 27.367 40.264 27.5691C39.7567 27.8995 39.1129 28.0988 38.3325 28.167ZM37.5578 19.9245C37.5392 19.7117 37.4412 19.613 37.2638 19.6285C37.1282 19.7119 37.0071 19.7582 36.9007 19.7675C36.7943 19.7768 36.691 19.8216 36.5908 19.9019C36.3132 19.9976 36.0742 20.1258 35.8738 20.2863C35.6703 20.4113 35.4698 20.5718 35.2725 20.7678C35.0074 21.0055 34.7453 21.2786 34.4864 21.5872C34.2274 21.8958 33.9685 22.2044 33.7095 22.513C33.3273 23.0469 32.9659 23.6146 32.6254 24.2163C32.2818 24.7825 31.9381 25.3487 31.5945 25.915L31.6131 26.1278C31.5838 26.2018 31.5708 26.2566 31.5739 26.2921C31.6093 26.289 31.6286 26.3051 31.6317 26.3406L32.0042 26.308C32.1013 26.1923 32.2015 26.1121 32.3048 26.0673C32.405 25.987 32.5037 25.889 32.6008 25.7733C33.0278 25.3428 33.4548 24.9122 33.8818 24.4817C34.3057 24.0157 34.7134 23.569 35.1049 23.1415C35.464 22.7527 35.807 22.3831 36.1338 22.0328C36.493 21.644 36.8344 21.2567 37.1581 20.8709C37.2552 20.7552 37.3361 20.6588 37.4008 20.5816C37.4625 20.469 37.521 20.3209 37.5764 20.1373C37.6057 20.0633 37.6026 20.0278 37.5671 20.0309C37.564 19.9954 37.5609 19.96 37.5578 19.9245ZM43.378 27.3503C43.3731 26.8861 43.4647 26.5028 43.6527 26.2004C43.8052 25.9011 43.9546 25.5663 44.101 25.1961C44.2473 24.8258 44.3967 24.4911 44.5492 24.1918C44.6047 24.0082 44.6632 23.8601 44.7248 23.7475C44.7834 23.5994 44.8581 23.432 44.949 23.2454C44.9459 23.2099 44.9705 23.0826 45.0228 22.8636C45.0565 22.4317 45.145 22.0129 45.2882 21.6072C45.4638 21.163 45.6039 20.7218 45.7086 20.2837C45.7609 20.0647 45.8695 19.8764 46.0345 19.719C46.0899 19.5355 46.224 19.4344 46.4368 19.4158C46.6435 19.3262 46.8355 19.2737 47.0128 19.2581C47.2194 19.1686 47.3691 19.2448 47.4618 19.4869C47.6192 19.6519 47.7134 19.9117 47.7444 20.2664L47.7677 20.5325C47.777 20.6389 47.838 20.7229 47.9506 20.7845C48.0956 20.8076 48.2182 20.779 48.3184 20.6987C48.3831 20.6216 48.5011 20.5398 48.6722 20.4533C48.737 20.3762 48.8179 20.2797 48.915 20.164C49.0121 20.0483 49.1285 19.9488 49.2642 19.8654C49.3289 19.7882 49.4145 19.745 49.5209 19.7357C49.6273 19.7264 49.7322 19.6993 49.8355 19.6546C49.9743 19.6067 50.2033 19.5688 50.5225 19.5408C51.016 19.4619 51.4619 19.6552 51.86 20.1208C51.8693 20.2272 51.8948 20.3144 51.9365 20.3822C52.0553 20.5148 52.2003 20.5378 52.3715 20.4514C52.4393 20.4097 52.5072 20.368 52.575 20.3263C52.6397 20.2492 52.706 20.1898 52.7739 20.1481L53.5022 19.2802C53.6995 19.0842 53.8613 18.8913 53.9877 18.7015C54.1495 18.5087 54.3114 18.3158 54.4732 18.1229C54.5318 17.9748 54.6111 17.8606 54.7113 17.7804C54.8439 17.6615 54.9603 17.562 55.0605 17.4818C55.3288 17.2796 55.597 17.0774 55.8653 16.8752C56.1304 16.6375 56.3956 16.3999 56.6607 16.1622C57.0647 15.8767 57.5019 15.7669 57.9723 15.833C58.2978 15.876 58.5246 16.017 58.6527 16.256C58.6682 16.4334 58.676 16.5221 58.676 16.5221C58.6361 16.883 58.5753 17.21 58.4937 17.5031C58.4476 17.7931 58.3498 18.1054 58.2004 18.4402C57.9401 19.1421 57.6976 19.8424 57.4728 20.5412C57.248 21.24 56.9861 21.9242 56.6873 22.5937C56.5503 23.0704 56.3955 23.5486 56.223 24.0283C56.086 24.505 55.9313 24.9832 55.7588 25.4629C55.6124 25.8332 55.4839 26.2018 55.373 26.569C55.259 26.9006 55.1305 27.2693 54.9872 27.675C54.9903 27.7105 54.9773 27.7653 54.948 27.8393C54.9542 27.9102 54.9604 27.9812 54.9666 28.0521C54.979 28.194 55.0207 28.2619 55.0916 28.2557C55.1333 28.3235 55.1865 28.3188 55.2513 28.2417C55.3222 28.2355 55.4417 28.1714 55.6098 28.0495C55.9751 27.7316 56.3228 27.4152 56.6526 27.1004C57.018 26.7825 57.3625 26.4307 57.6862 26.0449C57.7186 26.0063 57.7525 25.9855 57.788 25.9824C57.8203 25.9438 57.8512 25.8875 57.8804 25.8134C58.1394 25.5048 58.4207 25.2479 58.7244 25.0426C59.0251 24.8019 59.3049 24.5272 59.5638 24.2186C59.8227 23.91 60.101 23.6175 60.3985 23.3413C60.696 23.0651 60.9758 22.7904 61.2379 22.5173C61.4414 22.3922 61.6256 22.251 61.7906 22.0936C61.9555 21.9362 62.159 21.8112 62.4011 21.7185L62.5075 21.7092C62.6556 21.7677 62.6973 21.8356 62.6326 21.9127C62.6388 21.9837 62.6257 22.0384 62.5933 22.077C62.5964 22.1125 62.5834 22.1672 62.5541 22.2413C62.5727 22.4541 62.5188 22.6554 62.3925 22.8452C62.1428 23.2602 61.8546 23.6428 61.5278 23.9931C61.201 24.3434 60.9097 24.6906 60.6539 25.0347C60.3856 25.2368 60.1382 25.4729 59.9116 25.743C59.7205 26.0099 59.5263 26.2413 59.329 26.4373C58.9406 26.9002 58.5506 27.3454 58.1591 27.7728C57.803 28.1972 57.4308 28.6408 57.0424 29.1037C56.5661 29.7887 56.0613 30.3512 55.5279 30.791C55.363 30.9484 55.1772 31.0719 54.9706 31.1615C54.7963 31.2124 54.6043 31.265 54.3946 31.3191C54.0399 31.3501 53.7452 31.2508 53.5107 31.0211C52.8225 30.5094 52.5669 29.8348 52.7438 28.9972C52.8454 28.5237 52.9724 28.1372 53.125 27.8379C53.2713 27.4677 53.4192 27.1152 53.5686 26.7805C53.7149 26.4102 53.8597 26.0222 54.0029 25.6165C54.1523 25.2818 54.284 24.9486 54.398 24.6169C54.5443 24.2467 54.6922 23.8942 54.8416 23.5594C54.8971 23.3758 54.954 23.21 55.0126 23.0619C55.068 22.8783 55.1057 22.6963 55.1256 22.5159C55.2689 22.1102 55.3959 21.7237 55.5067 21.3566C55.6145 20.954 55.74 20.5499 55.8832 20.1441C55.9772 19.9929 56.0357 19.8449 56.0588 19.6999C56.0881 19.6258 56.0949 19.5001 56.0794 19.3228C56.0732 19.2518 56.0153 19.2033 55.9058 19.1771C55.8318 19.1478 55.7608 19.154 55.693 19.1957C55.6221 19.2019 55.5542 19.2436 55.4895 19.3208C55.3245 19.4782 55.1758 19.6163 55.0432 19.7351C54.9461 19.8508 54.8328 19.9858 54.7033 20.1401C54.1469 20.725 53.6112 21.3437 53.0964 21.9964C52.6171 22.646 52.1378 23.2956 51.6585 23.9451C51.5028 24.2089 51.3295 24.4743 51.1384 24.7412C50.9796 24.9696 50.8209 25.1979 50.6621 25.4263C50.5358 25.6161 50.4094 25.8058 50.283 25.9956C50.189 26.1468 50.0788 26.3173 49.9525 26.5071C49.8323 26.7678 49.6396 27.017 49.3745 27.2546C49.0446 27.5694 48.6544 27.6036 48.2039 27.357C48.0141 27.2307 47.8598 27.1012 47.741 26.9686C47.6191 26.8006 47.5133 26.6132 47.4238 26.4066C47.4114 26.2647 47.4229 26.1922 47.4584 26.1891C47.5138 26.0055 47.5515 25.8235 47.5714 25.6431C47.6238 25.424 47.6938 25.2034 47.7816 24.9813C47.8401 24.8332 47.8847 24.5255 47.9153 24.0581C47.9091 23.9872 47.869 23.9371 47.7949 23.9078C47.7563 23.8755 47.7209 23.8786 47.6885 23.9171C47.3693 23.9451 47.1657 24.0701 47.0779 24.2923C46.9161 24.4851 46.7735 24.6942 46.6503 24.9194C46.5239 25.1092 46.4199 25.3506 46.3383 25.6437C46.2151 25.869 46.0918 26.0942 45.9685 26.3195C45.8807 26.5416 45.7945 26.7815 45.7098 27.0391C45.5635 27.4093 45.3447 27.768 45.0533 28.1152C44.9948 28.2633 44.8962 28.3613 44.7574 28.4092C44.58 28.4247 44.4173 28.4032 44.2692 28.3447C44.0564 28.3633 43.889 28.2886 43.7671 28.1205C43.5356 27.9263 43.4059 27.6696 43.378 27.3503ZM73.8065 18.9514C73.748 19.0995 73.6879 19.2298 73.6262 19.3424C73.597 19.4165 73.5693 19.5083 73.5431 19.6178C73.3906 19.9171 73.2203 20.2179 73.0323 20.5203C72.8767 20.7841 72.721 21.048 72.5654 21.3118C72.2741 21.659 72.0683 21.9629 71.9482 22.2236C71.7571 22.4905 71.5644 22.7397 71.3702 22.9712C71.1729 23.1672 70.9578 23.3647 70.725 23.5638C70.6217 23.6086 70.5053 23.7081 70.3759 23.8624C70.1138 24.1355 69.8325 24.3925 69.5318 24.6332C69.2281 24.8385 68.9244 25.0438 68.6207 25.2491L67.5452 25.8257C66.8251 26.1747 66.1103 26.3802 65.4009 26.4423L65.0817 26.4702C64.7269 26.5012 64.3405 26.3742 63.9224 26.0891C63.8453 26.0243 63.7712 25.9951 63.7003 26.0013C63.6617 25.9689 63.6216 25.9188 63.5799 25.851C63.4287 25.757 63.3391 25.5503 63.3112 25.2311C63.3835 24.8316 63.4959 24.4822 63.6484 24.1829C63.7393 23.9962 63.8187 23.8821 63.8865 23.8404C64.4691 23.146 65.1405 22.4439 65.9004 21.734C66.6698 21.1306 67.4453 20.5981 68.227 20.1365C68.6695 19.8833 69.0958 19.6494 69.506 19.4348C69.9161 19.2202 70.3085 19.0072 70.6832 18.7957L71.4926 18.2423C71.6252 18.1235 71.7223 18.0078 71.7839 17.8952C71.8779 17.744 71.8979 17.5635 71.8438 17.3538C71.819 17.07 71.6407 16.8711 71.3091 16.7572C71.1255 16.7018 70.8918 16.6865 70.6081 16.7113C69.837 16.886 69.1493 17.1963 68.5449 17.6424C67.6368 18.2937 66.7897 19.0291 66.0036 19.8485C65.2143 20.6324 64.523 21.515 63.9298 22.4962C63.5276 23.2105 63.1624 23.9395 62.8343 24.683C62.5031 25.3911 62.2089 26.1139 61.9517 26.8512L61.1755 29.0101L60.7645 30.4401C60.6829 30.7332 60.6029 31.044 60.5244 31.3726C60.4428 31.6656 60.3435 31.9603 60.2264 32.2565C59.9692 32.9938 59.7845 33.7427 59.6723 34.5032C59.5615 34.8703 59.4684 35.2359 59.393 35.5999C59.3176 35.9639 59.2229 36.3118 59.109 36.6434C59.0505 36.7915 59.0258 36.9188 59.0352 37.0252C59.0121 37.1702 58.9713 37.3167 58.9128 37.4648C58.805 37.8674 58.7135 38.2507 58.6381 38.6148C58.5272 38.9819 58.3986 39.3506 58.2523 39.7208L58.0188 40.1166C57.951 40.1582 57.8639 40.1837 57.7575 40.193C57.6542 40.2378 57.5655 40.2456 57.4914 40.2163C57.385 40.2256 57.3256 40.1593 57.3132 40.0174C57.1664 39.5656 57.1569 39.0482 57.2846 38.4651C57.3121 37.9623 57.3766 37.4741 57.4782 37.0006C57.4689 36.8942 57.4757 36.7685 57.4988 36.6235C57.4895 36.517 57.4786 36.3929 57.4662 36.251C57.5061 35.8901 57.5653 35.5453 57.6438 35.2168C57.6837 34.8559 57.7398 34.4756 57.8121 34.0761C58.0475 33.0905 58.32 32.1194 58.6295 31.163C58.9035 30.2097 59.1953 29.2549 59.5048 28.2985L60.9854 23.7725C61.2164 23.1447 61.4489 22.5345 61.6831 21.9422C61.8817 21.3529 62.0788 20.7459 62.2744 20.1211L62.5377 19.4547C62.61 19.0552 62.7193 18.6703 62.8657 18.3001C63.0089 17.8944 63.1698 17.4871 63.3485 17.0783C63.4071 16.9302 63.4656 16.7821 63.5241 16.6341C63.5795 16.4505 63.6188 16.2862 63.6418 16.1412C63.6942 15.9222 63.7141 15.7417 63.7017 15.5998C63.6507 15.4256 63.6368 15.266 63.6598 15.121C63.7152 14.9374 63.7707 14.7538 63.8261 14.5703C63.8877 14.4576 64.0026 14.3404 64.1706 14.2184C64.6548 14.0331 65.1514 13.9896 65.6604 14.0881C65.844 14.1435 65.9952 14.2375 66.114 14.3701C66.2329 14.5027 66.2823 14.6592 66.2623 14.8397L66.0083 15.6125C65.8265 15.9858 65.664 16.3754 65.5207 16.7811C65.3744 17.1513 65.2265 17.5038 65.0771 17.8386C65.0509 17.9481 65.0472 18.1093 65.0658 18.3221C65.0689 18.3576 65.109 18.4077 65.1862 18.4724C65.2279 18.5402 65.2811 18.5356 65.3458 18.4584C65.4491 18.4137 65.5524 18.3689 65.6557 18.3241C65.7559 18.2438 65.8384 18.1651 65.9032 18.088C66.5953 17.4198 67.35 16.8534 68.1672 16.3887L68.9327 15.9464C69.3783 15.7287 69.8139 15.6012 70.2396 15.564C70.6976 15.4882 71.1781 15.464 71.6809 15.4915C72.2932 15.5452 72.8339 15.8017 73.303 16.261C73.3802 16.3258 73.4396 16.3921 73.4813 16.4599C73.5553 16.4892 73.6325 16.5539 73.7127 16.6541C73.9921 16.9871 74.1164 17.3873 74.0858 17.8546C74.0521 18.2865 73.959 18.6521 73.8065 18.9514ZM70.342 21.0238C70.2262 20.9267 70.1684 20.8781 70.1684 20.8781C69.9848 20.8227 69.8106 20.8737 69.6456 21.0311L67.3676 22.5707C67.0994 22.7729 66.8342 23.0106 66.5722 23.2837C66.3101 23.5569 66.1028 23.8431 65.9503 24.1424C65.8208 24.2967 65.743 24.4286 65.7169 24.5381L65.7215 24.5913C65.808 24.7624 65.9221 24.8418 66.064 24.8294C66.4156 24.7629 66.7109 24.6656 66.9499 24.5374C67.2244 24.4062 67.478 24.241 67.7108 24.0419C68.1733 23.6083 68.6018 23.1955 68.9965 22.8036C69.388 22.3761 69.7602 21.9325 70.1132 21.4727L70.3513 21.1302L70.342 21.0238ZM83.5384 24.2121C83.0772 24.2524 82.6276 24.2202 82.1895 24.1156C82.1155 24.0863 82.0415 24.0571 81.9674 24.0278C81.8903 23.9631 81.8147 23.9161 81.7406 23.8868C81.3872 23.5245 81.2128 23.1645 81.2172 22.8067C81.234 22.5907 81.2702 22.391 81.3256 22.2074C81.381 22.0239 81.3848 21.8627 81.3369 21.7239C81.3245 21.582 81.2474 21.5173 81.1055 21.5297C81.0731 21.5683 81.0392 21.5891 81.0037 21.5922C80.9682 21.5953 80.9343 21.6162 80.902 21.6547C80.6847 22.0312 80.4597 22.3189 80.2269 22.518C80.0619 22.6754 79.9132 22.8135 79.7806 22.9324C79.648 23.0512 79.4977 23.1716 79.3296 23.2935C79.1647 23.4509 79.0013 23.6261 78.8395 23.8189C78.71 23.9732 78.5435 24.1129 78.34 24.2379C77.6123 24.9092 76.7118 25.2382 75.6383 25.2249C75.3546 25.2497 75.0229 25.1358 74.6434 24.883C74.4828 24.6826 74.3447 24.5339 74.229 24.4367C73.9528 24.1392 73.9087 23.8393 74.0967 23.5369C74.1814 23.2793 74.266 23.0216 74.3507 22.764C74.4 22.5095 74.4122 22.2404 74.3873 21.9566C74.4627 21.5926 74.5505 21.3704 74.6507 21.2902C74.8032 20.9909 74.9589 20.7271 75.1176 20.4987C75.2764 20.2704 75.4706 20.0389 75.7003 19.8044C75.8621 19.6115 76.0239 19.4186 76.1858 19.2257C76.3445 18.9974 76.5048 18.7868 76.6667 18.5939C76.7607 18.4427 76.8739 18.3077 77.0065 18.1889C77.1391 18.07 77.2686 17.9157 77.3949 17.726C77.5599 17.5686 77.6894 17.4143 77.7834 17.2631C77.9128 17.1088 78.0423 16.9545 78.1718 16.8002C78.6542 16.1861 79.1876 15.7462 79.772 15.4806L81.1528 14.7164C81.253 14.6362 81.374 14.5899 81.5159 14.5774C81.6547 14.5296 81.7935 14.4817 81.9323 14.4338C82.1358 14.3087 82.3664 14.2886 82.624 14.3733L82.7304 14.364C82.9525 14.4518 83.1893 14.5025 83.4407 14.5163C83.7276 14.5269 83.9967 14.5391 84.2481 14.5529C84.6091 14.5928 84.852 14.7145 84.9771 14.918C85.1345 15.083 85.1886 15.2927 85.1393 15.5472C85.1828 16.0438 85.1021 16.5513 84.8972 17.0696C84.8156 17.3627 84.7163 17.6573 84.5993 17.9535C84.4822 18.2497 84.4006 18.5428 84.3545 18.8328C84.2991 19.0163 84.2436 19.1999 84.1882 19.3835C84.1297 19.5316 84.0727 19.6974 84.0173 19.8809C83.9357 20.174 83.8541 20.4671 83.7725 20.7602C83.6909 21.0533 83.6255 21.3271 83.5763 21.5816L83.6089 21.954C83.612 21.9895 83.6521 22.0396 83.7293 22.1044C83.8033 22.1336 83.8758 22.1452 83.9468 22.1389C84.1241 22.1234 84.2645 22.0933 84.3678 22.0485C84.6422 21.9173 84.9151 21.7683 85.1865 21.6016C85.4933 21.4317 85.7824 21.2635 86.0538 21.0968C86.4546 20.7758 86.8732 20.4532 87.3095 20.1291C87.7427 19.7695 88.1597 19.4292 88.5606 19.1082C89.1357 18.7362 89.7154 18.4174 90.2998 18.1518C90.4031 18.107 90.5257 18.0784 90.6676 18.066C90.7385 18.0598 90.8126 18.089 90.8897 18.1538C90.9669 18.2185 91.0086 18.2863 91.0148 18.3573L90.7374 18.8641C90.5432 19.0955 90.349 19.327 90.1548 19.5584C89.9606 19.7899 89.7648 20.0036 89.5675 20.1996C89.0988 20.5623 88.6672 20.9396 88.2726 21.3316C87.8779 21.7235 87.464 22.0993 87.0308 22.4589C86.798 22.658 86.5475 22.8586 86.2792 23.0608C86.0079 23.2275 85.7381 23.412 85.4698 23.6142C84.9626 23.9445 84.3187 24.1438 83.5384 24.2121ZM82.7636 15.9695C82.745 15.7567 82.647 15.658 82.4696 15.6735C82.334 15.7569 82.2129 15.8032 82.1065 15.8125C82.0001 15.8218 81.8968 15.8666 81.7966 15.9469C81.519 16.0426 81.28 16.1708 81.0796 16.3313C80.8761 16.4563 80.6757 16.6168 80.4783 16.8128C80.2132 17.0505 79.9511 17.3236 79.6922 17.6322C79.4332 17.9408 79.1743 18.2494 78.9153 18.558C78.5331 19.0919 78.1718 19.6596 77.8312 20.2613C77.4876 20.8275 77.1439 21.3937 76.8003 21.96L76.8189 22.1728C76.7897 22.2468 76.7766 22.3016 76.7797 22.3371C76.8151 22.334 76.8344 22.3501 76.8375 22.3856L77.21 22.353C77.3071 22.2373 77.4073 22.1571 77.5106 22.1123C77.6108 22.032 77.7095 21.934 77.8066 21.8183C78.2336 21.3878 78.6606 20.9572 79.0876 20.5267C79.5115 20.0607 79.9192 19.614 80.3107 19.1865C80.6699 18.7977 81.0128 18.4281 81.3396 18.0778C81.6988 17.689 82.0402 17.3017 82.3639 16.9159C82.461 16.8002 82.5419 16.7038 82.6066 16.6266C82.6683 16.514 82.7268 16.3659 82.7822 16.1823C82.8115 16.1083 82.8084 16.0728 82.7729 16.0759C82.7698 16.0404 82.7667 16.005 82.7636 15.9695ZM88.8259 21.8729C88.8782 21.6539 88.9175 21.4896 88.9436 21.3801C88.9667 21.2351 89.0106 21.124 89.0753 21.0469C89.2846 20.1707 89.6389 19.3176 90.1382 18.4876C90.6344 17.6221 90.9833 16.9124 91.1851 16.3586C91.2436 16.2105 91.2844 16.064 91.3075 15.919C91.3305 15.774 91.3698 15.6097 91.4252 15.4262C91.4806 15.2426 91.536 15.059 91.5915 14.8755C91.6824 14.6888 91.7941 14.5361 91.9267 14.4172C91.9821 14.2337 92.0615 14.1195 92.1648 14.0747C92.2681 14.0299 92.4069 13.982 92.5811 13.9311L92.7408 13.9171C93.1633 13.8444 93.5012 14.0293 93.7544 14.4718C93.8701 14.5689 93.9033 14.7447 93.8541 14.9992C93.7371 15.2954 93.6462 15.4821 93.5814 15.5592C93.3056 16.0838 93.0252 16.5551 92.7401 16.9732C92.4904 17.3882 92.2647 17.8726 92.063 18.4264C91.9104 18.7257 91.7464 19.0975 91.5708 19.5418C91.3952 19.9861 91.2489 20.3563 91.1318 20.6525C91.0671 20.7296 90.9939 20.9148 90.9123 21.2079C90.8662 21.4978 90.8478 21.696 90.8571 21.8024C90.8278 21.8765 90.8857 21.925 91.0307 21.9481C91.1757 21.9712 91.2837 21.9796 91.3546 21.9734C91.6707 21.91 92.0516 21.7694 92.4972 21.5517C92.9783 21.3309 93.4756 21.0908 93.9891 20.8314C94.5349 20.5335 95.0792 20.2178 95.6219 19.8844C96.1615 19.5155 96.6834 19.1481 97.1875 18.7823C97.4944 18.6125 97.7657 18.4458 98.0016 18.2822C98.2375 18.1186 98.5135 18.0051 98.8297 17.9417C98.9037 17.9709 98.9469 18.0565 98.9594 18.1984L98.9733 18.358C98.8824 18.5447 98.7545 18.7167 98.5896 18.8741C98.4215 18.996 98.255 19.1357 98.0901 19.2931C97.7278 19.6465 97.246 20.064 96.6448 20.5455C96.079 21.0239 95.4778 21.5054 94.841 21.99C94.2367 22.4361 93.6308 22.8644 93.0233 23.275C92.4482 23.647 91.9718 23.921 91.594 24.097C91.2193 24.3085 90.7968 24.3812 90.3263 24.3152L89.8335 24.1974C89.3537 24.025 89.0389 23.6951 88.8891 23.2078C88.8088 23.1076 88.7849 23.0382 88.8172 22.9996C88.8496 22.961 88.8434 22.8901 88.7986 22.7868C88.7738 22.503 88.7729 22.2886 88.796 22.1436C88.7898 22.0727 88.8013 22.0002 88.8306 21.9261C88.8598 21.8521 88.8583 21.8343 88.8259 21.8729ZM92.6497 12.263C92.6789 12.1889 92.6905 12.1164 92.6842 12.0455C92.6749 11.9391 92.6849 11.8489 92.7142 11.7748C92.7603 11.4848 92.8272 11.2288 92.915 11.0066C93.0028 10.7845 93.0906 10.5623 93.1784 10.3402C93.2077 10.2662 93.2385 10.2098 93.2709 10.1713C93.3387 10.1296 93.405 10.0702 93.4697 9.99302C94.0572 9.76291 94.5632 9.82587 94.9875 10.1819C95.3347 10.4732 95.4127 10.7524 95.2216 11.0193C95.1138 11.4219 94.8819 11.8354 94.5259 12.2597C94.27 12.6038 93.8969 12.833 93.4065 12.9474C93.3356 12.9536 93.2824 12.9582 93.2469 12.9613C93.2083 12.929 93.1713 12.9143 93.1358 12.9174C92.8813 12.8682 92.7463 12.7549 92.7308 12.5776C92.7215 12.4712 92.6944 12.3663 92.6497 12.263ZM92.5908 44.5444C92.4844 44.5537 92.4135 44.5599 92.378 44.563C92.3102 44.6047 92.2392 44.6109 92.1652 44.5816C92.0911 44.5524 91.9994 44.5246 91.8898 44.4985C91.7834 44.5078 91.6916 44.4801 91.6145 44.4153C91.2088 44.2721 90.8871 44.0679 90.6494 43.8028C90.4827 43.5314 90.3885 43.2716 90.3668 43.0233C90.4067 42.6624 90.4643 42.2999 90.5397 41.9359C90.6151 41.5718 90.7098 41.224 90.8237 40.8923C91.1088 40.4742 91.2829 40.0122 91.3458 39.5063C91.5214 39.062 91.7148 38.6161 91.9258 38.1688C92.14 37.7568 92.3896 37.3418 92.6747 36.9237C92.7656 36.737 92.8581 36.5681 92.9521 36.4169C93.0492 36.3012 93.1255 36.1515 93.1809 35.968C93.509 35.2244 93.9012 34.6003 94.3575 34.0957C94.5548 33.8998 94.7328 33.6876 94.8915 33.4592C95.0503 33.2309 95.209 33.0026 95.3678 32.7742C95.8825 32.1215 96.3973 31.4689 96.9121 30.8162C97.4238 30.128 97.9756 29.49 98.5676 28.902C98.6323 28.8249 98.7148 28.7462 98.815 28.6659C98.8766 28.5533 98.9398 28.4584 99.0046 28.3813C99.1957 28.1144 99.3883 27.8652 99.5825 27.6337C99.8122 27.3992 100.097 27.1777 100.436 26.9693C100.568 26.8505 100.682 26.7155 100.776 26.5643C100.905 26.41 101.035 26.2557 101.164 26.1014C101.294 25.9471 101.423 25.7928 101.553 25.6385C101.682 25.4842 101.829 25.3283 101.994 25.1709C102.027 25.1323 102.06 25.1115 102.096 25.1084C102.128 25.0698 102.161 25.0312 102.193 24.9927C102.623 24.5976 102.963 24.1926 103.213 23.7775C103.459 23.327 103.703 22.8411 103.943 22.3196C103.975 22.2811 103.99 22.2441 103.987 22.2086C103.984 22.1731 103.998 22.1361 104.031 22.0975C104.191 21.4759 104.332 20.838 104.453 20.184C104.572 19.4945 104.637 18.8097 104.649 18.1296C104.636 17.9877 104.611 17.9005 104.572 17.8682C104.566 17.7972 104.51 17.7664 104.403 17.7757C104.332 17.7819 104.281 17.8043 104.248 17.8429C104.019 18.0774 103.828 18.3444 103.675 18.6437C103.328 19.1744 102.981 19.7051 102.635 20.2359C102.285 20.7312 101.9 21.2295 101.479 21.731C101.352 21.9208 101.224 22.0928 101.095 22.2471C101.001 22.3983 100.872 22.5526 100.707 22.71C100.613 22.8612 100.482 22.9978 100.314 23.1197C100.142 23.2062 99.9728 23.3104 99.8047 23.4323C99.262 23.7657 98.6814 23.8702 98.0628 23.7456C97.4443 23.6209 96.9506 23.2888 96.5817 22.7492C96.5724 22.6428 96.5453 22.5379 96.5005 22.4346C96.4526 22.2958 96.4418 22.1717 96.4679 22.0622C96.4875 21.0597 96.6952 20.1658 97.0912 19.3805C97.2991 18.8977 97.5264 18.431 97.7729 17.9805C97.984 17.5331 98.2321 17.1004 98.5172 16.6822C98.5464 16.6082 98.5757 16.5341 98.605 16.4601C98.6666 16.3475 98.7105 16.2364 98.7367 16.1269C98.7149 15.8786 98.8143 15.5839 99.0346 15.243C99.2936 14.9344 99.5202 14.6643 99.7144 14.4329C99.9055 14.166 100.131 13.8782 100.389 13.5696C100.71 13.1484 101.077 12.8482 101.49 12.6691C101.936 12.4514 102.388 12.3046 102.846 12.2288C103.058 12.2102 103.22 12.2139 103.329 12.2401C103.826 12.1967 104.196 12.343 104.44 12.6791C104.482 12.7469 104.596 12.8263 104.782 12.9172C104.789 12.9881 104.88 13.0158 105.058 13.0003C105.158 12.9201 105.24 12.8414 105.305 12.7642C105.367 12.6516 105.449 12.5729 105.553 12.5281C105.617 12.451 105.687 12.427 105.761 12.4563C105.832 12.4501 105.888 12.4809 105.93 12.5487C106.135 12.8525 106.234 13.1655 106.226 13.4879C106.233 13.5588 106.223 13.649 106.196 13.7586C106.206 13.865 106.213 13.9536 106.22 14.0246C106.164 14.2082 106.177 14.35 106.257 14.4503C106.401 14.8666 106.449 15.2198 106.403 15.5098C106.382 16.0835 106.377 16.638 106.388 17.1732C106.396 17.6729 106.389 18.2096 106.368 18.7834C106.26 19.186 106.286 19.6841 106.445 20.2778C106.493 20.4166 106.478 20.6503 106.399 20.9788C106.338 21.0915 106.295 21.2203 106.272 21.3653C106.246 21.4748 106.202 21.5859 106.14 21.6985C105.829 22.2261 105.639 22.7074 105.57 23.1424C105.517 23.3614 105.447 23.582 105.36 23.8042C105.272 24.0263 105.202 24.2469 105.149 24.4659C104.911 25.4161 104.619 26.371 104.274 27.3305C103.962 28.2514 103.63 29.1562 103.278 30.0447C103.07 30.5276 102.845 31.012 102.601 31.498C102.393 31.9808 102.168 32.4652 101.924 32.9512C101.684 33.4726 101.458 33.957 101.247 34.4044C101.039 34.8873 100.796 35.3732 100.517 35.8623C100.179 36.4995 99.8243 37.1382 99.4514 37.7784C99.0785 38.4187 98.6701 39.0621 98.2263 39.7085C97.6853 40.4707 97.1397 41.1797 96.5894 41.8355C96.3274 42.1086 96.046 42.3656 95.7454 42.6063C95.4479 42.8826 95.1519 43.1765 94.8575 43.4882C94.6864 43.5747 94.5199 43.7144 94.358 43.9072C94.0867 44.074 93.8299 44.2036 93.5878 44.2963C93.3488 44.4245 93.0875 44.5009 92.8037 44.5258L92.5908 44.5444ZM102.396 27.9237C102.477 27.6307 102.559 27.3376 102.641 27.0445C102.722 26.7514 102.786 26.4599 102.832 26.1699L102.828 26.1167L102.818 26.0103C102.709 25.9841 102.602 25.9934 102.499 26.0382C102.137 26.3916 101.792 26.7434 101.465 27.0937C101.139 27.444 100.831 27.8104 100.543 28.1931C100.178 28.511 99.8492 28.8435 99.5579 29.1907C99.3021 29.5348 99.0462 29.8789 98.7904 30.2229C98.2756 30.8756 97.7963 31.5252 97.3524 32.1716C96.8731 32.8212 96.4131 33.487 95.9723 34.1689C95.7196 34.5485 95.5008 34.9072 95.3159 35.245C95.0986 35.6215 94.8798 35.9802 94.6594 36.3212C94.3126 36.8519 94.0222 37.4135 93.7881 38.0058C93.5571 38.6337 93.3276 39.2793 93.0997 39.9426C92.9272 40.4223 92.7447 40.9923 92.5523 41.6525C92.5323 41.833 92.5286 41.9942 92.541 42.1361C92.5179 42.2811 92.5142 42.4422 92.5297 42.6196C92.5004 42.6936 92.5421 42.7615 92.6547 42.8231C92.7673 42.8848 92.8591 42.9125 92.9301 42.9063C93.1074 42.8907 93.2963 42.8027 93.4967 42.6422C93.8945 42.2857 94.2822 42.0195 94.66 41.8435C94.7247 41.7663 94.8427 41.6845 95.0138 41.598C95.2728 41.2894 95.5333 40.9986 95.7953 40.7254C96.0574 40.4523 96.2986 40.1453 96.519 39.8043C96.7686 39.3893 97.0098 39.0822 97.2426 38.8831C97.5986 38.4588 97.913 37.9666 98.1857 37.4066C98.3121 37.2169 98.44 37.0448 98.5695 36.8905C98.6635 36.7393 98.7575 36.5881 98.8515 36.4369C99.0133 36.2441 99.1173 36.0026 99.1634 35.7126C99.2743 35.3455 99.3767 35.0863 99.4707 34.9351C99.617 34.5649 99.7827 34.2109 99.9676 33.873C100.152 33.5351 100.354 33.178 100.571 32.8015C100.911 32.1998 101.182 31.6221 101.384 31.0683C101.44 30.8847 101.498 30.7366 101.56 30.624C101.654 30.4728 101.73 30.3232 101.789 30.1751C101.856 30.1334 101.887 30.0771 101.881 30.0061C101.91 29.9321 101.922 29.8596 101.916 29.7887C102.033 29.4925 102.114 29.1994 102.16 28.9094C102.239 28.5808 102.317 28.2523 102.396 27.9237ZM104.082 14.1044C104.067 13.927 103.949 13.8122 103.73 13.7599C103.624 13.7692 103.519 13.7962 103.416 13.841C103.345 13.8472 103.274 13.8534 103.203 13.8596C102.905 14.1358 102.625 14.4105 102.363 14.6837C102.098 14.9213 101.836 15.1944 101.577 15.503C101.354 15.8085 101.13 16.114 100.907 16.4195C100.683 16.725 100.444 17.0498 100.188 17.3939C99.8411 17.9246 99.5299 18.4523 99.2541 18.9768C99.0137 19.4983 98.7765 20.0552 98.5424 20.6475L98.5564 20.8072L98.5657 20.9136C98.6459 21.0138 98.7554 21.0399 98.8942 20.9921C99.2042 20.8577 99.5256 20.6509 99.8586 20.3715C99.9234 20.2944 99.9881 20.2172 100.053 20.1401C100.114 20.0275 100.178 19.9326 100.242 19.8554C100.66 19.3185 101.062 18.8008 101.447 18.3024C101.829 17.7686 102.211 17.2347 102.594 16.7009C102.852 16.3923 103.074 16.0691 103.259 15.7312C103.48 15.3902 103.702 15.067 103.925 14.7615C103.954 14.6874 103.985 14.6311 104.018 14.5926C104.047 14.5185 104.076 14.4445 104.105 14.3704L104.082 14.1044ZM114.383 20.8165C114.751 20.5341 115.12 20.2516 115.488 19.9692C115.892 19.6837 116.258 19.3657 116.584 19.0155C116.982 18.659 117.418 18.3349 117.893 18.0431C118.4 17.7128 118.871 17.3678 119.304 17.0082C119.44 16.9249 119.575 16.8415 119.711 16.7582C119.879 16.6362 120.049 16.532 120.22 16.4456C120.391 16.3591 120.544 16.2742 120.68 16.1908C120.816 16.1075 120.987 16.021 121.193 15.9315C121.332 15.8836 121.372 15.9337 121.314 16.0818C121.359 16.1851 121.366 16.2738 121.337 16.3478C121.308 16.4219 121.28 16.5136 121.254 16.6232L120.211 17.5722C120.111 17.6525 119.995 17.752 119.862 17.8709C119.762 17.9511 119.662 18.0314 119.561 18.1116L117.707 20.204C117.315 20.6314 116.906 21.0604 116.479 21.4909C116.088 21.9184 115.661 22.3489 115.198 22.7825C115.03 22.9045 114.864 23.0441 114.699 23.2016C114.569 23.3559 114.422 23.5117 114.257 23.6691C114.125 23.7879 113.992 23.9068 113.859 24.0256C113.762 24.1413 113.68 24.22 113.612 24.2617C113.131 24.4825 112.738 24.4812 112.432 24.2577L112.147 24.0681C111.871 23.7706 111.691 23.554 111.608 23.4183C111.525 23.2827 111.514 22.9619 111.577 22.4559L111.711 21.5328C111.845 21.0207 111.963 20.5278 112.064 20.0543C112.166 19.5807 112.301 19.0864 112.471 18.5711L112.833 17.199L112.893 16.6576C112.881 16.5158 112.8 16.4156 112.652 16.357C112.546 16.3663 112.459 16.3918 112.391 16.4335L111.226 17.8222C111.035 18.0891 110.806 18.3414 110.541 18.5791C110.308 18.7782 110.053 18.9256 109.776 19.0214C109.676 19.1016 109.591 19.1626 109.524 19.2043C109.456 19.2459 109.391 19.3231 109.329 19.4357C109.242 19.6579 109.01 19.8747 108.636 20.0862L108.277 20.2784C107.97 20.4482 107.731 20.362 107.558 20.0197C107.397 19.8192 107.338 19.5563 107.381 19.2308C107.498 18.9347 107.599 18.6578 107.684 18.4001C107.733 18.1456 107.8 17.8896 107.885 17.632C108.037 17.3327 108.171 17.0172 108.285 16.6855C108.399 16.3539 108.493 16.006 108.569 15.642C108.615 15.352 108.699 15.0944 108.823 14.8692C108.901 14.5406 108.997 14.2105 109.111 13.8788C109.225 13.5472 109.32 13.1993 109.395 12.8353C109.448 12.6163 109.502 12.415 109.557 12.2314C109.648 12.0447 109.721 11.8596 109.776 11.676C109.832 11.4925 109.984 11.3898 110.232 11.3681L110.764 11.3216C110.871 11.3122 110.979 11.3207 111.088 11.3468C111.23 11.3344 111.341 11.3783 111.421 11.4785C111.762 11.6989 111.911 11.9718 111.868 12.2973C111.884 12.4746 111.864 12.6551 111.808 12.8387C111.75 12.9867 111.728 13.1495 111.744 13.3268C111.785 13.3947 111.86 13.4239 111.966 13.4146C112.072 13.4053 112.16 13.3798 112.227 13.3381C112.486 13.0295 112.766 12.7549 113.067 12.5141C113.403 12.2702 113.7 11.994 113.959 11.6854C114.292 11.4061 114.725 11.2431 115.257 11.1966C115.647 11.1624 115.94 11.244 116.136 11.4413C116.178 11.5092 116.219 11.577 116.261 11.6449C116.3 11.6772 116.322 11.7289 116.328 11.7998C116.453 12.0033 116.501 12.1421 116.472 12.2162C116.426 12.5062 116.375 12.7429 116.32 12.9265L114.811 17.1332L114.068 19.6646C113.927 20.1057 113.905 20.4651 114.001 20.7427C114.01 20.8491 114.068 20.8977 114.175 20.8883L114.281 20.879L114.286 20.9322L114.383 20.8165Z" fill="#CF4267"/>
</svg>
