<svg width="101" height="45" viewBox="0 0 101 45" fill="none" xmlns="http://www.w3.org/2000/svg">
<path d="M3.42758 39.2279C3.49275 39.9728 3.66434 40.7084 3.94234 41.4347C4.28198 42.0483 4.7318 42.4915 5.29181 42.7642C5.36275 42.758 5.41751 42.7711 5.45609 42.8035C5.53014 42.8327 5.60418 42.862 5.67823 42.8913C6.07463 42.9281 6.45018 42.9309 6.8049 42.8999C7.16272 42.9043 7.53208 42.8363 7.91296 42.6957C8.50046 42.4656 9.06868 42.2193 9.61761 41.9568C10.2051 41.7267 10.7687 41.4272 11.3083 41.0583C12.1871 40.481 13.0289 39.8891 13.8337 39.2825C14.6739 38.6729 15.4933 38.0293 16.2919 37.3518C16.7575 36.9536 17.223 36.5555 17.6886 36.1573C18.1511 35.7236 18.6552 35.3578 19.2011 35.0599C19.2689 35.0182 19.319 34.9781 19.3514 34.9395C19.4192 34.8978 19.4871 34.8562 19.5549 34.8145C20.0081 34.2744 20.4867 33.8215 20.9909 33.4557C21.5274 33.0513 22.0446 32.6308 22.5425 32.194C22.7106 32.0721 22.8609 31.9517 22.9935 31.8329C23.1615 31.711 23.328 31.5713 23.493 31.4139C23.8814 30.951 24.2906 30.522 24.7207 30.1269C25.1863 29.7288 25.6342 29.3322 26.0643 28.9371C26.5622 28.5004 27.0424 28.0652 27.5049 27.6315C27.9642 27.1624 28.422 26.6756 28.8783 26.171C29.108 25.9364 29.3392 25.7196 29.572 25.5205C29.8017 25.286 30.0329 25.0692 30.2657 24.8701C30.4661 24.7096 30.645 24.7118 30.8025 24.8767C30.9953 25.0386 31.0656 25.229 31.0133 25.4481C31.0257 25.5899 30.9833 25.7187 30.8862 25.8345C30.8925 25.9054 30.8809 25.9779 30.8517 26.052C30.8193 26.0905 30.7885 26.1468 30.7592 26.2209C30.7007 26.369 30.6244 26.5186 30.5304 26.6698C30.4364 26.821 30.3247 26.9738 30.1952 27.1281C29.8453 27.6233 29.4955 28.1186 29.1457 28.6139C28.7927 29.0737 28.422 29.535 28.0336 29.9979C27.6806 30.4577 27.2907 30.9029 26.8637 31.3334C26.4722 31.7609 26.0629 32.1899 25.6359 32.6204C25.0701 33.0988 24.5236 33.5934 23.9964 34.1042C23.5047 34.6119 22.9759 35.1049 22.4101 35.5834C22.1419 35.7855 21.8767 36.0232 21.6147 36.2963C21.385 36.5309 21.136 36.7493 20.8678 36.9514C20.043 37.7385 19.1959 38.4738 18.3264 39.1575C17.4924 39.8381 16.6406 40.5203 15.7711 41.204C15.3703 41.525 14.9663 41.8106 14.5593 42.0606C14.1553 42.3462 13.7514 42.6317 13.3475 42.9173C12.5657 43.3788 11.7601 43.771 10.9305 44.0938C10.1395 44.449 9.28591 44.7023 8.36985 44.854C7.98277 44.9236 7.60876 44.9384 7.24783 44.8985C6.89001 44.8941 6.5129 44.8735 6.11651 44.8367C6.04246 44.8074 5.95068 44.7797 5.84116 44.7535C5.73474 44.7628 5.62522 44.7367 5.5126 44.675C4.62714 44.3593 3.80952 44.0019 3.05974 43.6029C2.12329 43.1129 1.49589 42.2742 1.17754 41.0868C1.01216 40.4221 0.898438 39.7351 0.83637 39.0257C0.81775 38.8128 0.818417 38.6162 0.838372 38.4357C0.855224 38.2198 0.870524 37.9861 0.884272 37.7347C1.16718 36.0658 1.49021 34.4469 1.85337 32.8782C2.2489 31.2709 2.73311 29.6558 3.306 28.033C3.50775 27.4792 3.69177 26.9269 3.85805 26.3762C4.05669 25.7869 4.21987 25.2008 4.34758 24.6177C4.43537 24.3956 4.54401 24.2073 4.67348 24.053C4.89696 23.7475 5.06412 23.4112 5.17497 23.0441C5.3213 22.6739 5.44989 22.3052 5.56074 21.9381C5.78555 21.2393 6.05049 20.5906 6.35555 19.992C6.65752 19.3579 6.95948 18.7239 7.26144 18.0898C7.90704 16.8896 8.57348 15.7232 9.26076 14.5908C9.94804 13.4583 10.6901 12.339 11.4869 11.2327C11.584 11.117 11.6633 11.0028 11.725 10.8902C11.8221 10.7745 11.9015 10.6603 11.9631 10.5477C12.1804 10.1712 12.3814 9.81408 12.5663 9.47622C12.7836 9.09978 13.0202 8.73952 13.276 8.39544C13.4964 8.05447 13.7199 7.74898 13.9464 7.47895C14.2054 7.17035 14.4258 6.82937 14.6076 6.45604C14.7016 6.30484 14.8619 6.09423 15.0884 5.8242C15.3797 5.47702 15.6711 5.12985 15.9624 4.78267C16.2537 4.43549 16.5257 4.07213 16.7785 3.69259C17.0312 3.31304 17.3032 2.94968 17.5946 2.6025C17.9213 2.25222 18.2111 1.88731 18.4638 1.50776C18.6873 1.20226 19.0265 0.993871 19.4814 0.882582C19.7652 0.857755 20.0328 0.852216 20.2842 0.865966C20.568 0.841139 20.8502 0.798575 21.1309 0.738275C21.663 0.691724 22.2044 0.751589 22.7551 0.917871C23.2348 1.09036 23.7199 1.11941 24.2103 1.00502L24.7956 0.95381C24.9791 1.00924 25.1257 1.05003 25.2352 1.07619C25.3447 1.10235 25.4735 1.1447 25.6216 1.20323C25.8407 1.25555 26.0142 1.40121 26.1424 1.6402C26.2674 1.84372 26.3069 2.09048 26.2608 2.38046C26.1637 2.49618 26.1328 2.5525 26.1683 2.54939C26.116 2.76843 26.0559 2.89879 25.9881 2.94046C25.5442 3.58693 25.1374 4.24804 24.7676 4.92377C24.4333 5.5964 24.0827 6.28832 23.716 6.99952C23.5635 7.29881 23.4125 7.61584 23.2631 7.9506C23.1492 8.28227 23.0175 8.61548 22.868 8.95024C22.6109 9.68761 22.3537 10.425 22.0965 11.1623C21.8362 11.8642 21.6161 12.6162 21.436 13.4183C21.3021 13.9305 21.1343 14.4634 20.9325 15.0172C20.7631 15.5325 20.6146 16.0816 20.4869 16.6647C20.4146 17.0642 20.3262 17.483 20.2215 17.921C20.1169 18.3591 20.0461 18.7763 20.0093 19.1727C19.9433 19.6432 19.8579 20.0974 19.7533 20.5355C19.6486 20.9736 19.5262 21.4132 19.3861 21.8544C19.2367 22.1892 19.0471 22.4738 18.8174 22.7084C18.7851 22.747 18.7157 22.7709 18.6093 22.7802C18.5383 22.7864 18.4596 22.7039 18.3732 22.5328C18.2202 22.01 18.1413 21.5165 18.1364 21.0523C18.1732 20.6559 18.1907 20.2433 18.189 19.8145C18.2196 19.3472 18.271 18.9138 18.3433 18.5143C18.4124 18.0793 18.4639 17.6459 18.4976 17.214C18.5668 16.779 18.6375 16.3618 18.7098 15.9623C18.9483 15.0121 19.1691 14.0635 19.3722 13.1164C19.5722 12.1338 19.827 11.1643 20.1365 10.2079C20.1626 10.0984 20.1888 9.98887 20.2149 9.87935C20.2411 9.76983 20.2673 9.66031 20.2934 9.5508C20.3396 9.26081 20.3857 8.97083 20.4318 8.68085C20.5103 8.35229 20.571 8.02529 20.614 7.69983C20.6695 7.51627 20.7087 7.35199 20.7318 7.207C20.7517 7.02654 20.7894 6.84452 20.8448 6.66096C20.9943 6.32619 21.1452 6.00917 21.2978 5.70988C21.4472 5.37511 21.5596 5.02571 21.635 4.66168C21.5995 4.66479 21.5802 4.6486 21.5771 4.61313C21.574 4.57766 21.5547 4.56148 21.5193 4.56458C21.5193 4.56458 21.5177 4.54684 21.5146 4.51137C21.4375 4.44663 21.3811 4.41582 21.3457 4.41892C21.2747 4.42513 21.2053 4.44907 21.1375 4.49075C20.8661 4.65746 20.6141 4.84036 20.3813 5.03945C20.184 5.23543 19.9527 5.45225 19.6876 5.6899C19.0925 6.24237 18.5006 6.83031 17.9117 7.45372C17.3584 8.07403 16.805 8.69433 16.2516 9.31464C15.834 9.85159 15.434 10.387 15.0518 10.9208C14.6696 11.4547 14.2696 11.9901 13.8519 12.527C12.958 13.749 12.1204 15.0018 11.3392 16.2855C10.5934 17.566 9.86839 18.8804 9.16425 20.2288C8.92082 20.7148 8.67739 21.2007 8.43396 21.6867C8.2229 22.1341 7.9941 22.583 7.74757 23.0335C7.50724 23.5549 7.2831 24.0571 7.07514 24.5399C6.86408 24.9873 6.65612 25.4702 6.45126 25.9885C6.04465 27.0606 5.67352 28.1297 5.33785 29.1956C5.00219 30.2615 4.68581 31.3436 4.38872 32.4419C4.17322 33.2471 3.97546 34.0508 3.79543 34.8529C3.64777 35.6164 3.52095 36.4139 3.41497 37.2452C3.36441 37.893 3.36862 38.5539 3.42758 39.2279ZM37.2552 21.0953C37.2645 21.2017 37.2576 21.3274 37.2346 21.4724C37.2594 21.7562 37.4314 21.8841 37.7507 21.8562L38.2827 21.8096C38.5603 21.7138 38.9297 21.6458 39.3908 21.6054C39.8874 21.562 40.2745 21.4924 40.5521 21.3966L41.297 21.3314C41.3741 21.3962 41.4158 21.464 41.422 21.535C41.5825 21.7354 41.5787 21.8966 41.4107 22.0185C41.3845 22.128 41.3375 22.2036 41.2697 22.2453C41.2342 22.2484 41.1841 22.2885 41.1194 22.3657C40.9899 22.52 40.8897 22.6002 40.8187 22.6064C40.4379 22.747 39.9845 22.876 39.4586 22.9935C38.9682 23.1079 38.5503 23.2338 38.2049 23.3713C37.6591 23.6692 37.1201 23.8415 36.5881 23.888C36.5202 23.9297 36.4524 23.9714 36.3845 24.0131C36.3522 24.0516 36.3021 24.0918 36.2342 24.1334C36.1695 24.2106 36.1225 24.2862 36.0932 24.3602C36.0963 24.3957 36.0817 24.4327 36.0493 24.4713C35.9553 24.6225 35.8952 24.7529 35.8691 24.8624C35.8398 24.9364 35.7928 25.012 35.7281 25.0892C35.4093 25.9392 34.9069 26.7337 34.2209 27.4729C33.5705 28.2089 32.9639 28.8339 32.4012 29.3478C32.1715 29.5823 31.8292 29.7552 31.3743 29.8665L31.0018 29.8991C30.8954 29.9084 30.7682 29.8838 30.6201 29.8253C30.1851 29.7561 29.8503 29.6067 29.6158 29.377C29.3812 29.1473 29.1937 28.842 29.0531 28.4611C29.0114 28.3933 28.9891 28.3416 28.986 28.3062C28.8902 28.0286 28.8846 27.761 28.9693 27.5034C28.9955 27.3939 29.0409 27.3005 29.1057 27.2234C29.1349 27.1493 29.1449 27.0591 29.1356 26.9527C29.2527 26.6565 29.3227 26.4359 29.3458 26.2909C29.4442 25.7819 29.5504 25.3616 29.6644 25.0299C29.7429 24.7014 29.8668 24.2795 30.0362 23.7642C30.1209 23.5066 30.2056 23.249 30.2903 22.9914C30.375 22.7338 30.4774 22.4746 30.5975 22.2139C30.7177 21.9532 30.8394 21.7102 30.9627 21.485C31.1214 21.2566 31.2802 21.0283 31.4389 20.7999C31.5914 20.5006 31.7278 20.2206 31.848 19.9599C31.9681 19.6992 32.1045 19.4192 32.257 19.1199C32.3803 18.8947 32.5645 18.7534 32.8097 18.6962C32.9392 18.5419 33.1281 18.4539 33.3764 18.4322C33.7603 18.3271 34.1975 18.2174 34.6879 18.103C35.1783 17.9886 35.5778 18.0609 35.8864 18.3198C35.9636 18.3846 36.0392 18.4316 36.1132 18.4608C36.1842 18.4546 36.2582 18.4839 36.3354 18.5486C36.4573 18.7167 36.56 18.8685 36.6433 19.0042C36.7267 19.1399 36.8293 19.2918 36.9512 19.4598C37.0377 19.631 37.1064 19.8037 37.1574 19.9779C37.2053 20.1167 37.2208 20.2941 37.204 20.51L37.2552 21.0953ZM34.3646 23.6C34.3522 23.4581 34.3267 23.371 34.2882 23.3386C34.0922 23.1413 33.9317 22.9409 33.8066 22.7374C33.6816 22.5339 33.5566 22.3303 33.4315 22.1268C33.3898 22.059 33.295 21.9958 33.1469 21.9373C33.1083 21.9049 33.0181 21.8949 32.8762 21.9073C32.8052 21.9135 32.7212 21.9745 32.6241 22.0902C32.4685 22.354 32.3159 22.6533 32.1665 22.9881C31.8384 23.7317 31.5927 24.3965 31.4296 24.9827C31.2664 25.5689 31.1125 26.2615 30.968 27.0605L30.9819 27.2201C30.9527 27.2941 30.9411 27.3666 30.9473 27.4376C30.989 27.5054 31.0453 27.5362 31.1163 27.53C31.2289 27.5917 31.3176 27.5839 31.3823 27.5068C32.1024 27.1578 32.699 26.6231 33.1721 25.9026C33.6452 25.182 34.0327 24.5048 34.3347 23.8707C34.364 23.7967 34.3739 23.7064 34.3646 23.6ZM35.7461 19.7797C35.7399 19.7088 35.6982 19.6409 35.6211 19.5762C35.4792 19.5886 35.4098 19.6125 35.4129 19.648C34.9504 20.0817 34.6939 20.6224 34.6433 21.2702C34.6141 21.3442 34.6025 21.4167 34.6088 21.4877C34.6473 21.52 34.6697 21.5717 34.6759 21.6426C34.679 21.6781 34.7223 21.7637 34.8056 21.8994C34.8828 21.9641 34.9568 21.9934 35.0278 21.9872C35.1342 21.9778 35.2197 21.9346 35.2845 21.8575C35.3816 21.7417 35.461 21.6276 35.5226 21.5149C35.6459 21.2897 35.7128 21.0336 35.7235 20.7468C35.7341 20.4599 35.7448 20.173 35.7554 19.8861L35.7461 19.7797ZM44.9509 24.2823C44.6671 24.3071 44.3687 24.369 44.0557 24.4678C43.7395 24.5312 43.475 24.5722 43.2622 24.5909C42.9784 24.6157 42.7093 24.6035 42.4548 24.5543C42.2003 24.5051 41.9249 24.4219 41.6287 24.3049C40.8111 23.9475 40.3165 23.401 40.1449 22.6654C39.9702 21.8943 40.06 21.0822 40.4143 20.2291C40.5961 19.8558 40.9391 19.4862 41.4432 19.1204C41.9443 18.7192 42.4854 18.368 43.0667 18.0669C43.6835 17.7628 44.2887 17.5311 44.8825 17.3719C45.5085 17.1742 46.036 17.0744 46.4647 17.0727C46.784 17.0447 47.0462 17.1826 47.2515 17.4864C47.3411 17.693 47.3389 17.8719 47.2449 18.0231C47.1478 18.1388 47.0283 18.2029 46.8864 18.2153C46.5702 18.2787 46.1716 18.4208 45.6905 18.6416C45.2418 18.8238 44.7978 19.0593 44.3583 19.3479C43.9158 19.6011 43.4942 19.8882 43.0933 20.2092C42.728 20.5271 42.4513 20.8373 42.2633 21.1397C42.1076 21.4035 42.0615 21.6935 42.1249 22.0096C42.1883 22.3258 42.3134 22.5293 42.5 22.6202L44.3623 22.4573C44.8944 22.4107 45.5098 22.4998 46.2086 22.7246C46.9429 22.9463 47.4543 23.2769 47.743 23.7163C47.9961 24.1588 48.0442 24.7086 47.8873 25.3658C47.7272 25.9874 47.4299 26.6747 46.9954 27.4275C46.5932 28.1419 46.1023 28.8639 45.5228 29.5938C44.9433 30.3236 44.3221 30.9856 43.6592 31.5797C43.0287 32.1353 42.4097 32.6184 41.8022 33.0289C41.2271 33.4009 40.7445 33.604 40.3543 33.6381C39.9996 33.6692 39.7127 33.6585 39.4937 33.6062C39.2715 33.5184 39.1897 33.4005 39.2482 33.2524C40.0144 32.6134 40.6658 32.0918 41.2023 31.6874C41.7712 31.2445 42.3809 30.655 43.0314 29.919C43.2548 29.6135 43.5885 29.1375 44.0323 28.491C44.5117 27.8414 44.9023 27.1996 45.2043 26.5656C45.5417 25.9284 45.7257 25.3762 45.7563 24.9088C45.8224 24.4384 45.5539 24.2295 44.9509 24.2823ZM53.711 16.7604C53.6587 16.9794 53.6095 17.2339 53.5634 17.5239C53.5173 17.8139 53.4179 18.1085 53.2654 18.4078C53.096 18.923 52.9074 19.4221 52.6994 19.9049C52.5269 20.3847 52.356 20.8822 52.1866 21.3974C52.0788 21.8 51.968 22.1671 51.854 22.4988C51.7755 22.8274 51.7179 23.1898 51.6811 23.5862C51.635 23.8762 51.6097 24.2001 51.6053 24.5579C51.6332 24.8772 51.6596 25.1787 51.6844 25.4625C51.8174 26.1657 52.0367 26.6291 52.3422 26.8525C52.6831 27.0729 53.2052 27.1166 53.9085 26.9836C54.9633 26.7841 55.9317 26.4134 56.8136 25.8716C57.085 25.7049 57.3402 25.5574 57.5791 25.4293C57.815 25.2657 58.0718 25.136 58.3493 25.0402C58.4203 25.034 58.4928 25.0455 58.5668 25.0748C58.6763 25.101 58.802 25.1078 58.9439 25.0954C58.5972 25.6262 58.2844 26.1361 58.0055 26.6251C57.7266 27.1142 57.3497 27.5046 56.8748 27.7964C55.8248 28.4601 54.6713 28.7576 53.4143 28.6889C52.3732 28.637 51.4961 28.2133 50.7832 27.4178C50.0671 26.5869 49.6995 25.654 49.6805 24.6191C49.708 24.1163 49.7887 23.6088 49.9226 23.0967C50.0534 22.5491 50.1649 21.9853 50.2571 21.4054C50.5729 20.5199 50.8886 19.6344 51.2043 18.749C51.52 17.8635 51.892 17.0089 52.3203 16.1851C52.5438 15.8796 52.7125 15.561 52.8265 15.2293C52.9404 14.8977 53.0706 14.5467 53.2169 14.1765C53.357 13.7353 53.3182 13.2919 53.1005 12.8463C52.8877 12.8649 52.691 12.8642 52.5106 12.8443C52.3301 12.8243 52.1157 12.8252 51.8674 12.8469C51.0161 12.9214 50.1309 13.0167 49.2117 13.1329C48.328 13.2459 47.425 13.3428 46.5028 13.4235C45.8288 13.4825 45.1872 13.5029 44.578 13.4847C43.9687 13.4665 43.3356 13.3789 42.6785 13.2219C42.4594 13.1696 42.2728 13.0787 42.1185 12.9492C41.9287 12.8229 41.7212 12.6981 41.4959 12.5748C41.832 12.3309 42.1759 12.1757 42.5275 12.1092C42.8436 12.0458 43.1436 12.0017 43.4274 11.9769L52.9516 11.1436L54.2286 11.0319C54.7402 10.3438 55.1054 9.61482 55.324 8.84508C55.5674 8.35912 55.8124 7.89089 56.0589 7.4404C56.3055 6.98991 56.5165 6.54253 56.6921 6.09825C56.7569 6.0211 56.8039 5.9455 56.8331 5.87145C56.8593 5.76193 56.9047 5.6686 56.9695 5.59145C57.1637 5.35999 57.3996 5.19638 57.6771 5.10061C57.9547 5.00484 58.2354 4.94454 58.5192 4.91972C58.9093 4.88558 59.167 4.97027 59.292 5.17379C59.417 5.37731 59.5791 5.59547 59.7782 5.82825C59.2372 6.59045 58.714 7.35109 58.2085 8.11018C57.7385 8.86617 57.3086 9.67226 56.9189 10.5285C58.0664 10.571 59.1514 10.5119 60.1739 10.3509C61.1963 10.19 62.2219 10.0645 63.2506 9.9745C64.2145 9.96165 65.1916 9.89405 66.1817 9.77168C67.1718 9.64931 68.128 9.54779 69.0502 9.4671C70.0497 9.45115 71.0653 9.41591 72.0971 9.36138C73.1257 9.27139 74.1575 9.21686 75.1924 9.19781C73.5749 9.91121 71.7374 10.3579 69.6801 10.5379C68.6931 10.6957 67.7238 10.852 66.7723 11.0068C65.8562 11.1584 64.9047 11.3131 63.9177 11.471C62.8597 11.635 61.7825 11.7829 60.686 11.9146C59.5894 12.0462 58.4945 12.1957 57.401 12.3628L56.8158 12.414C56.3901 12.4512 56.0431 12.571 55.7749 12.7731C55.5035 12.9399 55.3155 13.2423 55.2109 13.6803C55.0676 14.086 54.8874 14.4771 54.6701 14.8536C54.4529 15.23 54.2549 15.6226 54.0762 16.0314L53.9698 16.0407C53.9112 16.1888 53.8689 16.3176 53.8427 16.4272C53.8135 16.5012 53.7696 16.6123 53.711 16.7604ZM61.2161 15.9965C61.3642 16.0551 61.5123 16.1136 61.6604 16.1721C61.8054 16.1952 61.9133 16.2036 61.9843 16.1974C62.1802 16.3947 62.2459 16.532 62.1811 16.6091C61.9346 17.0596 61.6357 17.7291 61.2846 18.6177C60.9303 19.4708 60.6099 20.303 60.3235 21.1144C60.0725 21.9228 59.8993 22.5992 59.804 23.1436C59.741 23.6496 59.8953 23.779 60.2669 23.5321C60.4673 23.3716 60.6176 23.2512 60.7178 23.1709C60.8149 23.0552 60.9313 22.9557 61.067 22.8723C61.9503 21.9372 62.8304 20.9666 63.7075 19.9605C64.5814 18.919 65.4423 17.9322 66.2901 17.0002C66.4812 16.7333 66.6608 16.5389 66.8288 16.4169C66.9938 16.2595 67.2181 16.1684 67.5019 16.1436C67.6376 16.0602 67.7988 16.064 67.9854 16.1549C68.2045 16.2072 68.5215 16.3582 68.9365 16.6078C68.9489 16.7497 68.9483 16.9464 68.9345 17.1978C68.9531 17.4106 68.8946 17.5587 68.7589 17.6421C68.2933 18.0402 67.9952 18.5131 67.8643 19.0607C67.7304 19.5728 67.4901 20.0943 67.1434 20.625C66.8968 21.0755 66.7436 21.5714 66.6838 22.1128C66.6563 22.6156 66.8123 23.1739 67.152 23.7875C67.2939 23.7751 67.4535 23.7612 67.6308 23.7457C67.8437 23.727 68.0179 23.676 68.1536 23.5927C68.9154 23.3116 69.6417 23.0336 70.3325 22.7587C71.0557 22.4452 71.7596 22.1155 72.4442 21.7697C72.8543 21.5551 73.2645 21.3405 73.6746 21.1259C74.1171 20.8727 74.6044 20.7229 75.1365 20.6763C75.0842 20.8954 74.9347 21.2301 74.6882 21.6806C74.4417 22.1311 74.2506 22.398 74.1149 22.4814C73.4489 23.04 72.7073 23.5517 71.8901 24.0164C71.1053 24.4425 70.3398 24.8848 69.5935 25.3432C69.2512 25.5162 68.9236 25.6521 68.6105 25.7509C68.3329 25.8467 67.9991 25.9117 67.6089 25.9458C67.3282 26.0061 67.022 25.9793 66.6904 25.8653C66.3587 25.7513 66.0594 25.5988 65.7925 25.4077C65.5225 25.1811 65.2848 24.916 65.0795 24.6122C64.9097 24.3054 64.8301 24.0086 64.8408 23.7217C64.8159 23.4379 64.8057 23.1171 64.8102 22.7593C64.8501 22.3984 64.8514 22.0051 64.8142 21.5794C64.6492 21.7368 64.5005 21.8749 64.3679 21.9937C64.2677 22.074 64.1883 22.1882 64.1298 22.3363C63.7476 22.8701 63.3314 23.4248 62.8814 24.0003C62.4282 24.5404 62.0105 25.0773 61.6283 25.6112C61.4279 25.7717 61.1936 25.953 60.9253 26.1552C60.6571 26.3574 60.3841 26.5064 60.1066 26.6022C59.7026 26.8877 59.2692 26.8363 58.8063 26.4478C58.5363 26.2213 58.3195 25.99 58.1559 25.7541C57.9891 25.4828 57.8887 25.152 57.8546 24.7618C57.8049 24.1943 57.8471 23.6544 57.981 23.1423C58.1118 22.5947 58.2441 22.0648 58.3781 21.5527C58.6583 20.6704 58.9609 19.8397 59.2859 19.0606C59.611 18.2816 59.9329 17.4671 60.2517 16.6171C60.3102 16.469 60.3718 16.3563 60.4366 16.2792C60.5013 16.202 60.6193 16.1202 60.7904 16.0338L61.2161 15.9965ZM72.5279 25.1401C72.5231 24.6759 72.6146 24.2926 72.8026 23.9902C72.9552 23.6909 73.1046 23.3561 73.2509 22.9859C73.3972 22.6156 73.5467 22.2809 73.6992 21.9816C73.7546 21.798 73.8132 21.6499 73.8748 21.5373C73.9333 21.3892 74.008 21.2218 74.0989 21.0352C74.0958 20.9997 74.1205 20.8724 74.1728 20.6534C74.2065 20.2215 74.2949 19.8027 74.4382 19.397C74.6138 18.9528 74.7539 18.5116 74.8585 18.0735C74.9108 17.8545 75.0195 17.6662 75.1844 17.5088C75.2398 17.3253 75.374 17.2242 75.5868 17.2056C75.7934 17.116 75.9854 17.0635 76.1628 17.0479C76.3694 16.9584 76.5191 17.0346 76.6117 17.2767C76.7691 17.4417 76.8633 17.7015 76.8944 18.0562L76.9177 18.3223C76.927 18.4287 76.9879 18.5127 77.1006 18.5743C77.2455 18.5974 77.3681 18.5688 77.4684 18.4885C77.5331 18.4114 77.651 18.3296 77.8222 18.2431C77.8869 18.166 77.9678 18.0695 78.0649 17.9538C78.1621 17.8381 78.2784 17.7385 78.4141 17.6552C78.4789 17.578 78.5644 17.5348 78.6709 17.5255C78.7773 17.5162 78.8821 17.4891 78.9854 17.4444C79.1242 17.3965 79.3532 17.3586 79.6725 17.3306C80.166 17.2517 80.6118 17.445 81.01 17.9106C81.0193 18.017 81.0448 18.1042 81.0865 18.172C81.2053 18.3046 81.3503 18.3276 81.5215 18.2412C81.5893 18.1995 81.6571 18.1578 81.725 18.1161C81.7897 18.039 81.856 17.9796 81.9238 17.9379L82.6521 17.07C82.8494 16.874 83.0113 16.6811 83.1377 16.4913C83.2995 16.2984 83.4613 16.1056 83.6232 15.9127C83.6817 15.7646 83.7611 15.6504 83.8613 15.5702C83.9939 15.4513 84.1103 15.3518 84.2105 15.2716C84.4787 15.0694 84.747 14.8672 85.0152 14.665C85.2804 14.4273 85.5456 14.1897 85.8107 13.952C86.2146 13.6665 86.6518 13.5567 87.1223 13.6228C87.4477 13.6658 87.6745 13.8068 87.8027 14.0458C87.8182 14.2232 87.8259 14.3119 87.8259 14.3119C87.786 14.6728 87.7253 14.9998 87.6437 15.2929C87.5976 15.5829 87.4998 15.8952 87.3504 16.23C87.0901 16.9319 86.8476 17.6322 86.6227 18.331C86.3979 19.0298 86.1361 19.714 85.8372 20.3835C85.7002 20.8602 85.5455 21.3384 85.373 21.8181C85.236 22.2948 85.0812 22.773 84.9087 23.2527C84.7624 23.623 84.6338 23.9916 84.523 24.3588C84.409 24.6904 84.2804 25.0591 84.1372 25.4648C84.1403 25.5003 84.1272 25.5551 84.098 25.6291C84.1042 25.7 84.1104 25.771 84.1166 25.8419C84.129 25.9838 84.1707 26.0517 84.2416 26.0454C84.2833 26.1133 84.3365 26.1086 84.4012 26.0315C84.4722 26.0253 84.5917 25.9612 84.7597 25.8393C85.1251 25.5214 85.4727 25.205 85.8026 24.8902C86.168 24.5723 86.5125 24.2204 86.8362 23.8347C86.8685 23.7961 86.9025 23.7753 86.9379 23.7722C86.9703 23.7336 87.0011 23.6773 87.0304 23.6032C87.2893 23.2946 87.5707 23.0377 87.8744 22.8324C88.175 22.5916 88.4548 22.317 88.7138 22.0084C88.9727 21.6998 89.2509 21.4073 89.5485 21.1311C89.846 20.8549 90.1258 20.5802 90.3878 20.3071C90.5914 20.182 90.7756 20.0408 90.9405 19.8834C91.1055 19.726 91.309 19.601 91.5511 19.5083L91.6575 19.499C91.8056 19.5575 91.8473 19.6254 91.7825 19.7025C91.7888 19.7735 91.7757 19.8282 91.7433 19.8668C91.7464 19.9023 91.7333 19.957 91.7041 20.0311C91.7227 20.2439 91.6688 20.4452 91.5424 20.635C91.2928 21.05 91.0046 21.4326 90.6778 21.7829C90.351 22.1332 90.0597 22.4804 89.8038 22.8244C89.5356 23.0266 89.2882 23.2627 89.0616 23.5328C88.8705 23.7997 88.6763 24.0311 88.479 24.2271C88.0905 24.69 87.7006 25.1352 87.309 25.5626C86.953 25.987 86.5807 26.4306 86.1923 26.8935C85.7161 27.5785 85.2113 28.141 84.6779 28.5808C84.5129 28.7382 84.3272 28.8617 84.1205 28.9513C83.9463 29.0022 83.7543 29.0548 83.5446 29.1089C83.1898 29.1399 82.8952 29.0406 82.6606 28.8109C81.9725 28.2992 81.7169 27.6246 81.8938 26.787C81.9954 26.3135 82.1224 25.927 82.2749 25.6277C82.4212 25.2575 82.5691 24.905 82.7186 24.5702C82.8649 24.2 83.0097 23.812 83.1529 23.4063C83.3023 23.0716 83.434 22.7384 83.548 22.4067C83.6943 22.0365 83.8422 21.684 83.9916 21.3492C84.047 21.1656 84.104 20.9998 84.1625 20.8517C84.2179 20.6681 84.2556 20.4861 84.2756 20.3057C84.4188 19.9 84.5459 19.5135 84.6567 19.1464C84.7645 18.7438 84.8899 18.3396 85.0332 17.9339C85.1272 17.7827 85.1857 17.6346 85.2088 17.4897C85.238 17.4156 85.2449 17.2899 85.2294 17.1126C85.2232 17.0416 85.1653 16.9931 85.0558 16.9669C84.9817 16.9376 84.9108 16.9438 84.843 16.9855C84.772 16.9917 84.7042 17.0334 84.6394 17.1105C84.4745 17.268 84.3257 17.4061 84.1932 17.5249C84.096 17.6406 83.9828 17.7756 83.8533 17.9299C83.2968 18.5148 82.7612 19.1335 82.2464 19.7862C81.7671 20.4358 81.2877 21.0853 80.8084 21.7349C80.6528 21.9987 80.4794 22.2641 80.2883 22.531C80.1296 22.7594 79.9708 22.9877 79.8121 23.2161C79.6857 23.4059 79.5594 23.5956 79.433 23.7854C79.339 23.9366 79.2288 24.1071 79.1024 24.2969C78.9823 24.5576 78.7896 24.8068 78.5245 25.0444C78.1946 25.3592 77.8044 25.3934 77.3539 25.1468C77.1641 25.0205 77.0098 24.891 76.891 24.7584C76.769 24.5904 76.6633 24.403 76.5737 24.1964C76.5613 24.0545 76.5728 23.982 76.6083 23.9789C76.6637 23.7953 76.7014 23.6133 76.7214 23.4329C76.7737 23.2138 76.8438 22.9932 76.9316 22.7711C76.9901 22.623 77.0347 22.3153 77.0653 21.8479C77.0591 21.777 77.0189 21.7269 76.9449 21.6976C76.9063 21.6653 76.8708 21.6684 76.8385 21.7069C76.5192 21.7349 76.3157 21.8599 76.2279 22.082C76.0661 22.2749 75.9235 22.484 75.8002 22.7092C75.6739 22.899 75.5699 23.1404 75.4883 23.4335C75.365 23.6588 75.2418 23.884 75.1185 24.1093C75.0307 24.3314 74.9445 24.5713 74.8598 24.8289C74.7134 25.1991 74.4946 25.5578 74.2033 25.905C74.1448 26.0531 74.0461 26.1511 73.9073 26.199C73.73 26.2145 73.5673 26.193 73.4192 26.1344C73.2063 26.1531 73.0389 26.0784 72.917 25.9103C72.6856 25.7161 72.5559 25.4594 72.5279 25.1401ZM92.9087 25.0727C92.5186 25.1069 92.1946 25.0816 91.937 24.9969C91.863 24.9676 91.7889 24.9384 91.7149 24.9091C91.6408 24.8798 91.5313 24.8537 91.3863 24.8306C91.3123 24.8013 91.256 24.7705 91.2174 24.7382C91.1788 24.7058 91.1225 24.675 91.0485 24.6457C90.8556 24.4839 90.682 24.3382 90.5277 24.2087C90.3379 24.0824 90.1805 23.9174 90.0555 23.7139C89.8888 23.4425 89.8593 23.1055 89.967 22.7029C90.0132 22.413 90.077 22.1214 90.1586 21.8283C90.2402 21.5353 90.3202 21.2244 90.3987 20.8959C90.4249 20.7864 90.4672 20.6576 90.5258 20.5095C90.5488 20.3645 90.5912 20.2357 90.6528 20.123C90.8022 19.7883 90.91 19.3857 90.976 18.9152C91.0128 18.5188 91.1299 18.2226 91.3272 18.0267C91.4642 17.55 91.7624 17.0771 92.2218 16.608C92.416 16.3766 92.5925 16.1467 92.7512 15.9183C92.9454 15.6869 93.1412 15.4732 93.3385 15.2772C93.4742 15.1938 93.5921 15.112 93.6923 15.0318C93.899 14.9422 94.0894 14.8719 94.2637 14.8209C94.4703 14.7314 94.7124 14.6387 94.9899 14.5429C95.0578 14.5013 95.1272 14.4773 95.1981 14.4711C95.3045 14.4618 95.3932 14.454 95.4642 14.4478C95.7896 14.4908 95.9925 14.5624 96.0727 14.6627C96.3782 14.8861 96.6482 15.1127 96.8828 15.3424C97.0433 15.5428 97.1892 15.7803 97.3204 16.0547C97.4517 16.3292 97.441 16.6161 97.2885 16.9154C97.1005 17.2177 96.877 17.5232 96.6181 17.8318C96.356 18.105 96.094 18.3781 95.8319 18.6512C95.502 18.966 95.1737 19.2986 94.8469 19.6489C94.517 19.9637 94.1694 20.28 93.804 20.598C93.5712 20.797 93.2937 20.8928 92.9713 20.8853C92.8294 20.8977 92.7246 20.9247 92.6567 20.9664C92.4532 21.0914 92.3206 21.2103 92.259 21.3229C92.1419 21.6191 92.0896 21.8381 92.102 21.98C91.9588 22.3857 91.9444 22.8338 92.0588 23.3242C92.1359 23.3889 92.1953 23.4552 92.237 23.523C92.2756 23.5554 92.3512 23.6024 92.4638 23.664C92.7538 23.7102 92.9859 23.7077 93.1602 23.6567C93.6151 23.5454 94.0299 23.384 94.4046 23.1725C94.8857 22.9517 95.312 22.7179 95.6836 22.4709C96.0906 22.2208 96.4961 21.953 96.9 21.6675C97.3363 21.3433 97.7565 21.0385 98.1604 20.753C98.5967 20.4289 99.033 20.1047 99.4693 19.7806C99.6759 19.6911 99.8325 19.6416 99.9389 19.6323C100.039 19.552 100.147 19.5605 100.263 19.6576C100.411 19.7161 100.47 19.7824 100.441 19.8564C100.378 20.3624 100.151 20.829 99.7593 21.2565C99.3877 21.5034 99.0192 21.7859 98.6539 22.1038C98.324 22.4186 98.0118 22.7319 97.7174 23.0436C97.4492 23.2457 97.1647 23.4672 96.8641 23.708C96.5958 23.9102 96.289 24.08 95.9436 24.2174C95.7046 24.3456 95.4479 24.4753 95.1734 24.6065C94.9313 24.6992 94.6684 24.7579 94.3846 24.7827C94.1425 24.8754 93.8988 24.9503 93.6537 25.0075C93.4085 25.0647 93.1601 25.0865 92.9087 25.0727ZM95.5439 16.5854C95.4668 16.5207 95.4267 16.4706 95.4236 16.4351C95.4174 16.3642 95.3965 16.3303 95.3611 16.3334L95.0418 16.3613C95.0125 16.4353 94.9494 16.5302 94.8522 16.646C94.5286 17.0317 94.2064 17.4352 93.8858 17.8564C93.6007 18.2745 93.3719 18.7235 93.1995 19.2032C93.2119 19.3451 93.2358 19.4145 93.2713 19.4114L93.4309 19.3975C93.5927 19.2046 93.7561 19.0294 93.9211 18.872C94.0829 18.6792 94.2448 18.4863 94.4066 18.2934C94.6749 18.0912 94.8868 17.8582 95.0425 17.5944C95.1981 17.3306 95.336 17.0683 95.4562 16.8076C95.5209 16.7304 95.5502 16.6564 95.5439 16.5854Z" fill="#CF4267"/>
</svg>
