<svg width="97" height="53" viewBox="0 0 97 53" fill="none" xmlns="http://www.w3.org/2000/svg">
<path d="M5.96554 46.4664C5.8946 46.4726 5.80592 46.4804 5.6995 46.4897C5.62856 46.4959 5.55606 46.4843 5.48202 46.4551C5.19203 46.409 4.90361 46.3806 4.61673 46.3699C4.33295 46.3948 4.04607 46.3841 3.75609 46.338C3.17303 46.2103 2.7079 46.0008 2.36073 45.7095C2.05213 45.4505 1.77744 45.1707 1.53668 44.8701C1.29902 44.605 1.05981 44.3221 0.819053 44.0214C0.488727 43.5142 0.321128 43.0284 0.316256 42.5642C0.266602 41.9967 0.268604 41.4067 0.322262 40.7944C0.303641 40.5815 0.320493 40.3656 0.372816 40.1466C0.389668 39.9306 0.388784 39.7163 0.370163 39.5034C0.403866 39.0716 0.456857 38.6559 0.529135 38.2564C0.59831 37.8214 0.686773 37.4026 0.794523 37C1.02687 35.9789 1.33638 35.0225 1.72303 34.1308C1.87556 33.8315 1.97333 33.5191 2.01635 33.1937C2.09483 32.8651 2.19261 32.5527 2.30967 32.2566C2.39125 31.9635 2.47439 31.6881 2.55909 31.4305C2.64378 31.1729 2.80097 30.9268 3.03065 30.6923C3.22486 30.4608 3.34192 30.1646 3.38183 29.8037C3.451 29.3687 3.61817 29.0324 3.88332 28.7947C4.1068 28.4893 4.26088 28.2077 4.34557 27.9501C4.39169 27.6601 4.47328 27.367 4.59034 27.0708C4.74287 26.7715 4.8954 26.4722 5.04794 26.173C5.10647 26.0249 5.16655 25.8945 5.22818 25.7819C5.28671 25.6338 5.34369 25.468 5.39912 25.2844C5.44523 24.9944 5.51219 24.7383 5.59999 24.5162C5.68778 24.2941 5.81105 24.0688 5.96979 23.8405C6.09926 23.6862 6.211 23.5334 6.305 23.3822C6.399 23.231 6.51074 23.0783 6.64021 22.924C7.06721 22.4934 7.32683 21.9882 7.41906 21.4082C7.46518 21.1182 7.54832 20.8429 7.66848 20.5822C7.78864 20.3215 7.92809 20.0769 8.08683 19.8486C8.37194 19.4305 8.62158 19.0154 8.83575 18.6035C9.04991 18.1916 9.24324 17.7458 9.41572 17.266C9.56826 16.9667 9.72079 16.6674 9.87332 16.3682C10.0582 16.0303 10.2447 15.7102 10.4327 15.4078C11.1231 14.3108 11.8536 13.264 12.6242 12.2672C13.4303 11.2673 14.2364 10.2675 15.0425 9.26764C15.4247 8.7338 15.8278 8.23387 16.2517 7.76786C16.6756 7.30186 17.0995 6.83585 17.5234 6.36985C17.8825 5.98099 18.2448 5.62761 18.6102 5.30969C18.9724 4.95631 19.3717 4.61756 19.808 4.29344C20.0053 4.09746 20.2057 3.93695 20.4093 3.81192C20.6097 3.65141 20.7908 3.47472 20.9526 3.28184C21.2825 2.96703 21.6248 2.79411 21.9796 2.76308C22.1538 2.71209 22.3103 2.66265 22.4491 2.61477C22.5879 2.56688 22.7267 2.519 22.8655 2.47111C23.1492 2.44628 23.3459 2.44695 23.4554 2.47311C23.6745 2.52544 23.8935 2.57776 24.1125 2.63008C24.367 2.6793 24.5876 2.74936 24.7743 2.84026C25.1029 2.91875 25.3359 3.13069 25.4733 3.4761C25.5567 3.61178 25.5706 3.77141 25.5152 3.95497C25.4921 4.09996 25.4128 4.21414 25.2771 4.29749C25.2447 4.33607 25.1931 4.35846 25.1221 4.36466C24.4344 4.67504 23.8061 5.0517 23.2372 5.49464C22.6683 5.93759 22.101 6.39828 21.5352 6.87669C20.7752 7.58657 20.0345 8.31262 19.3131 9.05486C18.5917 9.7971 17.9073 10.554 17.2599 11.3255C16.315 12.3732 15.4103 13.4711 14.5456 14.619C13.7134 15.7284 12.8827 16.8555 12.0535 18.0003C11.4154 18.8782 10.8144 19.7708 10.2504 20.678C9.72184 21.5821 9.17557 22.4877 8.61155 23.3949C8.52066 23.5816 8.41202 23.7698 8.28565 23.9595C8.15928 24.1493 8.05065 24.3375 7.95975 24.5242C7.53452 25.3835 7.12548 26.2235 6.73262 27.0442C6.33976 27.865 5.94845 28.7034 5.55869 29.5596C5.23678 30.3741 4.94878 31.1678 4.69471 31.9407C4.40826 32.7521 4.12182 33.5635 3.83537 34.3749C3.54893 35.1863 3.29951 36.0124 3.08711 36.8531C2.91773 37.3683 2.80621 37.9321 2.75255 38.5444C2.7419 38.8313 2.71197 39.102 2.66275 39.3565C2.6459 39.5724 2.61442 39.8254 2.5683 40.1153C2.49292 40.4794 2.45456 40.858 2.45323 41.2513C2.44879 41.6091 2.4459 41.9847 2.44457 42.378L2.49577 42.9633C2.53612 43.4244 2.78774 43.8492 3.25064 44.2376C3.71044 44.5906 4.25493 44.6859 4.88412 44.5236C5.58424 44.3551 6.22185 44.0849 6.79694 43.7129C7.41061 43.3733 7.98104 42.948 8.50825 42.4373C8.6732 42.2799 8.82041 42.124 8.94988 41.9697C9.11483 41.8123 9.27977 41.6549 9.44472 41.4975C10.0336 40.8741 10.6949 40.2622 11.4287 39.6618C11.5937 39.5044 11.7602 39.3648 11.9282 39.2428C12.1317 39.1178 12.3175 38.9943 12.4856 38.8724C12.7707 38.4543 13.0766 38.0701 13.4034 37.7198C13.7302 37.3695 14.0184 36.9869 14.2681 36.5718C14.4623 36.3404 14.6356 36.075 14.7882 35.7757C15.044 35.4317 15.3207 35.1215 15.6182 34.8453C15.9157 34.569 16.2503 34.3074 16.6219 34.0605C16.8347 34.0418 16.9881 33.9569 17.0821 33.8057C17.2116 33.6514 17.3218 33.4809 17.4127 33.2943C17.539 33.1045 17.6831 32.9132 17.845 32.7203C18.0423 32.5243 18.2396 32.3283 18.4369 32.1324C18.5988 31.9395 18.7622 31.7644 18.9271 31.6069C19.1275 31.4464 19.3264 31.2682 19.5237 31.0722C19.5884 30.9951 19.6516 30.9002 19.7133 30.7876C19.8104 30.6718 19.8704 30.5415 19.8935 30.3965C20.0044 30.0294 20.1376 29.7139 20.2932 29.4501C20.4812 29.1477 20.6885 28.8614 20.9151 28.5914C21.2805 28.2735 21.5525 27.9101 21.7312 27.5013C21.9099 27.0925 22.0886 26.6837 22.2673 26.2749C22.3843 25.9787 22.5014 25.6825 22.6185 25.3863C22.7355 25.0902 22.851 24.7762 22.965 24.4446C23.1406 24.0003 23.3146 23.5383 23.4871 23.0585C23.6596 22.5788 23.8321 22.099 24.0046 21.6193C24.0631 21.4712 24.1054 21.3424 24.1316 21.2328C24.1547 21.0878 24.1793 20.9606 24.2054 20.8511C24.264 20.703 24.2014 20.6012 24.0179 20.5458L23.8583 20.5598C23.6809 20.5753 23.5244 20.6247 23.3887 20.7081C23.253 20.7914 23.1173 20.8748 22.9817 20.9581C22.7489 21.1572 22.5161 21.3563 22.2833 21.5554C22.0829 21.7159 21.8856 21.9119 21.6914 22.1433C21.3322 22.5322 20.9522 22.8871 20.5514 23.2081C20.186 23.526 19.8222 23.8617 19.4599 24.2151C19.2919 24.337 19.1238 24.4589 18.9558 24.5809C18.8201 24.6642 18.6682 24.7669 18.5002 24.8888C18.3645 24.9722 18.2273 25.0378 18.0885 25.0857C17.9466 25.0981 17.787 25.112 17.6096 25.1276C17.0713 25.1032 16.7126 24.8843 16.5335 24.4711C16.4533 24.3709 16.3907 24.2691 16.346 24.1658C16.3335 24.0239 16.2857 23.8851 16.2023 23.7495C16.1606 23.6816 16.1529 23.5929 16.179 23.4834C16.2052 23.3739 16.2329 23.2821 16.2622 23.2081C16.33 23.1664 16.3801 23.1263 16.4125 23.0877C16.4417 23.0137 16.4903 22.9558 16.5581 22.9141C17.2117 22.2135 17.8846 21.5292 18.5767 20.861C19.3043 20.1897 20.0544 19.57 20.8268 19.0021C21.4311 18.556 22.0355 18.11 22.6398 17.6639C23.2797 17.2148 23.9403 16.7995 24.6218 16.4182C25.032 16.2036 25.3958 15.868 25.7133 15.4113C25.7749 15.2986 25.8543 15.1845 25.9514 15.0687C26.0485 14.953 26.1456 14.8373 26.2427 14.7216C26.3398 14.6058 26.477 14.5402 26.6544 14.5247C26.9674 14.4258 27.245 14.3301 27.4871 14.2374C27.7616 14.1061 28.0391 14.0104 28.3198 13.9501C28.5974 13.8543 28.8765 13.7763 29.1572 13.716C29.4347 13.6202 29.7123 13.5244 29.9899 13.4287C30.161 13.3422 30.3384 13.3267 30.5219 13.3821C30.8088 13.3927 31.0341 13.516 31.1977 13.7519C31.3227 13.9554 31.3251 14.1875 31.205 14.4483C30.9908 14.8602 30.7496 15.1672 30.4813 15.3694C29.7799 15.9312 29.2713 16.6548 28.9556 17.5403C28.6891 18.1712 28.4049 18.8037 28.1029 19.4378C27.8333 20.0333 27.583 20.6449 27.352 21.2728C27.0469 21.8714 26.903 22.4737 26.9203 23.0798C26.9004 23.2603 26.8773 23.4053 26.8512 23.5148C26.825 23.6243 26.8004 23.7516 26.7773 23.8966C26.7157 24.0092 26.6718 24.1203 26.6456 24.2298C26.6195 24.3393 26.5771 24.4681 26.5186 24.6162C26.4277 24.8029 26.3352 24.9718 26.2412 25.123C26.1472 25.2742 26.0355 25.427 25.906 25.5813C25.6826 25.8867 25.4784 26.2084 25.2935 26.5463C25.144 26.8811 24.9962 27.2336 24.8498 27.6038C24.5802 28.1993 24.3461 28.7917 24.1475 29.3809C24.0012 29.7512 23.8548 30.1214 23.7085 30.4916C23.5591 30.8264 23.4112 31.1789 23.2649 31.5491C23.0569 32.032 22.8667 32.5133 22.6942 32.9931C22.5186 33.4373 22.3639 33.9155 22.2299 34.4277C22.1222 34.8303 22.0129 35.2151 21.902 35.5823C21.7881 35.9139 21.6579 36.2649 21.5116 36.6351C20.2102 40.1446 19.0538 43.6771 18.0424 47.2327C17.8206 47.967 17.6151 48.682 17.4258 49.3776C17.2719 50.0702 17.0826 50.7659 16.8578 51.4647C16.7731 51.7223 16.6629 51.8928 16.5272 51.9762C16.3561 52.0626 16.2481 52.0542 16.2033 51.9509C16.0197 51.8955 15.8847 51.7822 15.7983 51.611C15.7504 51.4722 15.6863 51.3527 15.6061 51.2525C15.3684 50.9874 15.2873 50.6728 15.3626 50.3088C15.3995 49.9124 15.4201 49.5352 15.4245 49.1774C15.429 48.8196 15.4496 48.4425 15.4864 48.0461C15.5201 47.6142 15.5715 47.1808 15.6407 46.7458C15.713 46.3463 15.7853 45.9468 15.8575 45.5473C15.9161 45.3992 15.9569 45.2527 15.9799 45.1077C16.003 44.9627 16.0422 44.7984 16.0976 44.6149C16.3318 44.0225 16.5289 43.4155 16.6889 42.7938C16.8845 42.1691 17.0446 41.5475 17.1692 40.9289C17.2246 40.7454 17.2654 40.5988 17.2915 40.4893C17.3146 40.3443 17.3538 40.18 17.4093 39.9965C17.5294 39.7357 17.6319 39.4766 17.7165 39.219C17.8012 38.9613 17.8844 38.686 17.966 38.3929C18.0999 37.8808 18.2353 37.3864 18.3724 36.9098C18.5448 36.43 18.7528 35.9471 18.9962 35.4612C19.1811 35.1233 19.3113 34.7724 19.3867 34.4083C19.4975 34.0412 19.5906 33.6756 19.666 33.3116C19.6829 33.0957 19.6365 32.9746 19.527 32.9485C19.4175 32.9223 19.3142 32.9671 19.2171 33.0828C19.1169 33.1631 19.0051 33.3158 18.8819 33.541C18.2407 34.3835 17.635 35.2228 17.0648 36.0591C16.5039 37.0017 15.8851 37.8958 15.2085 38.7414C14.5673 39.5838 13.9084 40.4278 13.2318 41.2734C12.7786 41.8134 12.3224 42.318 11.863 42.7871C11.4067 43.2917 10.9505 43.7963 10.4942 44.3009C10.1027 44.7283 9.60009 45.1118 8.98642 45.4515C8.81527 45.5379 8.6603 45.6051 8.52152 45.653C8.38584 45.7364 8.25016 45.8197 8.11447 45.9031C7.80454 46.0374 7.45758 46.1571 7.07359 46.2622C6.72508 46.3642 6.35573 46.4322 5.96554 46.4664ZM40.1366 31.0917C39.6755 31.1321 39.2259 31.0999 38.7878 30.9953C38.7138 30.966 38.6397 30.9367 38.5657 30.9075C38.4885 30.8427 38.4129 30.7957 38.3389 30.7665C37.9855 30.4042 37.811 30.0442 37.8155 29.6864C37.8323 29.4704 37.8684 29.2707 37.9239 29.0871C37.9793 28.9035 37.9831 28.7424 37.9352 28.6036C37.9228 28.4617 37.8456 28.397 37.7037 28.4094C37.6714 28.4479 37.6374 28.4688 37.602 28.4719C37.5665 28.475 37.5326 28.4958 37.5002 28.5344C37.2829 28.9108 37.0579 29.1986 36.8251 29.3977C36.6602 29.5551 36.5114 29.6932 36.3788 29.812C36.2463 29.9309 36.096 30.0513 35.9279 30.1732C35.763 30.3306 35.5996 30.5057 35.4377 30.6986C35.3082 30.8529 35.1418 30.9926 34.9382 31.1176C34.2106 31.7889 33.3101 32.1179 32.2366 32.1046C31.9528 32.1294 31.6212 32.0155 31.2416 31.7627C31.0811 31.5623 30.943 31.4135 30.8273 31.3164C30.551 31.0189 30.5069 30.7189 30.6949 30.4166C30.7796 30.1589 30.8643 29.9013 30.949 29.6437C30.9982 29.3892 31.0104 29.1201 30.9856 28.8363C31.061 28.4723 31.1488 28.2501 31.249 28.1699C31.4015 27.8706 31.5571 27.6068 31.7159 27.3784C31.8746 27.1501 32.0688 26.9186 32.2985 26.684C32.4604 26.4912 32.6222 26.2983 32.784 26.1054C32.9428 25.8771 33.1031 25.6665 33.2649 25.4736C33.3589 25.3224 33.4722 25.1874 33.6048 25.0685C33.7374 24.9497 33.8668 24.7954 33.9932 24.6056C34.1581 24.4482 34.2876 24.2939 34.3816 24.1427C34.5111 23.9884 34.6406 23.8341 34.77 23.6798C35.2525 23.0657 35.7859 22.6259 36.3703 22.3603L37.751 21.5961C37.8512 21.5159 37.9723 21.4695 38.1142 21.4571C38.253 21.4092 38.3917 21.3614 38.5305 21.3135C38.734 21.1884 38.9646 21.1683 39.2222 21.2529L39.3286 21.2436C39.5508 21.3314 39.7876 21.3822 40.039 21.396C40.3258 21.4066 40.595 21.4188 40.8464 21.4325C41.2073 21.4725 41.4503 21.5942 41.5753 21.7977C41.7327 21.9626 41.7868 22.1724 41.7376 22.4269C41.7811 22.9235 41.7004 23.4309 41.4955 23.9493C41.4139 24.2424 41.3146 24.537 41.1975 24.8332C41.0805 25.1294 40.9989 25.4225 40.9528 25.7124C40.8973 25.896 40.8419 26.0796 40.7865 26.2631C40.7279 26.4112 40.671 26.5771 40.6155 26.7606C40.534 27.0537 40.4524 27.3468 40.3708 27.6399C40.2892 27.933 40.2238 28.2068 40.1746 28.4613L40.2071 28.8337C40.2103 28.8692 40.2504 28.9193 40.3275 28.984C40.4016 29.0133 40.4741 29.0248 40.545 29.0186C40.7224 29.0031 40.8627 28.973 40.966 28.9282C41.2405 28.7969 41.5134 28.648 41.7848 28.4812C42.0916 28.3114 42.3807 28.1432 42.6521 27.9764C43.0529 27.6554 43.4715 27.3329 43.9078 27.0087C44.341 26.6492 44.758 26.3089 45.1588 25.9878C45.7339 25.6158 46.3137 25.297 46.8981 25.0314C47.0014 24.9867 47.124 24.9581 47.2659 24.9457C47.3368 24.9394 47.4109 24.9687 47.488 25.0335C47.5652 25.0982 47.6068 25.166 47.613 25.237L47.3357 25.7438C47.1415 25.9752 46.9473 26.2067 46.7531 26.4381C46.5588 26.6696 46.3631 26.8833 46.1658 27.0793C45.6971 27.442 45.2654 27.8193 44.8708 28.2113C44.4762 28.6032 44.0623 28.979 43.6291 29.3386C43.3963 29.5377 43.1458 29.7383 42.8775 29.9405C42.6061 30.1072 42.3363 30.2916 42.0681 30.4938C41.5608 30.8242 40.917 31.0235 40.1366 31.0917ZM39.3619 22.8492C39.3433 22.6364 39.2453 22.5377 39.0679 22.5532C38.9322 22.6366 38.8112 22.6829 38.7048 22.6922C38.5983 22.7015 38.495 22.7463 38.3948 22.8266C38.1173 22.9223 37.8783 23.0505 37.6779 23.211C37.4743 23.336 37.2739 23.4965 37.0766 23.6925C36.8114 23.9302 36.5494 24.2033 36.2904 24.5119C36.0315 24.8205 35.7725 25.1291 35.5136 25.4377C35.1314 25.9715 34.77 26.5393 34.4295 27.141C34.0858 27.7072 33.7422 28.2734 33.3986 28.8396L33.4172 29.0525C33.3879 29.1265 33.3748 29.1813 33.3779 29.2167C33.4134 29.2136 33.4327 29.2298 33.4358 29.2653L33.8083 29.2327C33.9054 29.117 34.0056 29.0367 34.1089 28.992C34.2091 28.9117 34.3077 28.8137 34.4048 28.698C34.8318 28.2675 35.2588 27.8369 35.6858 27.4064C36.1097 26.9404 36.5174 26.4937 36.909 26.0662C37.2681 25.6774 37.6111 25.3078 37.9379 24.9575C38.297 24.5687 38.6385 24.1814 38.9621 23.7956C39.0593 23.6799 39.1402 23.5834 39.2049 23.5063C39.2665 23.3937 39.3251 23.2456 39.3805 23.062C39.4098 22.988 39.4067 22.9525 39.3712 22.9556C39.3681 22.9201 39.365 22.8847 39.3619 22.8492ZM53.6694 28.621C53.6046 28.6982 53.5561 28.756 53.5237 28.7946C53.5268 28.8301 53.4944 28.8686 53.4266 28.9103C53.3973 28.9844 53.318 29.0985 53.1885 29.2528L53.1353 29.2575L52.9896 29.4311C52.8309 29.6594 52.6367 29.8909 52.407 30.1254C52.2128 30.3569 52.017 30.5706 51.8197 30.7666C51.3989 31.2681 50.8917 31.5984 50.298 31.7576L50.1383 31.7715C49.7898 31.8735 49.4497 31.8675 49.1181 31.7536C48.8219 31.6365 48.521 31.4662 48.2155 31.2428C47.7912 30.8867 47.6105 30.4557 47.6735 29.9498L47.6642 29.8434C47.721 29.2665 47.797 28.7059 47.8923 28.1614C47.9522 27.62 48.0314 27.0948 48.1298 26.5858L48.9818 23.4552C49.0479 22.9847 49.1834 22.4903 49.3882 21.972C49.8409 20.6099 50.2952 19.2655 50.751 17.9389C51.2069 16.6122 51.682 15.3018 52.1764 14.0075L52.2502 13.6257C52.3518 13.1522 52.4757 12.7303 52.622 12.3601C52.7683 11.9898 52.9663 11.5972 53.216 11.1822C53.2807 11.105 53.3084 11.0132 53.2991 10.9068C53.3222 10.7618 53.3614 10.5976 53.4168 10.414L55.0218 4.85846C55.071 4.60395 55.1395 4.36562 55.2273 4.14348C55.312 3.88587 55.3967 3.62826 55.4814 3.37064C55.5723 3.18397 55.61 3.00196 55.5944 2.8246C55.6113 2.60866 55.6474 2.40891 55.7029 2.22535C55.7813 1.89679 55.9432 1.70392 56.1884 1.64672C56.3241 1.56336 56.4451 1.51703 56.5515 1.50772C56.658 1.49841 56.7451 1.47291 56.8129 1.43124C56.9934 1.45119 57.1029 1.47735 57.1415 1.50972C57.2896 1.56825 57.4199 1.62833 57.5326 1.68997C57.6931 1.89038 57.7664 2.11629 57.7527 2.3677L57.7992 2.89978C57.7407 3.04787 57.6999 3.19442 57.6769 3.33941C57.6862 3.44582 57.6585 3.5376 57.5937 3.61476C57.4243 4.12998 57.255 4.64521 57.0856 5.16043C56.9486 5.63709 56.7761 6.11684 56.5681 6.5997C56.1322 7.74587 55.7125 8.87276 55.309 9.98037C54.941 11.0849 54.5923 12.2056 54.2628 13.3424C54.0965 13.8931 53.9302 14.4438 53.764 14.9945C53.6332 15.5421 53.4669 16.0928 53.2651 16.6466L51.9668 20.1916C51.8883 20.5201 51.7921 20.8502 51.6782 21.1819C51.5966 21.475 51.4972 21.7696 51.3802 22.0658C51.3248 22.2494 51.2547 22.4699 51.17 22.7276C51.1177 22.9466 51.0476 23.1672 50.9598 23.3893C50.4548 24.9705 50.0446 26.6148 49.7293 28.3223C49.7355 28.3933 49.7271 28.5012 49.7041 28.6462C49.7134 28.7527 49.7258 28.8945 49.7413 29.0719C49.7413 29.0719 49.7475 29.1428 49.7599 29.2847C49.7847 29.5685 49.9182 29.6641 50.1603 29.5714C50.2636 29.5266 50.3492 29.4834 50.417 29.4417C50.5172 29.3614 50.6175 29.2812 50.7177 29.2009C50.9119 28.9695 51.1285 28.7897 51.3675 28.6616C51.6034 28.4979 51.8361 28.2989 52.0658 28.0643L52.26 27.8329L52.3132 27.8282L52.852 27.2449L52.8566 27.2981C53.0863 27.0636 53.2967 26.8128 53.4878 26.5459C53.5495 26.4333 53.6126 26.3384 53.6774 26.2612C53.7776 26.181 53.8601 26.1023 53.9248 26.0251L55.5596 24.4881C55.7569 24.2921 55.9381 24.1154 56.103 23.958C56.3034 23.7975 56.52 23.6177 56.7528 23.4187L56.8592 23.4093C56.9009 23.4772 56.9264 23.5643 56.9357 23.6707C56.8803 23.8543 56.8071 24.0394 56.7162 24.2261C56.6577 24.3742 56.5444 24.5092 56.3764 24.6311C56.3116 24.7083 56.2469 24.7854 56.1821 24.8626C56.1174 24.9397 56.0527 25.0169 55.9879 25.094C55.8261 25.2869 55.7013 25.4944 55.6135 25.7166C55.5226 25.9032 55.3962 26.093 55.2344 26.2859C55.0694 26.4433 54.9238 26.6169 54.7974 26.8066C54.7034 26.9578 54.5932 27.1283 54.4668 27.3181L53.8543 28.2831C53.7895 28.3603 53.741 28.4182 53.7086 28.4567C53.7117 28.4922 53.6793 28.5308 53.6115 28.5725L53.6694 28.621ZM62.3842 27.8586C62.3195 27.9357 62.2709 27.9936 62.2386 28.0321C62.2417 28.0676 62.2093 28.1062 62.1415 28.1479C62.1122 28.2219 62.0328 28.3361 61.9033 28.4904L61.8501 28.495L61.7045 28.6686C61.5457 28.897 61.3515 29.1284 61.1218 29.363C60.9276 29.5944 60.7319 29.8082 60.5346 30.0041C60.1138 30.5056 59.6065 30.8359 59.0128 30.9951L58.8532 31.0091C58.5047 31.1111 58.1646 31.1051 57.8329 30.9911C57.5367 30.8741 57.2359 30.7038 56.9304 30.4803C56.5061 30.1243 56.3254 29.6933 56.3884 29.1874L56.3791 29.0809C56.4358 28.5041 56.5119 27.9434 56.6072 27.3989C56.6671 26.8575 56.7462 26.3323 56.8447 25.8233L57.6967 22.6927C57.7627 22.2223 57.8982 21.7279 58.1031 21.2095C58.5558 19.8474 59.0101 18.5031 59.4659 17.1764C59.9217 15.8498 60.3968 14.5393 60.8912 13.245L60.9651 12.8633C61.0666 12.3897 61.1906 11.9678 61.3369 11.5976C61.4832 11.2274 61.6812 10.8347 61.9308 10.4197C61.9956 10.3426 62.0233 10.2508 62.014 10.1444C62.037 9.99938 62.0763 9.83511 62.1317 9.65154L63.7366 4.09601C63.7858 3.8415 63.8544 3.60317 63.9422 3.38103C64.0268 3.12342 64.1115 2.8658 64.1962 2.60819C64.2871 2.42152 64.3248 2.23951 64.3093 2.06215C64.3262 1.84621 64.3623 1.64646 64.4177 1.4629C64.4962 1.13434 64.658 0.941464 64.9032 0.884267C65.0389 0.800911 65.16 0.754578 65.2664 0.745267C65.3728 0.735957 65.4599 0.710463 65.5278 0.668785C65.7082 0.688739 65.8178 0.714901 65.8563 0.747269C66.0044 0.8058 66.1348 0.865882 66.2474 0.927515C66.4079 1.12793 66.4813 1.35384 66.4675 1.60525L66.5141 2.13733C66.4556 2.28542 66.4148 2.43197 66.3917 2.57696C66.401 2.68337 66.3733 2.77515 66.3086 2.85231C66.1392 3.36753 65.9698 3.88276 65.8004 4.39798C65.6634 4.87463 65.4909 5.35439 65.283 5.83725C64.8471 6.98342 64.4274 8.11031 64.0239 9.21792C63.6559 10.3224 63.3071 11.4431 62.9777 12.58C62.8114 13.1307 62.6451 13.6814 62.4788 14.2321C62.348 14.7797 62.1817 15.3304 61.98 15.8842L60.6817 19.4291C60.6032 19.7577 60.507 20.0878 60.393 20.4194C60.3114 20.7125 60.2121 21.0072 60.095 21.3033C60.0396 21.4869 59.9695 21.7075 59.8849 21.9651C59.8325 22.1841 59.7625 22.4047 59.6747 22.6269C59.1696 24.208 58.7595 25.8524 58.4442 27.5599C58.4504 27.6308 58.442 27.7388 58.4189 27.8838C58.4282 27.9902 58.4406 28.1321 58.4562 28.3094C58.4562 28.3094 58.4624 28.3804 58.4748 28.5223C58.4996 28.8061 58.6331 28.9016 58.8752 28.8089C58.9785 28.7642 59.064 28.7209 59.1319 28.6793C59.2321 28.599 59.3323 28.5187 59.4325 28.4385C59.6267 28.207 59.8433 28.0272 60.0823 27.8991C60.3182 27.7355 60.551 27.5364 60.7807 27.3019L60.9749 27.0704L61.0281 27.0657L61.5668 26.4825L61.5715 26.5357C61.8012 26.3011 62.0116 26.0504 62.2027 25.7835C62.2643 25.6708 62.3275 25.5759 62.3922 25.4988C62.4924 25.4185 62.5749 25.3398 62.6396 25.2627L64.2745 23.7257C64.4718 23.5297 64.6529 23.353 64.8179 23.1956C65.0183 23.0351 65.2349 22.8553 65.4677 22.6562L65.5741 22.6469C65.6158 22.7147 65.6413 22.8019 65.6506 22.9083C65.5951 23.0918 65.522 23.277 65.4311 23.4636C65.3725 23.6117 65.2593 23.7467 65.0912 23.8687C65.0265 23.9458 64.9617 24.023 64.897 24.1001C64.8323 24.1773 64.7675 24.2544 64.7028 24.3316C64.5409 24.5245 64.4161 24.732 64.3283 24.9541C64.2374 25.1408 64.1111 25.3305 63.9492 25.5234C63.7843 25.6808 63.6386 25.8544 63.5122 26.0442C63.4182 26.1954 63.3081 26.3659 63.1817 26.5556L62.5691 27.5207C62.5044 27.5978 62.4558 27.6557 62.4235 27.6943C62.4266 27.7298 62.3942 27.7683 62.3264 27.81L62.3842 27.8586ZM67.3898 30.0478C66.9996 30.0819 66.6757 30.0566 66.4181 29.9719C66.344 29.9427 66.27 29.9134 66.1959 29.8841C66.1219 29.8549 66.0124 29.8287 65.8674 29.8057C65.7933 29.7764 65.737 29.7456 65.6985 29.7132C65.6599 29.6808 65.6036 29.65 65.5295 29.6208C65.3367 29.4589 65.1631 29.3133 65.0088 29.1838C64.819 29.0574 64.6616 28.8925 64.5365 28.6889C64.3698 28.4176 64.3404 28.0806 64.4481 27.678C64.4942 27.388 64.5581 27.0965 64.6397 26.8034C64.7212 26.5103 64.8013 26.1995 64.8798 25.8709C64.9059 25.7614 64.9483 25.6326 65.0068 25.4845C65.0299 25.3395 65.0722 25.2107 65.1338 25.0981C65.2833 24.7633 65.391 24.3607 65.4571 23.8903C65.4939 23.4939 65.611 23.1977 65.8083 23.0017C65.9453 22.5251 66.2435 22.0522 66.7028 21.5831C66.8971 21.3516 67.0735 21.1217 67.2323 20.8934C67.4265 20.6619 67.6222 20.4482 67.8196 20.2522C67.9552 20.1689 68.0732 20.0871 68.1734 20.0068C68.38 19.9172 68.5705 19.847 68.7447 19.796C68.9513 19.7064 69.1934 19.6138 69.471 19.518C69.5388 19.4763 69.6082 19.4524 69.6792 19.4462C69.7856 19.4368 69.8743 19.4291 69.9452 19.4229C70.2707 19.4659 70.4735 19.5375 70.5538 19.6377C70.8593 19.8612 71.1293 20.0878 71.3639 20.3174C71.5244 20.5179 71.6702 20.7553 71.8015 21.0298C71.9327 21.3042 71.9221 21.5911 71.7695 21.8904C71.5815 22.1928 71.3581 22.4983 71.0991 22.8069C70.8371 23.08 70.575 23.3532 70.313 23.6263C69.9831 23.9411 69.6547 24.2736 69.3279 24.6239C68.9981 24.9387 68.6504 25.2551 68.2851 25.573C68.0523 25.7721 67.7747 25.8679 67.4524 25.8603C67.3105 25.8727 67.2056 25.8998 67.1378 25.9415C66.9342 26.0665 66.8017 26.1853 66.74 26.2979C66.623 26.5941 66.5707 26.8132 66.5831 26.9551C66.4398 27.3608 66.4254 27.8088 66.5398 28.2992C66.617 28.364 66.6764 28.4302 66.7181 28.4981C66.7566 28.5304 66.8322 28.5775 66.9449 28.6391C67.2348 28.6852 67.467 28.6828 67.6412 28.6318C68.0961 28.5205 68.5109 28.3591 68.8856 28.1476C69.3667 27.9268 69.793 27.6929 70.1646 27.4459C70.5716 27.1959 70.9771 26.9281 71.3811 26.6425C71.8174 26.3184 72.2375 26.0136 72.6414 25.728C73.0778 25.4039 73.5141 25.0798 73.9504 24.7557C74.157 24.6661 74.3135 24.6167 74.4199 24.6074C74.5201 24.5271 74.6281 24.5355 74.7438 24.6326C74.8919 24.6912 74.9513 24.7574 74.9221 24.8315C74.8591 25.3374 74.6319 25.8041 74.2403 26.2315C73.8688 26.4785 73.5003 26.7609 73.1349 27.0788C72.805 27.3936 72.4929 27.7069 72.1985 28.0186C71.9302 28.2208 71.6458 28.4423 71.3451 28.683C71.0769 28.8852 70.77 29.055 70.4246 29.1925C70.1856 29.3206 69.9289 29.4503 69.6545 29.5816C69.4124 29.6742 69.1494 29.733 68.8656 29.7578C68.6236 29.8505 68.3799 29.9254 68.1347 29.9826C67.8895 30.0398 67.6412 30.0615 67.3898 30.0478ZM70.025 21.5605C69.9479 21.4958 69.9077 21.4457 69.9046 21.4102C69.8984 21.3392 69.8776 21.3053 69.8421 21.3084L69.5229 21.3364C69.4936 21.4104 69.4304 21.5053 69.3333 21.621C69.0096 22.0068 68.6875 22.4103 68.3669 22.8315C68.0818 23.2496 67.853 23.6985 67.6805 24.1783C67.6929 24.3202 67.7169 24.3896 67.7523 24.3865L67.912 24.3725C68.0738 24.1796 68.2372 24.0045 68.4021 23.8471C68.564 23.6542 68.7258 23.4613 68.8877 23.2685C69.1559 23.0663 69.3679 22.8333 69.5235 22.5694C69.6791 22.3056 69.817 22.0434 69.9372 21.7826C70.0019 21.7055 70.0312 21.6314 70.025 21.5605ZM74.8924 26.3353C75.2866 25.1213 75.6453 23.9104 75.9685 22.7026C76.2887 21.4593 76.4299 20.2138 76.3922 18.9661C76.6281 18.8025 76.8139 18.679 76.9496 18.5956C77.1208 18.5092 77.2788 18.4775 77.4238 18.5005C77.6043 18.5205 77.7909 18.6114 77.9838 18.7732C78.2091 18.8965 78.476 19.0876 78.7846 19.3465C79.0205 19.1829 79.2032 19.024 79.3326 18.8697C79.459 18.6799 79.5838 18.4724 79.7071 18.2471C80.1727 17.849 80.6221 17.4701 81.0553 17.1105C81.5239 16.7478 82.0536 16.4691 82.6442 16.2745C83.1346 16.1601 83.5942 16.102 84.0229 16.1002C84.4841 16.0599 84.919 16.1291 85.3278 16.3078C85.695 16.4186 85.8941 16.6514 85.9251 17.0061C85.8142 17.3733 85.6524 17.5661 85.4396 17.5848C85.2622 17.6003 85.1026 17.6142 84.9607 17.6267C84.8188 17.6391 84.6561 17.6176 84.4725 17.5621C84.0469 17.5994 83.6258 17.6898 83.2095 17.8335C82.8255 17.9386 82.4732 18.2017 82.1526 18.6229C81.2401 19.6321 80.3855 20.6898 79.5887 21.7961C78.7919 22.9024 78.1671 24.1365 77.7144 25.4987C77.6621 25.7177 77.5904 25.9205 77.4995 26.1072C77.441 26.2553 77.3501 26.442 77.2269 26.6672C77.0867 27.1084 76.8154 27.2751 76.4128 27.1674C76.1228 27.1213 75.8667 27.0543 75.6446 26.9665C75.387 26.8818 75.1362 26.6714 74.8924 26.3353ZM91.6359 34.4139C91.7703 34.7239 91.8097 34.9706 91.7543 35.1542C91.2954 36.4453 90.8349 37.7188 90.3728 38.9745C89.9139 40.2656 89.4372 41.5584 88.9428 42.8526C88.5761 43.5638 88.1902 44.2589 87.7849 44.9377C87.3441 45.6196 86.9196 46.2823 86.5112 46.9257C86.1645 47.4564 85.7568 47.9031 85.2881 48.2658C84.8225 48.664 84.2944 48.9604 83.7038 49.155C83.0192 49.5009 82.3916 49.6809 81.8209 49.6951C81.2148 49.7124 80.6417 49.4944 80.1016 49.0413C79.9504 48.9473 79.8671 48.8116 79.8516 48.6342C79.5181 48.0915 79.3929 47.4769 79.4758 46.7906C79.5264 46.1428 79.6301 45.4903 79.7871 44.8332C80.0505 44.1668 80.3139 43.5003 80.5773 42.8339C80.8406 42.1675 81.202 41.5997 81.6614 41.1306C81.8232 40.9377 81.9496 40.748 82.0405 40.5613C82.1314 40.3746 82.24 40.1864 82.3664 39.9966C83.012 38.7964 83.7525 37.6593 84.5879 36.5854C85.4232 35.5115 86.2393 34.4214 87.0361 33.3151C87.4831 32.7041 87.9863 32.124 88.5459 31.5746C89.141 31.0221 89.7183 30.4712 90.2778 29.9218C90.7496 29.5946 91.1458 29.2204 91.4664 28.7992C91.7839 28.3425 92.1191 27.8842 92.472 27.4244C92.6214 27.0897 92.7886 26.7534 92.9735 26.4155C93.1553 26.0421 93.2114 25.6619 93.1418 25.2748C93.1755 24.843 93.2817 24.4226 93.4604 24.0138C93.6746 23.6019 93.689 23.1539 93.5036 22.6697C93.4034 22.7499 93.3194 22.8109 93.2516 22.8526C93.1806 22.8588 93.1128 22.9005 93.048 22.9776C92.8184 23.2122 92.5887 23.4467 92.359 23.6813C92.1293 23.9158 91.8996 24.1504 91.6699 24.3849C91.3401 24.6997 91.0248 24.9775 90.7242 25.2183C90.4235 25.459 90.0812 25.632 89.6973 25.7371C89.0064 26.012 88.3679 26.0678 87.7818 25.9046C87.2311 25.7384 86.8444 25.2003 86.6219 24.2904C86.7035 23.9973 86.7804 23.6511 86.8527 23.2516C86.9249 22.8521 86.9795 22.4541 87.0163 22.0577C87.0438 21.5549 87.1323 21.1361 87.2817 20.8013C87.4666 20.4635 87.6322 20.1094 87.7785 19.7392C87.9572 19.3304 88.1552 18.9378 88.3725 18.5613C88.5897 18.1849 88.7846 17.7568 88.9571 17.277C89.068 16.9099 89.256 16.6075 89.5211 16.3698C89.7863 16.1322 90.0754 15.9639 90.3884 15.865C90.7724 15.76 91.0947 15.7675 91.3555 15.8877C91.6131 15.9723 91.7636 16.263 91.807 16.7596C91.2785 17.6637 90.7724 18.6194 90.2886 19.6268C89.8403 20.6311 89.4661 21.6647 89.1659 22.7275C89.3588 22.8893 89.5068 22.9479 89.6102 22.9031C89.7104 22.8228 89.8075 22.7071 89.9015 22.5559C91.4538 21.0976 92.8634 19.4373 94.1302 17.575C94.4508 17.1538 94.8069 16.7295 95.1984 16.3021C95.4174 16.3544 95.6365 16.4067 95.8555 16.459C96.11 16.5082 96.4 16.5544 96.7254 16.5974C96.6948 17.0647 96.6982 17.5112 96.7354 17.9369C96.8081 18.3594 96.7389 18.7944 96.5279 19.2418C96.1182 20.2785 95.8488 21.285 95.7197 22.2613C95.5876 23.2022 95.4069 24.201 95.1777 25.2576C95.2162 25.2899 95.2371 25.3239 95.2402 25.3593L95.2681 25.6786C95.4393 25.5921 95.6135 25.5411 95.7909 25.5256C95.9651 25.4746 96.1232 25.4429 96.2651 25.4305C96.2682 25.466 96.289 25.4999 96.3276 25.5323C96.3307 25.5677 96.3338 25.6032 96.3369 25.6387C96.3755 25.6711 96.3963 25.705 96.3994 25.7405C96.1698 25.975 96.0225 26.1309 95.9578 26.208C95.1761 26.6696 94.6196 27.2544 94.2884 27.9625C93.9926 28.6675 93.7516 29.3856 93.5654 30.1168C93.3313 30.7091 93.0987 31.3192 92.8677 31.9471C92.6691 32.5364 92.4689 33.1079 92.2671 33.6617C92.2086 33.8098 92.1146 33.961 91.9851 34.1153C91.8525 34.2341 91.7408 34.3869 91.6499 34.5735C91.7408 34.3869 91.7831 34.2581 91.7769 34.1871C91.8062 34.1131 91.8354 34.039 91.8647 33.965C91.8354 34.039 91.8062 34.1131 91.7769 34.1871C91.7831 34.2581 91.7361 34.3337 91.6359 34.4139ZM91.4743 30.7286C91.1196 30.7597 90.8081 30.8763 90.5399 31.0785C90.3071 31.2775 90.0774 31.5121 89.8508 31.7821C89.5147 32.026 89.2172 32.3022 88.9583 32.6108C88.6993 32.9194 88.4226 33.2296 88.1282 33.5413C87.8693 33.8499 87.5764 34.1793 87.2496 34.5296C86.9197 34.8444 86.6076 35.1577 86.3131 35.4694C85.9247 35.9323 85.5571 36.4291 85.2104 36.9598C84.8282 37.4937 84.5216 38.0745 84.2905 38.7024C84.0334 39.4397 83.7214 40.164 83.3547 40.8752C82.988 41.5864 82.6745 42.293 82.4143 42.9949C82.1385 43.5194 81.9367 44.0732 81.809 44.6563C81.6813 45.2394 81.5682 45.7854 81.4698 46.2944C81.4454 46.8327 81.5828 47.1781 81.8821 47.3307C82.1491 47.5218 82.486 47.4923 82.8931 47.2422C83.1613 47.04 83.4427 46.7831 83.7371 46.4714C84.0346 46.1951 84.2774 45.9058 84.4654 45.6034C85.0094 44.8767 85.5196 44.1708 85.9958 43.4858C86.4751 42.8362 86.8695 42.0332 87.179 41.0768C87.1959 40.8609 87.2675 40.658 87.3939 40.4682C87.5202 40.2785 87.6451 40.071 87.7683 39.8457C88.0117 39.3598 88.276 38.9077 88.5611 38.4896C88.8493 38.1069 89.0635 37.695 89.2036 37.2539C89.4608 36.5165 89.7373 35.7953 90.033 35.0903C90.3643 34.3822 90.66 33.6772 90.9203 32.9753C91.0728 32.676 91.2222 32.3413 91.3686 31.971C91.5149 31.6008 91.5502 31.1867 91.4743 30.7286Z" fill="#CF4267"/>
</svg>
