<svg width="149" height="49" viewBox="0 0 149 49" fill="none" xmlns="http://www.w3.org/2000/svg">
<path d="M18.9071 0.945683C18.9781 0.939476 19.0683 0.949455 19.1778 0.975618C19.3197 0.963204 19.4616 0.950791 19.6035 0.938377C19.6775 0.967642 19.7338 0.998458 19.7724 1.03083C19.8433 1.02462 19.9158 1.03615 19.9899 1.06541C20.138 1.12394 20.273 1.23723 20.3949 1.40528C20.5138 1.53786 20.5809 1.69283 20.5964 1.87019C20.612 2.04755 20.5743 2.22956 20.4834 2.41623C20.4248 2.56433 20.31 2.6816 20.1388 2.76806C20.0355 2.81284 19.8451 2.88312 19.5675 2.97889C19.1219 3.1966 18.6747 3.39656 18.226 3.57879C17.7742 3.72555 17.3255 3.90778 16.8799 4.12549C16.6732 4.21505 16.4682 4.32235 16.2646 4.44739C16.058 4.53695 15.8529 4.64425 15.6494 4.76929C15.2007 4.95152 14.9495 5.3488 14.8959 5.96113C14.8528 6.28658 14.8114 6.62977 14.7715 6.9907C14.7639 7.31305 14.7387 7.63695 14.6956 7.9624C14.6992 8.81994 14.6464 9.64665 14.5373 10.4425C14.4637 11.2353 14.3739 12.0474 14.2679 12.8788C14.1127 13.9647 13.9575 15.0506 13.8023 16.1364C13.644 17.1868 13.4502 18.2403 13.221 19.297C13.0871 19.8091 12.9725 20.3374 12.8771 20.8819C12.7818 21.4264 12.7057 21.987 12.649 22.5639C12.5151 23.076 12.3827 23.6059 12.2519 24.1535C12.1566 24.698 12.0435 25.244 11.9127 25.7916C11.6511 26.8868 11.3879 27.9643 11.1232 29.024C10.8585 30.0837 10.6323 31.1758 10.4447 32.3002C10.3924 32.5193 10.3516 32.6658 10.3224 32.7399C10.0913 33.3677 9.91508 34.0086 9.79358 34.6626C9.70755 35.3136 9.60224 35.9483 9.47764 36.5668C9.35304 37.1854 9.31091 37.7252 9.35125 38.1863C9.36056 38.2927 9.42463 38.4122 9.54346 38.5448C9.66229 38.6774 9.7911 38.7197 9.92988 38.6719C10.3524 38.5991 10.7688 38.4555 11.1789 38.2409C11.6246 38.0232 12.0702 37.8055 12.5158 37.5878C12.9614 37.3701 13.407 37.1524 13.8526 36.9347C14.5341 36.5533 15.2219 36.243 15.9158 36.0036C16.6066 35.7287 17.2959 35.436 17.9836 35.1256C18.4678 34.9403 18.9273 34.8822 19.3623 34.9514C19.5752 34.9328 19.7279 35.0445 19.8206 35.2866C19.8747 35.4963 19.8563 35.6945 19.7654 35.8812L19.474 36.2284C19.4093 36.3055 19.3091 36.3858 19.1734 36.4692C17.9168 37.2225 16.6618 37.9935 15.4083 38.7823C14.5264 39.3241 13.6413 39.8305 12.7532 40.3014C11.8651 40.7722 10.9816 41.2963 10.1028 41.8736C9.90235 42.0341 9.70038 42.1769 9.49686 42.3019C9.29334 42.427 9.10911 42.5682 8.94416 42.7256C8.31364 43.2812 7.66384 43.8206 6.99475 44.3438C6.36423 44.8993 5.7561 45.5066 5.17036 46.1654C4.84358 46.5157 4.4975 46.8498 4.13214 47.1677C3.80225 47.4825 3.45462 47.7989 3.08926 48.1168C2.72389 48.4347 2.33304 48.6655 1.91668 48.8092C1.74863 48.9311 1.49878 48.9351 1.16712 48.8211C0.72594 48.681 0.433523 48.4028 0.289867 47.9864C0.107635 47.5377 0.0958889 47.1992 0.254628 46.9708C0.627532 46.3306 0.992011 45.7983 1.34806 45.3739C2.16038 44.445 3.09995 43.5407 4.16677 42.661L5.35997 41.5916C5.52491 41.4342 5.65439 41.2799 5.74839 41.1287C5.87786 40.9744 6.02507 40.8185 6.19002 40.6611C6.44897 40.3525 6.61768 40.0339 6.69617 39.7054C6.82698 39.1578 6.94005 38.6117 7.03539 38.0672C7.13072 37.5228 7.24535 36.9944 7.37926 36.4823C7.43779 36.3342 7.49632 36.1861 7.55485 36.038C7.61028 35.8545 7.64797 35.6725 7.66792 35.492C7.69098 35.347 7.6963 35.2036 7.68389 35.0617C7.67148 34.9198 7.69453 34.7748 7.75306 34.6267C7.77612 34.4817 7.81381 34.2997 7.86614 34.0807C7.95083 33.8231 8.01934 33.5847 8.07166 33.3657C8.15635 33.1081 8.22486 32.8698 8.27718 32.6507C8.32951 32.4317 8.3672 32.2497 8.39025 32.1047C8.43637 31.8147 8.4632 31.5085 8.47074 31.1862C8.47828 30.8638 8.52285 30.5561 8.60444 30.263C8.7552 29.535 8.91749 28.7344 9.09131 27.8614C9.2975 26.9497 9.49217 26.1106 9.6753 25.344C9.96131 23.7105 10.2227 22.2043 10.4595 20.8253C10.6932 19.4109 10.9708 17.8854 11.2922 16.2488C11.3415 15.9943 11.4007 15.6496 11.4698 15.2146C11.5745 14.7765 11.6598 14.3222 11.7259 13.8518C11.792 13.3814 11.8419 12.9302 11.8756 12.4983C11.9417 12.0279 11.9977 11.6477 12.0439 11.3577C12.1099 10.8872 12.1337 10.5456 12.115 10.3328C12.0964 10.1199 12.0616 9.92641 12.0106 9.75215C11.9951 9.57479 11.978 9.3797 11.9594 9.16686C11.9408 8.95403 11.9452 8.59621 11.9727 8.0934C11.9479 7.80962 11.9116 7.59834 11.8637 7.45956C11.8544 7.35315 11.7918 7.25138 11.6761 7.15428C11.5959 7.05407 11.5218 7.0248 11.454 7.06648L11.0815 7.09907C10.6004 7.31988 10.1579 7.57305 9.75398 7.85859C9.34693 8.10866 8.94144 8.37647 8.53751 8.66202C7.96862 9.10496 7.35717 9.26569 6.70316 9.14419C6.55817 9.12113 6.37306 9.04797 6.14781 8.9247C5.91946 8.76596 5.7543 8.51234 5.65232 8.16383C5.58582 7.81221 5.59646 7.52533 5.68426 7.30319C5.74899 7.22604 5.77981 7.16973 5.77671 7.13426C5.80597 7.06021 5.85452 7.00235 5.92236 6.96067C6.11347 6.69375 6.32542 6.46075 6.5582 6.26166C6.79099 6.06258 7.04151 5.86194 7.30977 5.65976C7.64587 5.41589 7.98197 5.17203 8.31807 4.92816C8.68964 4.68119 9.06276 4.45196 9.43743 4.24046C9.91852 4.01966 10.3803 3.78267 10.8228 3.52949C11.3008 3.27322 11.7804 3.03467 12.2614 2.81387C12.3617 2.73361 12.465 2.68883 12.5714 2.67952C12.7102 2.63163 12.8474 2.56601 12.9831 2.48266C13.7094 2.20465 14.4403 1.97986 15.1759 1.80827C15.947 1.63358 16.6972 1.42497 17.4266 1.18244C17.6718 1.12525 17.9008 1.08734 18.1136 1.06872C18.362 1.047 18.6264 1.00598 18.9071 0.945683ZM27.5812 28.7636C27.9496 28.4812 28.3181 28.1987 28.6866 27.9163C29.0905 27.6308 29.4559 27.3128 29.7826 26.9626C30.1804 26.6061 30.6167 26.282 31.0916 25.9902C31.5988 25.6599 32.069 25.3149 32.5022 24.9553C32.6379 24.872 32.7736 24.7886 32.9093 24.7053C33.0773 24.5833 33.2469 24.4791 33.4181 24.3927C33.5892 24.3062 33.7427 24.2213 33.8783 24.1379C34.014 24.0546 34.1852 23.9681 34.3918 23.8786C34.5306 23.8307 34.5707 23.8808 34.5122 24.0289C34.557 24.1322 34.5647 24.2209 34.5355 24.2949C34.5062 24.369 34.4785 24.4607 34.4523 24.5703L33.4094 25.5193C33.3092 25.5996 33.1928 25.6991 33.0602 25.818C32.96 25.8982 32.8598 25.9785 32.7596 26.0587L30.9053 28.1511C30.5138 28.5785 30.1045 29.0075 29.6775 29.4381C29.286 29.8655 28.859 30.296 28.3965 30.7297C28.2285 30.8516 28.062 30.9913 27.897 31.1487C27.7676 31.303 27.6204 31.4588 27.4554 31.6162C27.3228 31.735 27.1903 31.8539 27.0577 31.9727C26.9606 32.0884 26.8781 32.1671 26.8103 32.2088C26.3292 32.4296 25.9359 32.4283 25.6304 32.2048L25.3457 32.0153C25.0695 31.7177 24.8897 31.5011 24.8063 31.3654C24.723 31.2298 24.7128 30.909 24.7758 30.403L24.9095 29.4799C25.0434 28.9678 25.1611 28.4749 25.2626 28.0014C25.3642 27.5278 25.4996 27.0335 25.669 26.5182L26.0315 25.1461L26.0914 24.6048C26.079 24.4629 25.9987 24.3627 25.8506 24.3041C25.7442 24.3134 25.6571 24.3389 25.5892 24.3806L24.424 25.7693C24.2329 26.0362 24.0047 26.2885 23.7396 26.5262C23.5068 26.7253 23.2516 26.8727 22.974 26.9685C22.8738 27.0487 22.7898 27.1097 22.722 27.1514C22.6541 27.193 22.5894 27.2702 22.5278 27.3828C22.44 27.605 22.2087 27.8218 21.8341 28.0333L21.4756 28.2255C21.1687 28.3953 20.9289 28.3091 20.7559 27.9668C20.5954 27.7663 20.5367 27.5034 20.5797 27.1779C20.6968 26.8818 20.7976 26.6049 20.8823 26.3472C20.9315 26.0927 20.9985 25.8367 21.0832 25.5791C21.2357 25.2798 21.369 24.9643 21.4829 24.6326C21.5969 24.301 21.6916 23.9531 21.7669 23.5891C21.8131 23.2991 21.8977 23.0415 22.021 22.8163C22.0995 22.4877 22.1957 22.1576 22.3097 21.8259C22.4236 21.4943 22.5183 21.1464 22.5937 20.7824C22.646 20.5634 22.6999 20.3621 22.7553 20.1785C22.8462 19.9918 22.9194 19.8067 22.9748 19.6231C23.0302 19.4396 23.1821 19.3369 23.4304 19.3152L23.9625 19.2687C24.0689 19.2594 24.1769 19.2678 24.2864 19.2939C24.4283 19.2815 24.5393 19.3254 24.6196 19.4256C24.9606 19.646 25.1095 19.9189 25.0665 20.2444C25.082 20.4217 25.0621 20.6022 25.0067 20.7858C24.9481 20.9339 24.9266 21.0966 24.9421 21.2739C24.9838 21.3418 25.0579 21.371 25.1643 21.3617C25.2707 21.3524 25.3578 21.3269 25.4257 21.2852C25.6846 20.9766 25.9644 20.702 26.265 20.4612C26.6011 20.2173 26.8986 19.9411 27.1576 19.6325C27.4906 19.3532 27.9231 19.1902 28.4552 19.1437C28.8454 19.1095 29.1385 19.1911 29.3345 19.3884C29.3761 19.4563 29.4178 19.5241 29.4595 19.592C29.4981 19.6243 29.5205 19.676 29.5267 19.7469C29.6517 19.9504 29.6996 20.0892 29.6703 20.1633C29.6242 20.4533 29.5734 20.69 29.518 20.8736L28.0095 25.0803L27.2659 27.6117C27.1258 28.0528 27.1036 28.4122 27.1994 28.6898C27.2087 28.7962 27.2666 28.8448 27.373 28.8354L27.4794 28.8261L27.484 28.8793L27.5812 28.7636ZM32.62 35.5608C32.6462 35.4513 32.6677 35.2886 32.6845 35.0726C32.6628 34.8243 32.6766 34.5729 32.7258 34.3184C32.7209 33.8542 32.7176 33.4077 32.7158 32.9789C32.714 32.5501 32.7817 32.0974 32.9187 31.6208C32.8939 31.337 32.9222 31.0486 33.0038 30.7555C33.0499 30.4655 33.1138 30.174 33.1954 29.8809C33.2677 29.4814 33.3592 29.0981 33.4701 28.7309C33.5778 28.3283 33.6678 27.9273 33.7401 27.5278C34.0572 26.249 34.4436 24.9463 34.8994 23.6197C34.9841 23.3621 35.085 23.0852 35.2021 22.789C35.316 22.4573 35.4138 22.145 35.4954 21.8519C35.6031 21.4493 35.7479 21.0613 35.9297 20.688C36.1084 20.2791 36.2694 19.8719 36.4126 19.4662C36.6174 18.9478 36.8254 18.465 37.0365 18.0176C37.2444 17.5347 37.4508 17.0342 37.6557 16.5158C37.8051 16.1811 37.953 15.8286 38.0993 15.4583C38.278 15.0495 38.4035 14.6454 38.4758 14.2459C38.5698 14.0947 38.6283 13.9466 38.6514 13.8016C38.7068 13.618 38.7653 13.4699 38.8269 13.3573C38.8886 13.2447 38.9132 13.1174 38.9008 12.9755C39.0254 12.357 39.2464 11.8194 39.5639 11.3627C39.7519 11.0603 39.9206 10.7417 40.07 10.4069C40.2195 10.0722 40.3866 9.73586 40.5715 9.39799C40.7241 9.0987 40.875 8.78168 41.0245 8.44691C41.1708 8.07668 41.3187 7.72418 41.4681 7.38941C41.6237 7.12559 41.7439 6.86488 41.8286 6.60726C42.1722 6.04105 42.4981 5.47639 42.8063 4.91327C43.1114 4.31469 43.381 3.71921 43.6151 3.12683C43.6444 3.05279 43.6914 2.97719 43.7561 2.90004C43.8563 2.81978 43.945 2.81203 44.0221 2.87676C44.1995 2.86125 44.3591 2.84728 44.501 2.83487C44.6784 2.81935 44.8573 2.82157 45.0377 2.84152C45.2182 2.86148 45.408 2.98785 45.6071 3.22064C45.8061 3.45342 45.8649 3.71636 45.7833 4.00944C45.7633 4.1899 45.7095 4.39121 45.6217 4.61335C45.5662 4.79691 45.4931 4.98203 45.4022 5.1687C45.0616 5.77039 44.7227 6.38981 44.3852 7.02697C44.0833 7.66102 43.7605 8.26116 43.4168 8.82737C43.2027 9.23929 42.9869 9.63347 42.7697 10.0099C42.5493 10.3509 42.3675 10.7242 42.2243 11.1299C42.1981 11.2394 42.1542 11.3505 42.0926 11.4631C42.0664 11.5727 42.021 11.666 41.9562 11.7431C41.5479 12.3865 41.1927 13.0252 40.8907 13.6593C40.6242 14.2902 40.3254 14.9598 39.9942 15.6679C39.6922 16.3019 39.3741 16.9553 39.0397 17.6279C38.7409 18.2974 38.479 18.9816 38.2542 19.6804C38.1726 19.9734 38.054 20.2519 37.8984 20.5157C37.7751 20.741 37.6904 20.9986 37.6443 21.2886C37.6119 21.3271 37.602 21.4174 37.6144 21.5593C37.6299 21.7366 37.7117 21.8546 37.8598 21.9131C38.0403 21.933 38.1837 21.9384 38.2901 21.9291L38.7158 21.8918C39.4159 21.7233 40.1284 21.6967 40.8534 21.812C41.5752 21.8918 42.2878 21.8652 42.991 21.7322C43.3165 21.7752 43.5825 21.752 43.7891 21.6624C44.4662 21.6389 45.124 21.5992 45.7625 21.5434C46.4364 21.4844 47.0896 21.3915 47.7219 21.2647C47.8221 21.1845 47.9639 21.1721 48.1475 21.2275C48.3603 21.2089 48.4406 21.3091 48.3883 21.5281C48.3559 21.5667 48.3313 21.6939 48.3144 21.9099C48.2883 22.0194 48.2235 22.0965 48.1202 22.1413C48.0524 22.183 47.9846 22.2247 47.9167 22.2664C47.8812 22.2695 47.8311 22.3096 47.7664 22.3867C47.3469 22.4949 46.9275 22.6031 46.508 22.7113C46.0886 22.8195 45.6691 22.9277 45.2497 23.0359C44.44 23.1782 43.6373 23.1948 42.8414 23.0857C42.0809 22.9735 41.3283 22.95 40.5834 23.0152C40.4769 23.0245 40.3721 23.0515 40.2688 23.0963C40.2009 23.138 40.1169 23.199 40.0167 23.2792C40.0167 23.2792 40.0422 23.3663 40.0932 23.5406C40.1411 23.6794 40.1905 23.8359 40.2415 24.0102C40.3279 24.1813 40.4144 24.3525 40.5009 24.5236C40.5842 24.6593 40.6275 24.7449 40.6306 24.7803C40.9055 25.4712 41.1125 26.2037 41.2517 26.9778C41.3909 27.752 41.4739 28.4954 41.5005 29.2079C41.6091 30.4494 41.5796 31.5422 41.412 32.4862C41.2798 33.4271 41.0636 34.4289 40.7635 35.4917C40.6819 35.7848 40.5825 36.0794 40.4655 36.3756C40.3808 36.6332 40.2622 36.9117 40.1096 37.211C40.025 37.4686 39.8855 37.7131 39.6913 37.9446C39.5326 38.1729 39.3754 38.419 39.2197 38.6828C39.0317 38.9852 38.8229 39.2537 38.5932 39.4883C38.4021 39.7552 38.1547 39.9913 37.8509 40.1966C37.5179 40.4759 37.1371 40.6165 36.7083 40.6182C36.4955 40.6369 36.352 40.6315 36.278 40.6023C36.0297 40.624 35.7559 40.5586 35.4566 40.4061C35.344 40.3444 35.1396 40.2551 34.8434 40.138C34.7308 40.0764 34.6343 39.9955 34.5541 39.8953C34.4414 39.8336 34.3466 39.7704 34.2694 39.7057C34.0349 39.476 33.8342 39.2255 33.6675 38.9541C33.5008 38.6828 33.3163 38.413 33.1142 38.1447C33.0725 38.0769 33.0308 38.009 32.9891 37.9412C32.9505 37.9088 32.9281 37.8572 32.9219 37.7862C32.8169 37.4022 32.7519 37.0684 32.7271 36.7846C32.6991 36.4653 32.6635 36.0574 32.62 35.5608ZM34.302 35.789C34.3238 36.0373 34.3424 36.2501 34.3579 36.4274C34.3734 36.6048 34.4067 36.7806 34.4577 36.9549C34.5011 37.4515 34.6734 37.9904 34.9744 38.5717C35.0609 38.7429 35.2021 38.9271 35.3981 39.1244C35.6619 39.2801 35.9326 39.31 36.2102 39.2142C36.2363 39.1047 36.3026 39.0453 36.409 39.036C36.742 38.7566 36.9717 38.5221 37.0981 38.3323C37.2537 38.0685 37.4125 37.8401 37.5743 37.6473C37.7716 37.4513 37.9111 37.2068 37.9926 36.9137L38.1383 36.7401C38.1906 36.521 38.2622 36.3182 38.3531 36.1315C38.5287 35.6872 38.6866 35.2445 38.8267 34.8033C39.0023 34.359 39.157 33.8808 39.291 33.3687C39.3894 32.8597 39.4639 32.2813 39.5144 31.6335C39.5974 30.9471 39.6448 30.2638 39.6568 29.5837C39.6688 28.9035 39.6307 28.2634 39.5424 27.6635C39.4866 27.025 39.3691 26.4992 39.1899 26.0859C39.1744 25.9086 39.1427 25.7505 39.0948 25.6117C39.047 25.4729 38.972 25.2293 38.87 24.8808C38.8035 24.5291 38.7193 24.1791 38.6173 23.8306C38.5122 23.4466 38.3763 23.1189 38.2096 22.8475C38.0784 22.5731 37.9418 22.4421 37.7999 22.4545C37.4097 22.4886 37.1384 22.6553 36.9858 22.9546C36.989 22.9901 36.9728 23.0094 36.9373 23.0125C36.7032 23.6049 36.4852 24.1779 36.2835 24.7317C36.1141 25.247 35.964 25.7784 35.8332 26.326C35.7778 26.5095 35.7385 26.6738 35.7155 26.8188C35.6893 26.9283 35.6454 27.0394 35.5838 27.152C35.3882 27.7768 35.2166 28.4709 35.069 29.2344C34.6641 30.7353 34.4282 32.3287 34.3613 34.0145C34.3537 34.3368 34.3462 34.6592 34.3386 34.9815C34.328 35.2684 34.3158 35.5375 34.302 35.789ZM55.6968 19.4947C55.7061 19.6011 55.6992 19.7268 55.6762 19.8718C55.701 20.1556 55.873 20.2835 56.1923 20.2556L56.7244 20.209C57.0019 20.1133 57.3713 20.0452 57.8324 20.0049C58.329 19.9614 58.7161 19.8918 58.9937 19.796L59.7386 19.7309C59.8157 19.7956 59.8574 19.8634 59.8636 19.9344C60.0241 20.1348 60.0204 20.296 59.8523 20.4179C59.8261 20.5274 59.7791 20.603 59.7113 20.6447C59.6758 20.6478 59.6257 20.6879 59.561 20.7651C59.4315 20.9194 59.3313 20.9996 59.2604 21.0058C58.8795 21.1464 58.4261 21.2754 57.9002 21.3929C57.4098 21.5073 56.9919 21.6332 56.6465 21.7707C56.1007 22.0686 55.5617 22.2409 55.0297 22.2874C54.9618 22.3291 54.894 22.3708 54.8261 22.4125C54.7938 22.4511 54.7437 22.4912 54.6758 22.5329C54.6111 22.61 54.5641 22.6856 54.5348 22.7597C54.5379 22.7951 54.5233 22.8322 54.4909 22.8707C54.3969 23.0219 54.3369 23.1523 54.3107 23.2618C54.2814 23.3358 54.2344 23.4114 54.1697 23.4886C53.8509 24.3386 53.3485 25.1331 52.6626 25.8723C52.0121 26.6083 51.4055 27.2333 50.8428 27.7472C50.6131 27.9817 50.2708 28.1546 49.8159 28.2659L49.4435 28.2985C49.337 28.3078 49.2098 28.2832 49.0617 28.2247C48.6267 28.1555 48.292 28.0061 48.0574 27.7764C47.8228 27.5467 47.6353 27.2414 47.4947 26.8606C47.4531 26.7927 47.4307 26.7411 47.4276 26.7056C47.3318 26.428 47.3263 26.1604 47.4109 25.9028C47.4371 25.7933 47.4826 25.7 47.5473 25.6228C47.5766 25.5488 47.5865 25.4585 47.5772 25.3521C47.6943 25.0559 47.7643 24.8353 47.7874 24.6904C47.8858 24.1813 47.992 23.761 48.106 23.4293C48.1845 23.1008 48.3084 22.6789 48.4778 22.1637C48.5625 21.906 48.6472 21.6484 48.7319 21.3908C48.8166 21.1332 48.919 20.874 49.0392 20.6133C49.1593 20.3526 49.281 20.1096 49.4043 19.8844C49.5631 19.656 49.7218 19.4277 49.8805 19.1993C50.0331 18.9 50.1694 18.62 50.2896 18.3593C50.4097 18.0986 50.5461 17.8186 50.6986 17.5193C50.8219 17.2941 51.0061 17.1529 51.2513 17.0957C51.3808 16.9414 51.5697 16.8533 51.818 16.8316C52.202 16.7265 52.6392 16.6168 53.1296 16.5024C53.62 16.388 54.0195 16.4603 54.3281 16.7192C54.4052 16.784 54.4808 16.831 54.5549 16.8602C54.6258 16.854 54.6998 16.8833 54.777 16.948C54.8989 17.1161 55.0016 17.268 55.0849 17.4036C55.1683 17.5393 55.2709 17.6912 55.3929 17.8592C55.4793 18.0304 55.548 18.2031 55.599 18.3773C55.6469 18.5161 55.6624 18.6935 55.6456 18.9094L55.6968 19.4947ZM52.8063 21.9994C52.7938 21.8575 52.7683 21.7704 52.7298 21.738C52.5338 21.5407 52.3733 21.3403 52.2482 21.1368C52.1232 20.9333 51.9982 20.7298 51.8731 20.5262C51.8315 20.4584 51.7366 20.3952 51.5885 20.3367C51.5499 20.3043 51.4597 20.2943 51.3178 20.3067C51.2468 20.3129 51.1628 20.3739 51.0657 20.4896C50.9101 20.7535 50.7575 21.0528 50.6081 21.3875C50.28 22.1311 50.0343 22.796 49.8712 23.3821C49.708 23.9683 49.5541 24.6609 49.4096 25.4599L49.4235 25.6195C49.3943 25.6936 49.3827 25.7661 49.3889 25.837C49.4306 25.9048 49.4869 25.9357 49.5579 25.9294C49.6705 25.9911 49.7592 25.9833 49.8239 25.9062C50.544 25.5572 51.1406 25.0225 51.6137 24.302C52.0868 23.5815 52.4744 22.9042 52.7763 22.2701C52.8056 22.1961 52.8156 22.1058 52.8063 21.9994ZM54.1877 18.1791C54.1815 18.1082 54.1398 18.0403 54.0627 17.9756C53.9208 17.988 53.8514 18.012 53.8545 18.0474C53.392 18.4811 53.1355 19.0218 53.085 19.6696C53.0557 19.7436 53.0442 19.8161 53.0504 19.8871C53.0889 19.9195 53.1113 19.9711 53.1175 20.0421C53.1206 20.0775 53.1639 20.1631 53.2472 20.2988C53.3244 20.3635 53.3984 20.3928 53.4694 20.3866C53.5758 20.3773 53.6614 20.334 53.7261 20.2569C53.8232 20.1412 53.9026 20.027 53.9642 19.9144C54.0875 19.6891 54.1544 19.4331 54.1651 19.1462C54.1757 18.8593 54.1864 18.5724 54.197 18.2855L54.1877 18.1791ZM58.5265 25.0376C58.9207 23.8235 59.2795 22.6126 59.6027 21.4048C59.9229 20.1615 60.0641 18.916 60.0264 17.6683C60.2623 17.5047 60.4481 17.3812 60.5838 17.2979C60.7549 17.2114 60.913 17.1797 61.058 17.2028C61.2385 17.2227 61.4251 17.3136 61.618 17.4754C61.8432 17.5987 62.1102 17.7898 62.4188 18.0488C62.6547 17.8852 62.8373 17.7262 62.9668 17.5719C63.0932 17.3821 63.218 17.1746 63.3413 16.9494C63.8068 16.5512 64.2562 16.1723 64.6894 15.8127C65.1581 15.45 65.6878 15.1714 66.2784 14.9767C66.7688 14.8623 67.2283 14.8043 67.6571 14.8025C68.1182 14.7621 68.5532 14.8313 68.962 15.01C69.3292 15.1209 69.5282 15.3537 69.5593 15.7084C69.4484 16.0755 69.2866 16.2684 69.0737 16.287C68.8964 16.3025 68.7368 16.3165 68.5949 16.3289C68.453 16.3413 68.2903 16.3198 68.1067 16.2644C67.681 16.3016 67.26 16.3921 66.8437 16.5357C66.4597 16.6408 66.1074 16.904 65.7868 17.3252C64.8743 18.3343 64.0196 19.3921 63.2228 20.4983C62.426 21.6046 61.8013 22.8388 61.3486 24.2009C61.2962 24.4199 61.2246 24.6228 61.1337 24.8095C61.0752 24.9576 60.9843 25.1442 60.861 25.3695C60.7209 25.8107 60.4496 25.9774 60.0469 25.8696C59.757 25.8235 59.5009 25.7565 59.2788 25.6687C59.0212 25.5841 58.7704 25.3737 58.5265 25.0376ZM68.5454 25.5014C68.5405 25.0372 68.6321 24.6538 68.8201 24.3515C68.9726 24.0522 69.122 23.7174 69.2684 23.3472C69.4147 22.9769 69.5641 22.6422 69.7167 22.3429C69.7721 22.1593 69.8306 22.0112 69.8923 21.8986C69.9508 21.7505 70.0255 21.5831 70.1164 21.3964C70.1133 21.361 70.1379 21.2337 70.1902 21.0147C70.2239 20.5828 70.3124 20.164 70.4556 19.7583C70.6312 19.314 70.7713 18.8729 70.876 18.4348C70.9283 18.2157 71.0369 18.0275 71.2019 17.8701C71.2573 17.6865 71.3914 17.5855 71.6043 17.5668C71.8109 17.4773 72.0029 17.4247 72.1802 17.4092C72.3869 17.3197 72.5365 17.3959 72.6292 17.638C72.7866 17.803 72.8808 18.0628 72.9118 18.4175L72.9351 18.6835C72.9444 18.79 73.0054 18.874 73.118 18.9356C73.263 18.9587 73.3856 18.9301 73.4858 18.8498C73.5505 18.7727 73.6685 18.6909 73.8396 18.6044C73.9044 18.5273 73.9853 18.4308 74.0824 18.3151C74.1795 18.1994 74.2959 18.0998 74.4316 18.0165C74.4963 17.9393 74.5819 17.8961 74.6883 17.8868C74.7947 17.8775 74.8996 17.8504 75.0029 17.8056C75.1417 17.7578 75.3707 17.7198 75.6899 17.6919C76.1834 17.613 76.6293 17.8063 77.0274 18.2719C77.0368 18.3783 77.0623 18.4654 77.1039 18.5333C77.2228 18.6659 77.3678 18.6889 77.5389 18.6025C77.6067 18.5608 77.6746 18.5191 77.7424 18.4774C77.8072 18.4003 77.8734 18.3409 77.9413 18.2992L78.6696 17.4312C78.8669 17.2353 79.0287 17.0424 79.1551 16.8526C79.3169 16.6597 79.4788 16.4669 79.6406 16.274C79.6992 16.1259 79.7785 16.0117 79.8787 15.9315C80.0113 15.8126 80.1277 15.7131 80.2279 15.6328C80.4962 15.4306 80.7644 15.2285 81.0327 15.0263C81.2978 14.7886 81.563 14.551 81.8282 14.3133C82.2321 14.0278 82.6693 13.918 83.1397 13.9841C83.4652 14.0271 83.692 14.1681 83.8201 14.4071C83.8356 14.5845 83.8434 14.6731 83.8434 14.6731C83.8035 15.0341 83.7427 15.3611 83.6611 15.6542C83.615 15.9441 83.5173 16.2565 83.3678 16.5913C83.1075 17.2932 82.865 17.9935 82.6402 18.6923C82.4154 19.3911 82.1535 20.0753 81.8547 20.7448C81.7177 21.2214 81.5629 21.6996 81.3904 22.1794C81.2534 22.656 81.0987 23.1342 80.9262 23.614C80.7799 23.9842 80.6513 24.3529 80.5404 24.72C80.4265 25.0517 80.2979 25.4204 80.1546 25.8261C80.1577 25.8616 80.1447 25.9163 80.1154 25.9904C80.1216 26.0613 80.1278 26.1323 80.134 26.2032C80.1464 26.3451 80.1881 26.4129 80.2591 26.4067C80.3007 26.4746 80.3539 26.4699 80.4187 26.3928C80.4896 26.3866 80.6091 26.3225 80.7772 26.2006C81.1425 25.8826 81.4902 25.5663 81.8201 25.2515C82.1854 24.9336 82.5299 24.5817 82.8536 24.196C82.886 24.1574 82.9199 24.1366 82.9554 24.1335C82.9878 24.0949 83.0186 24.0386 83.0478 23.9645C83.3068 23.6559 83.5881 23.399 83.8919 23.1937C84.1925 22.9529 84.4723 22.6782 84.7312 22.3696C84.9902 22.061 85.2684 21.7686 85.5659 21.4924C85.8634 21.2162 86.1432 20.9415 86.4053 20.6683C86.6088 20.5433 86.793 20.4021 86.958 20.2447C87.1229 20.0873 87.3264 19.9622 87.5685 19.8696L87.675 19.8603C87.8231 19.9188 87.8647 19.9866 87.8 20.0638C87.8062 20.1347 87.7931 20.1895 87.7608 20.2281C87.7639 20.2635 87.7508 20.3183 87.7215 20.3923C87.7401 20.6052 87.6863 20.8065 87.5599 20.9963C87.3102 21.4113 87.022 21.7939 86.6952 22.1442C86.3685 22.4945 86.0771 22.8417 85.8213 23.1857C85.553 23.3879 85.3056 23.624 85.079 23.8941C84.8879 24.161 84.6937 24.3924 84.4964 24.5884C84.108 25.0513 83.718 25.4965 83.3265 25.9239C82.9704 26.3482 82.5982 26.7918 82.2098 27.2548C81.7336 27.9398 81.2287 28.5022 80.6953 28.9421C80.5304 29.0995 80.3446 29.223 80.138 29.3125C79.9637 29.3635 79.7717 29.4161 79.562 29.4702C79.2073 29.5012 78.9126 29.4019 78.6781 29.1722C77.9899 28.6605 77.7343 27.9859 77.9113 27.1483C78.0128 26.6747 78.1398 26.2883 78.2924 25.989C78.4387 25.6188 78.5866 25.2663 78.736 24.9315C78.8823 24.5613 79.0271 24.1733 79.1703 23.7676C79.3198 23.4329 79.4514 23.0996 79.5654 22.768C79.7117 22.3977 79.8596 22.0452 80.009 21.7105C80.0645 21.5269 80.1214 21.3611 80.18 21.213C80.2354 21.0294 80.2731 20.8474 80.293 20.6669C80.4363 20.2612 80.5633 19.8748 80.6742 19.5077C80.7819 19.1051 80.9074 18.7009 81.0506 18.2952C81.1446 18.144 81.2031 17.9959 81.2262 17.8509C81.2555 17.7769 81.2623 17.6512 81.2468 17.4738C81.2406 17.4029 81.1828 17.3543 81.0732 17.3282C80.9992 17.2989 80.9282 17.3051 80.8604 17.3468C80.7895 17.353 80.7216 17.3947 80.6569 17.4718C80.4919 17.6292 80.3432 17.7673 80.2106 17.8862C80.1135 18.0019 80.0002 18.1369 79.8707 18.2912C79.3143 18.8761 78.7786 19.4948 78.2638 20.1475C77.7845 20.7971 77.3052 21.4466 76.8259 22.0962C76.6702 22.36 76.4969 22.6254 76.3058 22.8923C76.147 23.1207 75.9883 23.349 75.8295 23.5774C75.7032 23.7671 75.5768 23.9569 75.4504 24.1467C75.3564 24.2979 75.2462 24.4684 75.1199 24.6581C74.9997 24.9189 74.8071 25.168 74.5419 25.4057C74.212 25.7205 73.8218 25.7546 73.3713 25.5081C73.1816 25.3817 73.0273 25.2523 72.9084 25.1197C72.7865 24.9516 72.6807 24.7643 72.5912 24.5577C72.5788 24.4158 72.5903 24.3433 72.6258 24.3402C72.6812 24.1566 72.7189 23.9746 72.7388 23.7941C72.7912 23.5751 72.8612 23.3545 72.949 23.1324C73.0076 22.9843 73.0521 22.6766 73.0827 22.2092C73.0765 22.1383 73.0364 22.0882 72.9623 22.0589C72.9238 22.0265 72.8883 22.0296 72.8559 22.0682C72.5367 22.0962 72.3332 22.2212 72.2454 22.4433C72.0835 22.6362 71.941 22.8453 71.8177 23.0705C71.6913 23.2603 71.5873 23.5017 71.5058 23.7948C71.3825 24.02 71.2592 24.2453 71.136 24.4705C71.0482 24.6927 70.9619 24.9325 70.8772 25.1902C70.7309 25.5604 70.5121 25.9191 70.2208 26.2663C70.1622 26.4144 70.0636 26.5124 69.9248 26.5603C69.7474 26.5758 69.5847 26.5543 69.4366 26.4957C69.2238 26.5144 69.0564 26.4396 68.9345 26.2716C68.703 26.0774 68.5733 25.8206 68.5454 25.5014ZM96.8442 23.4009C96.3831 23.4412 95.9335 23.4091 95.4954 23.3044C95.4213 23.2752 95.3473 23.2459 95.2732 23.2166C95.1961 23.1519 95.1205 23.1049 95.0464 23.0756C94.6931 22.7134 94.5186 22.3533 94.523 21.9955C94.5399 21.7796 94.576 21.5798 94.6314 21.3963C94.6869 21.2127 94.6906 21.0515 94.6428 20.9127C94.6303 20.7708 94.5532 20.7061 94.4113 20.7185C94.3789 20.7571 94.345 20.7779 94.3095 20.781C94.2741 20.7841 94.2401 20.805 94.2078 20.8436C93.9905 21.22 93.7655 21.5078 93.5327 21.7068C93.3677 21.8642 93.219 22.0024 93.0864 22.1212C92.9538 22.24 92.8035 22.3604 92.6355 22.4823C92.4705 22.6397 92.3071 22.8149 92.1453 23.0078C92.0158 23.1621 91.8493 23.3017 91.6458 23.4268C90.9182 24.0981 90.0176 24.4271 88.9442 24.4137C88.6604 24.4386 88.3287 24.3246 87.9492 24.0719C87.7887 23.8714 87.6506 23.7227 87.5348 23.6256C87.2586 23.3281 87.2145 23.0281 87.4025 22.7257C87.4872 22.4681 87.5719 22.2105 87.6566 21.9529C87.7058 21.6984 87.718 21.4292 87.6932 21.1454C87.7685 20.7814 87.8563 20.5593 87.9565 20.479C88.1091 20.1797 88.2647 19.9159 88.4234 19.6876C88.5822 19.4592 88.7764 19.2278 89.0061 18.9932C89.1679 18.8003 89.3298 18.6074 89.4916 18.4146C89.6503 18.1862 89.8106 17.9756 89.9725 17.7827C90.0665 17.6315 90.1798 17.4965 90.3123 17.3777C90.4449 17.2589 90.5744 17.1046 90.7008 16.9148C90.8657 16.7574 90.9952 16.6031 91.0892 16.4519C91.2187 16.2976 91.3481 16.1433 91.4776 15.989C91.96 15.3749 92.4934 14.935 93.0778 14.6695L94.4586 13.9053C94.5588 13.825 94.6799 13.7787 94.8217 13.7663C94.9605 13.7184 95.0993 13.6705 95.2381 13.6226C95.4416 13.4976 95.6722 13.4774 95.9298 13.5621L96.0362 13.5528C96.2584 13.6406 96.4951 13.6914 96.7465 13.7051C97.0334 13.7158 97.3026 13.7279 97.554 13.7417C97.9149 13.7816 98.1579 13.9033 98.2829 14.1068C98.4403 14.2718 98.4944 14.4815 98.4452 14.736C98.4886 15.2326 98.4079 15.7401 98.2031 16.2584C98.1215 16.5515 98.0222 16.8461 97.9051 17.1423C97.788 17.4385 97.7064 17.7316 97.6603 18.0216C97.6049 18.2052 97.5495 18.3887 97.494 18.5723C97.4355 18.7204 97.3785 18.8862 97.3231 19.0698C97.2415 19.3629 97.1599 19.656 97.0783 19.949C96.9968 20.2421 96.9314 20.5159 96.8821 20.7704L96.9147 21.1429C96.9178 21.1784 96.9579 21.2285 97.0351 21.2932C97.1091 21.3225 97.1816 21.334 97.2526 21.3278C97.4299 21.3123 97.5703 21.2821 97.6736 21.2373C97.9481 21.1061 98.221 20.9571 98.4923 20.7904C98.7992 20.6206 99.0883 20.4523 99.3596 20.2856C99.7605 19.9646 100.179 19.642 100.615 19.3179C101.049 18.9583 101.466 18.618 101.866 18.297C102.441 17.925 103.021 17.6062 103.606 17.3406C103.709 17.2958 103.832 17.2672 103.973 17.2548C104.044 17.2486 104.118 17.2779 104.196 17.3426C104.273 17.4073 104.314 17.4752 104.321 17.5461L104.043 18.0529C103.849 18.2844 103.655 18.5158 103.461 18.7473C103.266 18.9787 103.071 19.1924 102.873 19.3884C102.405 19.7511 101.973 20.1284 101.578 20.5204C101.184 20.9124 100.77 21.2881 100.337 21.6477C100.104 21.8468 99.8533 22.0474 99.5851 22.2496C99.3137 22.4163 99.0439 22.6008 98.7756 22.803C98.2684 23.1333 97.6246 23.3326 96.8442 23.4009ZM96.0694 15.1583C96.0508 14.9455 95.9528 14.8468 95.7755 14.8624C95.6398 14.9457 95.5187 14.9921 95.4123 15.0014C95.3059 15.0107 95.2026 15.0555 95.1024 15.1357C94.8248 15.2315 94.5858 15.3596 94.3854 15.5201C94.1819 15.6452 93.9815 15.8057 93.7842 16.0017C93.519 16.2393 93.257 16.5124 92.998 16.821C92.7391 17.1296 92.4801 17.4382 92.2212 17.7468C91.839 18.2807 91.4776 18.8485 91.137 19.4501C90.7934 20.0164 90.4498 20.5826 90.1061 21.1488L90.1247 21.3616C90.0955 21.4357 90.0824 21.4904 90.0855 21.5259C90.121 21.5228 90.1403 21.539 90.1434 21.5745L90.5158 21.5419C90.6129 21.4261 90.7131 21.3459 90.8164 21.3011C90.9167 21.2209 91.0153 21.1229 91.1124 21.0071C91.5394 20.5766 91.9664 20.1461 92.3934 19.7155C92.8173 19.2495 93.225 18.8028 93.6165 18.3754C93.9757 17.9865 94.3187 17.617 94.6455 17.2667C95.0046 16.8778 95.346 16.4905 95.6697 16.1048C95.7668 15.989 95.8477 15.8926 95.9125 15.8154C95.9741 15.7028 96.0326 15.5547 96.0881 15.3712C96.1173 15.2971 96.1142 15.2616 96.0788 15.2647C96.0757 15.2293 96.0725 15.1938 96.0694 15.1583ZM108.415 11.9873C108.363 12.2063 108.313 12.4608 108.267 12.7508C108.221 13.0408 108.122 13.3354 107.969 13.6347C107.8 14.1499 107.611 14.649 107.403 15.1318C107.231 15.6116 107.06 16.1091 106.891 16.6243C106.783 17.0269 106.672 17.394 106.558 17.7257C106.479 18.0542 106.422 18.4167 106.385 18.8131C106.339 19.1031 106.314 19.427 106.309 19.7848C106.337 20.1041 106.364 20.4056 106.388 20.6894C106.521 21.3926 106.741 21.8559 107.046 22.0794C107.387 22.2998 107.909 22.3435 108.612 22.2105C109.667 22.0109 110.636 21.6403 111.518 21.0984C111.789 20.9317 112.044 20.7843 112.283 20.6562C112.519 20.4926 112.776 20.3629 113.053 20.2671C113.124 20.2609 113.197 20.2724 113.271 20.3017C113.38 20.3278 113.506 20.3347 113.648 20.3223C113.301 20.853 112.988 21.3629 112.709 21.852C112.431 22.3411 112.054 22.7315 111.579 23.0232C110.529 23.687 109.375 23.9845 108.118 23.9158C107.077 23.8639 106.2 23.4402 105.487 22.6447C104.771 21.8138 104.403 20.8809 104.384 19.846C104.412 19.3432 104.493 18.8357 104.627 18.3236C104.757 17.776 104.869 17.2122 104.961 16.6322C105.277 15.7468 105.593 14.8613 105.908 13.9759C106.224 13.0904 106.596 12.2358 107.024 11.4119C107.248 11.1064 107.416 10.7878 107.53 10.4562C107.644 10.1245 107.775 9.77358 107.921 9.40335C108.061 8.96217 108.022 8.51877 107.804 8.07315C107.592 8.09177 107.395 8.0911 107.215 8.07115C107.034 8.0512 106.82 8.05208 106.571 8.0738C105.72 8.14829 104.835 8.24361 103.916 8.35976C103.032 8.47282 102.129 8.56969 101.207 8.65038C100.533 8.70935 99.8912 8.72973 99.2819 8.71155C98.6727 8.69336 98.0395 8.60578 97.3824 8.44881C97.1634 8.39649 96.9767 8.30559 96.8224 8.17612C96.6326 8.04975 96.4251 7.92493 96.1999 7.80166C96.536 7.5578 96.8798 7.40261 97.2315 7.33611C97.5476 7.2727 97.8476 7.22859 98.1313 7.20376L107.656 6.3705L108.933 6.25878C109.444 5.57063 109.809 4.84169 110.028 4.07196C110.271 3.58599 110.516 3.11777 110.763 2.66728C111.009 2.21679 111.22 1.76941 111.396 1.32512C111.461 1.24797 111.508 1.17237 111.537 1.09833C111.563 0.988808 111.609 0.895473 111.673 0.818324C111.868 0.586871 112.104 0.42326 112.381 0.32749C112.659 0.23172 112.939 0.171421 113.223 0.146594C113.613 0.112457 113.871 0.197149 113.996 0.400669C114.121 0.604189 114.283 0.822343 114.482 1.05513C113.941 1.81732 113.418 2.57797 112.912 3.33706C112.442 4.09304 112.013 4.89914 111.623 5.75533C112.77 5.79791 113.855 5.73873 114.878 5.57779C115.9 5.41685 116.926 5.29138 117.955 5.20138C118.919 5.18853 119.896 5.12092 120.886 4.99856C121.876 4.87619 122.832 4.77466 123.754 4.69398C124.754 4.67802 125.769 4.64279 126.801 4.58826C127.83 4.49826 128.861 4.44374 129.896 4.42468C128.279 5.13809 126.441 5.58479 124.384 5.76479C123.397 5.92263 122.428 6.07891 121.476 6.23365C120.56 6.38528 119.609 6.54002 118.622 6.69785C117.564 6.8619 116.486 7.00976 115.39 7.14144C114.293 7.27311 113.198 7.42253 112.105 7.58968L111.52 7.64088C111.094 7.67812 110.747 7.79784 110.479 8.00002C110.207 8.16674 110.019 8.46913 109.915 8.90721C109.772 9.31291 109.591 9.70399 109.374 10.0804C109.157 10.4569 108.959 10.8495 108.78 11.2583L108.674 11.2676C108.615 11.4157 108.573 11.5445 108.547 11.654C108.517 11.7281 108.474 11.8392 108.415 11.9873ZM113.69 20.0506C113.742 19.8315 113.781 19.6672 113.808 19.5577C113.831 19.4127 113.875 19.3017 113.939 19.2245C114.149 18.3484 114.503 17.4953 115.002 16.6652C115.498 15.7997 115.847 15.0901 116.049 14.5363C116.108 14.3882 116.148 14.2416 116.171 14.0966C116.194 13.9516 116.234 13.7874 116.289 13.6038C116.345 13.4202 116.4 13.2367 116.455 13.0531C116.546 12.8664 116.658 12.7137 116.791 12.5949C116.846 12.4113 116.925 12.2971 117.029 12.2523C117.132 12.2075 117.271 12.1597 117.445 12.1087L117.605 12.0947C118.027 12.022 118.365 12.2069 118.618 12.6494C118.734 12.7465 118.767 12.9223 118.718 13.1768C118.601 13.473 118.51 13.6597 118.445 13.7368C118.17 14.2614 117.889 14.7327 117.604 15.1508C117.354 15.5658 117.129 16.0503 116.927 16.6041C116.774 16.9033 116.61 17.2751 116.435 17.7194C116.259 18.1637 116.113 18.5339 115.996 18.8301C115.931 18.9073 115.858 19.0924 115.776 19.3855C115.73 19.6755 115.712 19.8737 115.721 19.9801C115.692 20.0541 115.75 20.1027 115.895 20.1257C116.04 20.1488 116.148 20.1572 116.219 20.151C116.535 20.0876 116.916 19.9471 117.361 19.7294C117.842 19.5085 118.34 19.2684 118.853 19.0091C119.399 18.7111 119.943 18.3954 120.486 18.062C121.025 17.6931 121.547 17.3257 122.052 16.9599C122.358 16.7901 122.63 16.6234 122.866 16.4598C123.101 16.2962 123.377 16.1827 123.694 16.1193C123.768 16.1485 123.811 16.2341 123.823 16.376L123.837 16.5356C123.746 16.7223 123.618 16.8943 123.454 17.0517C123.285 17.1737 123.119 17.3133 122.954 17.4707C122.592 17.8241 122.11 18.2416 121.509 18.7231C120.943 19.2015 120.342 19.683 119.705 20.1677C119.101 20.6137 118.495 21.042 117.887 21.4526C117.312 21.8246 116.836 22.0986 116.458 22.2747C116.083 22.4862 115.661 22.5589 115.19 22.4928L114.697 22.3751C114.218 22.2026 113.903 21.8727 113.753 21.3854C113.673 21.2852 113.649 21.2158 113.681 21.1772C113.714 21.1386 113.707 21.0677 113.663 20.9644C113.638 20.6806 113.637 20.4662 113.66 20.3212C113.654 20.2503 113.665 20.1778 113.695 20.1038C113.724 20.0297 113.722 20.012 113.69 20.0506ZM117.514 10.4406C117.543 10.3666 117.554 10.2941 117.548 10.2231C117.539 10.1167 117.549 10.0265 117.578 9.95244C117.624 9.66245 117.691 9.40639 117.779 9.18425C117.867 8.96211 117.955 8.73997 118.042 8.51783C118.072 8.44378 118.102 8.38747 118.135 8.34889C118.203 8.30721 118.269 8.2478 118.334 8.17065C118.921 7.94053 119.427 8.0035 119.851 8.35955C120.199 8.65087 120.277 8.92999 120.086 9.19691C119.978 9.59952 119.746 10.013 119.39 10.4373C119.134 10.7814 118.761 11.0106 118.27 11.125C118.2 11.1312 118.146 11.1359 118.111 11.139C118.072 11.1066 118.035 11.092 118 11.0951C117.745 11.0459 117.61 10.9326 117.595 10.7552C117.585 10.6488 117.558 10.5439 117.514 10.4406ZM131.836 12.8334C131.845 12.9398 131.838 13.0655 131.815 13.2105C131.84 13.4943 132.012 13.6222 132.331 13.5943L132.863 13.5477C133.141 13.452 133.51 13.3839 133.971 13.3436C134.468 13.3001 134.855 13.2305 135.133 13.1347L135.878 13.0696C135.955 13.1343 135.996 13.2021 136.003 13.2731C136.163 13.4735 136.159 13.6347 135.991 13.7566C135.965 13.8661 135.918 13.9417 135.85 13.9834C135.815 13.9865 135.765 14.0266 135.7 14.1038C135.571 14.2581 135.47 14.3383 135.399 14.3445C135.019 14.4851 134.565 14.6141 134.039 14.7316C133.549 14.846 133.131 14.9719 132.786 15.1094C132.24 15.4073 131.701 15.5796 131.169 15.6261C131.101 15.6678 131.033 15.7095 130.965 15.7512C130.933 15.7897 130.883 15.8299 130.815 15.8716C130.75 15.9487 130.703 16.0243 130.674 16.0983C130.677 16.1338 130.662 16.1708 130.63 16.2094C130.536 16.3606 130.476 16.491 130.45 16.6005C130.42 16.6745 130.373 16.7501 130.309 16.8273C129.99 17.6773 129.488 18.4718 128.802 19.211C128.151 19.947 127.545 20.572 126.982 21.0859C126.752 21.3204 126.41 21.4933 125.955 21.6046L125.583 21.6372C125.476 21.6465 125.349 21.6219 125.201 21.5634C124.766 21.4942 124.431 21.3448 124.196 21.1151C123.962 20.8854 123.774 20.5801 123.634 20.1993C123.592 20.1314 123.57 20.0798 123.567 20.0443C123.471 19.7667 123.465 19.4991 123.55 19.2415C123.576 19.132 123.622 19.0387 123.686 18.9615C123.716 18.8875 123.726 18.7972 123.716 18.6908C123.833 18.3946 123.903 18.174 123.926 18.029C124.025 17.52 124.131 17.0997 124.245 16.768C124.324 16.4395 124.447 16.0176 124.617 15.5024C124.702 15.2447 124.786 14.9871 124.871 14.7295C124.956 14.4719 125.058 14.2127 125.178 13.952C125.298 13.6913 125.42 13.4483 125.543 13.2231C125.702 12.9947 125.861 12.7664 126.02 12.538C126.172 12.2387 126.308 11.9587 126.429 11.698C126.549 11.4373 126.685 11.1573 126.838 10.858C126.961 10.6328 127.145 10.4915 127.39 10.4343C127.52 10.28 127.709 10.192 127.957 10.1703C128.341 10.0652 128.778 9.9555 129.269 9.84111C129.759 9.72671 130.159 9.79899 130.467 10.0579C130.544 10.1227 130.62 10.1697 130.694 10.1989C130.765 10.1927 130.839 10.222 130.916 10.2867C131.038 10.4548 131.141 10.6067 131.224 10.7423C131.307 10.878 131.41 11.0299 131.532 11.1979C131.618 11.3691 131.687 11.5418 131.738 11.716C131.786 11.8548 131.802 12.0322 131.785 12.2481L131.836 12.8334ZM128.945 15.3381C128.933 15.1962 128.907 15.1091 128.869 15.0767C128.673 14.8794 128.512 14.679 128.387 14.4755C128.262 14.272 128.137 14.0684 128.012 13.8649C127.971 13.7971 127.876 13.7339 127.728 13.6754C127.689 13.643 127.599 13.633 127.457 13.6454C127.386 13.6516 127.302 13.7126 127.205 13.8283C127.049 14.0922 126.897 14.3914 126.747 14.7262C126.419 15.4698 126.173 16.1347 126.01 16.7208C125.847 17.307 125.693 17.9996 125.549 18.7986L125.563 18.9582C125.533 19.0323 125.522 19.1047 125.528 19.1757C125.57 19.2435 125.626 19.2743 125.697 19.2681C125.81 19.3298 125.898 19.322 125.963 19.2449C126.683 18.8959 127.28 18.3612 127.753 17.6407C128.226 16.9202 128.613 16.2429 128.915 15.6088C128.945 15.5348 128.955 15.4445 128.945 15.3381ZM130.327 11.5178C130.321 11.4469 130.279 11.379 130.202 11.3143C130.06 11.3267 129.99 11.3507 129.994 11.3861C129.531 11.8198 129.275 12.3605 129.224 13.0083C129.195 13.0823 129.183 13.1548 129.189 13.2258C129.228 13.2581 129.25 13.3098 129.257 13.3807C129.26 13.4162 129.303 13.5018 129.386 13.6375C129.463 13.7022 129.538 13.7315 129.608 13.7253C129.715 13.716 129.8 13.6727 129.865 13.5956C129.962 13.4799 130.042 13.3657 130.103 13.2531C130.227 13.0278 130.294 12.7718 130.304 12.4849C130.315 12.198 130.325 11.9111 130.336 11.6242L130.327 11.5178ZM141.192 18.8239C141.561 18.5415 141.929 18.2591 142.298 17.9766C142.702 17.6911 143.067 17.3732 143.394 17.0229C143.791 16.6664 144.228 16.3423 144.703 16.0505C145.21 15.7202 145.68 15.3752 146.113 15.0157C146.249 14.9323 146.385 14.8489 146.52 14.7656C146.688 14.6436 146.858 14.5395 147.029 14.453C147.2 14.3665 147.354 14.2816 147.489 14.1983C147.625 14.1149 147.796 14.0284 148.003 13.9389C148.142 13.891 148.182 13.9411 148.123 14.0892C148.168 14.1925 148.176 14.2812 148.147 14.3552C148.117 14.4293 148.09 14.5211 148.063 14.6306L147.02 15.5797C146.92 15.6599 146.804 15.7595 146.671 15.8783C146.571 15.9585 146.471 16.0388 146.371 16.119L144.516 18.2114C144.125 18.6389 143.716 19.0678 143.289 19.4984C142.897 19.9258 142.47 20.3563 142.008 20.79C141.84 20.9119 141.673 21.0516 141.508 21.209C141.379 21.3633 141.231 21.5191 141.066 21.6765C140.934 21.7954 140.801 21.9142 140.669 22.033C140.572 22.1487 140.489 22.2275 140.421 22.2691C139.94 22.4899 139.547 22.4886 139.241 22.2651L138.957 22.0756C138.681 21.778 138.501 21.5614 138.417 21.4258C138.334 21.2901 138.324 20.9693 138.387 20.4634L138.521 19.5402C138.654 19.0281 138.772 18.5353 138.874 18.0617C138.975 17.5882 139.111 17.0938 139.28 16.5786L139.643 15.2065L139.702 14.6651C139.69 14.5232 139.61 14.423 139.462 14.3644C139.355 14.3738 139.268 14.3993 139.2 14.4409L138.035 15.8296C137.844 16.0966 137.616 16.3489 137.351 16.5865C137.118 16.7856 136.863 16.933 136.585 17.0288C136.485 17.109 136.401 17.17 136.333 17.2117C136.265 17.2534 136.2 17.3305 136.139 17.4431C136.051 17.6653 135.82 17.8821 135.445 18.0936L135.087 18.2858C134.78 18.4556 134.54 18.3694 134.367 18.0271C134.206 17.8267 134.148 17.5637 134.191 17.2383C134.308 16.9421 134.409 16.6652 134.493 16.4076C134.543 16.1531 134.61 15.897 134.694 15.6394C134.847 15.3401 134.98 15.0246 135.094 14.693C135.208 14.3613 135.303 14.0135 135.378 13.6494C135.424 13.3594 135.509 13.1018 135.632 12.8766C135.711 12.548 135.807 12.2179 135.921 11.8863C136.035 11.5546 136.129 11.2068 136.205 10.8427C136.257 10.6237 136.311 10.4224 136.366 10.2388C136.457 10.0521 136.53 9.86703 136.586 9.68347C136.641 9.4999 136.793 9.39726 137.041 9.37553L137.574 9.32898C137.68 9.31967 137.788 9.3281 137.897 9.35426C138.039 9.34184 138.15 9.38574 138.231 9.48595C138.572 9.70632 138.721 9.97924 138.678 10.3047C138.693 10.482 138.673 10.6625 138.618 10.8461C138.559 10.9942 138.538 11.1569 138.553 11.3343C138.595 11.4021 138.669 11.4314 138.775 11.4221C138.882 11.4127 138.969 11.3872 139.037 11.3456C139.296 11.037 139.575 10.7623 139.876 10.5215C140.212 10.2777 140.51 10.0014 140.769 9.69282C141.102 9.41349 141.534 9.25054 142.066 9.20399C142.456 9.16986 142.75 9.25144 142.946 9.44876C142.987 9.5166 143.029 9.58444 143.071 9.65228C143.109 9.68465 143.132 9.7363 143.138 9.80725C143.263 10.0108 143.311 10.1496 143.281 10.2236C143.235 10.5136 143.184 10.7504 143.129 10.9339L141.621 15.1406L140.877 17.672C140.737 18.1132 140.715 18.4725 140.81 18.7501C140.82 18.8565 140.878 18.9051 140.984 18.8958L141.09 18.8865L141.095 18.9397L141.192 18.8239Z" fill="#CF4267"/>
</svg>
