<svg width="48" height="31" viewBox="0 0 48 31" fill="none" xmlns="http://www.w3.org/2000/svg">
<path d="M10.36 9.79532C10.2969 9.87055 10.2167 10.017 10.1196 10.2346C10.0435 10.4272 9.95687 10.6322 9.85972 10.8499C9.78564 11.0655 9.71156 11.2811 9.63747 11.4967C9.58443 11.6872 9.55042 11.8296 9.53543 11.9239C8.85658 13.726 8.14861 15.461 7.41154 17.1288C6.67244 18.7736 5.90784 20.5251 5.11772 22.3835C4.76431 23.3903 4.35326 24.4022 3.88455 25.4192C3.39278 26.4381 2.92407 27.4551 2.47843 28.47C2.37725 28.6415 2.26454 28.814 2.1403 28.9875C2.01808 29.1841 1.84772 29.3617 1.62923 29.5202C1.34357 29.7079 1.12406 29.8549 0.970713 29.9612C0.817363 30.0676 0.605787 30.0396 0.335986 29.8774C0.522202 29.3499 0.723983 28.8675 0.941329 28.4302C1.18375 28.014 1.41364 27.5872 1.63098 27.1499C1.82325 26.6916 2.01249 26.1987 2.19871 25.6712C2.44604 25.0454 2.70388 24.4071 2.97225 23.7562C3.24062 23.1054 3.51 22.466 3.78039 21.8382C3.91558 21.5243 4.05077 21.2104 4.18597 20.8965C4.31914 20.5595 4.43127 20.2477 4.52237 19.9609C4.84377 19.1195 5.15567 18.3021 5.45806 17.5089C5.78148 16.6905 6.11341 15.8366 6.45385 14.947C6.83838 14.0304 7.21038 13.1032 7.56984 12.1656C7.92728 11.2048 8.24812 10.2241 8.53234 9.22326C8.7396 8.67069 8.91126 8.10961 9.04732 7.54003C9.18338 6.97044 9.29437 6.37982 9.38027 5.76815C9.42323 5.46232 9.45465 5.15749 9.47454 4.85368C9.49242 4.5268 9.48723 4.20194 9.45899 3.8791L10.1162 3.8216C10.3338 3.91874 10.561 3.99182 10.7976 4.04082C11.0343 4.08983 11.2614 4.1629 11.479 4.26005C11.5765 4.57683 11.6383 4.88512 11.6645 5.1849C11.6887 5.46162 11.8072 5.75333 12.0199 6.06004L12.0593 6.50971C12.1178 7.17845 12.1427 7.86175 12.134 8.5596C12.1485 9.25544 12.1618 9.93975 12.1742 10.6125C12.1569 12.0082 12.1166 13.406 12.0531 14.8057C12.0107 16.1804 12.1107 17.5891 12.3531 19.0318C12.4647 19.51 12.5783 20.0112 12.6938 20.5356C12.8305 21.0348 12.9881 21.509 13.1668 21.9581C13.2352 22.2077 13.3371 22.4428 13.4725 22.6633C13.6311 22.8818 13.7781 23.1013 13.9135 23.3218C14.0239 23.5213 14.1995 23.6686 14.4402 23.7637C14.6809 23.8588 14.9311 23.9299 15.1908 23.9769C15.4715 23.9988 15.7387 23.9987 15.9924 23.9765C16.2691 23.9523 16.4967 23.8975 16.6751 23.8122C16.9357 23.6035 17.2098 23.4168 17.4975 23.2522C17.7852 23.0877 18.0488 22.9136 18.2883 22.7299C18.5279 22.5463 18.7308 22.3427 18.8971 22.119C19.0845 21.8702 19.2092 21.5689 19.2711 21.2149C19.2821 21.0745 19.3246 20.8965 19.3987 20.6809C19.4708 20.4423 19.5438 20.2151 19.6179 19.9995C19.69 19.7608 19.7631 19.5337 19.8371 19.3181C19.9092 19.0794 19.9622 18.8889 19.9963 18.7465C20.4065 17.0608 20.8047 15.504 21.191 14.076C21.5772 12.648 21.9906 11.2641 22.4311 9.9243C22.8715 8.58451 23.3591 7.25222 23.8939 5.92743C24.4286 4.60263 25.0485 3.18906 25.7535 1.6867C25.8187 1.63453 25.8588 1.56132 25.8738 1.46706C25.8867 1.34974 25.9258 1.26499 25.9909 1.21282C26.1322 0.968097 26.2419 0.76099 26.32 0.591499C26.4212 0.419991 26.5274 0.306134 26.6386 0.249927C26.7479 0.170659 26.8747 0.159563 27.0191 0.216638C27.1635 0.273713 27.3601 0.395933 27.6089 0.583299C27.6311 0.836961 27.5926 1.06108 27.4934 1.25564C27.3943 1.45021 27.2951 1.64478 27.196 1.83935C26.3424 3.23851 25.6263 4.61403 25.0474 5.96592C24.4917 7.3158 23.9946 8.67216 23.5561 10.035C23.1407 11.3958 22.7504 12.7777 22.3852 14.1806C22.0179 15.5605 21.6212 17.001 21.1948 18.5022C20.8996 19.6434 20.6445 20.7114 20.4295 21.7061C20.3375 22.2486 20.211 22.7941 20.0498 23.3426C19.8887 23.8912 19.6679 24.4217 19.3874 24.9342C19.213 25.0657 19.0817 25.1585 18.9935 25.2127C18.9263 25.2418 18.7825 25.3241 18.562 25.4595L18.45 24.1797C18.1773 24.25 17.9172 24.3309 17.6696 24.4223C17.443 24.4886 17.229 24.5654 17.0275 24.6527C16.2236 25.0251 15.5348 25.1202 14.9612 24.9381C14.3876 24.7559 13.7547 24.4278 13.0626 23.9539C12.542 23.5812 12.1422 23.1282 11.8632 22.595C11.5822 22.0386 11.3568 21.4542 11.187 20.8417C11.0403 20.2271 10.9397 19.6085 10.8852 18.9859C10.8287 18.3402 10.7773 17.7522 10.7309 17.2218C10.7785 16.172 10.7583 15.0119 10.6704 13.7416C10.6035 12.4462 10.5708 11.2756 10.5723 10.2299L10.545 9.91855C10.541 9.87243 10.5275 9.85037 10.5044 9.85239C10.4813 9.85441 10.4573 9.8449 10.4322 9.82385C10.4091 9.82587 10.3851 9.81636 10.36 9.79532ZM25.942 20.8404C25.6883 20.8626 25.4777 20.8462 25.3103 20.7911C25.2621 20.7721 25.214 20.7531 25.1658 20.734C25.1177 20.715 25.0465 20.698 24.9522 20.683C24.9041 20.664 24.8675 20.644 24.8424 20.6229C24.8173 20.6019 24.7807 20.5818 24.7326 20.5628C24.6072 20.4576 24.4944 20.3629 24.3941 20.2787C24.2707 20.1966 24.1684 20.0894 24.0871 19.9571C23.9787 19.7806 23.9595 19.5616 24.0296 19.2998C24.0596 19.1113 24.1011 18.9218 24.1541 18.7313C24.2071 18.5407 24.2592 18.3387 24.3102 18.1251C24.3272 18.0539 24.3547 17.9701 24.3928 17.8739C24.4078 17.7796 24.4353 17.6959 24.4754 17.6227C24.5725 17.405 24.6426 17.1433 24.6855 16.8375C24.7094 16.5798 24.7855 16.3872 24.9138 16.2598C25.0029 15.9499 25.1967 15.6425 25.4954 15.3376C25.6216 15.1871 25.7364 15.0376 25.8396 14.8892C25.9658 14.7387 26.0931 14.5998 26.2213 14.4724C26.3095 14.4182 26.3862 14.365 26.4514 14.3128C26.5857 14.2546 26.7095 14.2089 26.8228 14.1758C26.9571 14.1176 27.1145 14.0573 27.2949 13.9951C27.339 13.968 27.3842 13.9524 27.4303 13.9484C27.4995 13.9423 27.5571 13.9373 27.6032 13.9332C27.8148 13.9612 27.9467 14.0077 27.9988 14.0729C28.1975 14.2182 28.373 14.3655 28.5255 14.5148C28.6298 14.6451 28.7247 14.7994 28.81 14.9779C28.8953 15.1563 28.8884 15.3428 28.7892 15.5374C28.667 15.7339 28.5217 15.9325 28.3534 16.1332C28.183 16.3107 28.0127 16.4883 27.8423 16.6658C27.6278 16.8705 27.4144 17.0867 27.2019 17.3144C26.9875 17.5191 26.7615 17.7247 26.524 17.9314C26.3726 18.0608 26.1922 18.1231 25.9826 18.1182C25.8904 18.1262 25.8222 18.1438 25.7781 18.1709C25.6458 18.2522 25.5596 18.3295 25.5196 18.4027C25.4435 18.5952 25.4094 18.7376 25.4175 18.8299C25.3244 19.0936 25.315 19.3849 25.3894 19.7037C25.4395 19.7458 25.4782 19.7889 25.5053 19.833C25.5303 19.854 25.5795 19.8846 25.6527 19.9246C25.8412 19.9546 25.9921 19.953 26.1054 19.9199C26.4012 19.8475 26.6708 19.7426 26.9144 19.6051C27.2271 19.4616 27.5043 19.3095 27.7459 19.149C28.0105 18.9864 28.2741 18.8123 28.5367 18.6267C28.8203 18.416 29.0934 18.2178 29.356 18.0322C29.6397 17.8215 29.9233 17.6108 30.207 17.4C30.3413 17.3418 30.443 17.3097 30.5122 17.3036C30.5774 17.2515 30.6475 17.2569 30.7228 17.3201C30.8191 17.3581 30.8577 17.4012 30.8387 17.4493C30.7977 17.7782 30.65 18.0816 30.3955 18.3595C30.1539 18.52 29.9144 18.7037 29.6768 18.9103C29.4624 19.115 29.2595 19.3186 29.0681 19.5213C28.8937 19.6527 28.7087 19.7967 28.5133 19.9532C28.3389 20.0847 28.1394 20.195 27.9149 20.2844C27.7595 20.3677 27.5926 20.452 27.4142 20.5373C27.2568 20.5976 27.0859 20.6358 26.9014 20.6519C26.744 20.7122 26.5856 20.7609 26.4262 20.7981C26.2668 20.8352 26.1054 20.8494 25.942 20.8404ZM27.6551 15.3229C27.6049 15.2808 27.5789 15.2482 27.5768 15.2252C27.5728 15.179 27.5593 15.157 27.5362 15.159L27.3287 15.1772C27.3096 15.2253 27.2686 15.287 27.2054 15.3622C26.995 15.613 26.7856 15.8753 26.5772 16.1491C26.3918 16.421 26.2431 16.7128 26.1309 17.0247C26.139 17.1169 26.1546 17.1621 26.1776 17.16L26.2814 17.151C26.3866 17.0256 26.4928 16.9117 26.6001 16.8094C26.7053 16.684 26.8105 16.5586 26.9157 16.4332C27.0901 16.3018 27.2279 16.1503 27.3291 15.9788C27.4303 15.8073 27.5199 15.6368 27.598 15.4673C27.6401 15.4171 27.6591 15.369 27.6551 15.3229ZM35.4722 14.639C35.4013 15.1564 35.384 15.6226 35.4203 16.0377C35.4777 16.4277 35.5415 16.7591 35.6118 17.0317C35.6822 17.3044 35.7359 17.5205 35.7731 17.6799C35.8313 17.8142 35.8489 17.8824 35.8258 17.8844C36.1657 17.785 36.4784 17.6414 36.7641 17.4538C37.0477 17.2431 37.3063 17.0113 37.5398 16.7585C37.7733 16.5057 37.9837 16.2549 38.1711 16.0062C38.3815 15.7554 38.5594 15.5307 38.7046 15.3321C39.1555 14.642 39.5978 13.9876 40.0316 13.3687C40.4634 12.7268 40.8085 12.0227 41.0668 11.2566C41.1129 11.2525 41.1339 11.2274 41.1299 11.1813C41.1489 11.1332 41.1795 11.084 41.2215 11.0339C41.436 10.8292 41.6005 10.8497 41.7149 11.0953C41.727 11.2336 41.7526 11.3941 41.7918 11.5765C41.829 11.7359 41.8326 11.9099 41.8026 12.0984C41.7366 12.4063 41.6476 12.7161 41.5354 13.028C41.4213 13.3168 41.2831 13.5961 41.1208 13.8659C40.3194 15.3303 39.4072 16.7229 38.3842 18.044C38.2159 18.2446 38.035 18.4347 37.8416 18.6143C37.6712 18.7918 37.4412 18.9514 37.1515 19.0929C36.2213 19.6158 35.3754 19.3761 34.6139 18.3738C34.5557 18.2395 34.4744 18.1072 34.37 17.9769C34.2867 17.8215 34.1929 17.6787 34.0886 17.5484L33.2363 18.5641C32.9919 18.9572 32.6251 19.2798 32.1359 19.5317C31.9134 19.6441 31.6858 19.6989 31.4532 19.696C31.2206 19.6931 31.0019 19.5844 30.7973 19.37C30.3519 19.0604 30.1542 18.6594 30.2041 18.1671C30.2398 17.5134 30.3092 16.845 30.4121 16.1622C30.4919 15.4813 30.6325 14.83 30.8337 14.2083C30.8677 14.0659 30.9258 13.933 31.0079 13.8096C31.1131 13.6842 31.258 13.6135 31.4425 13.5973C31.6961 13.5751 31.9468 13.5184 32.1944 13.427C32.442 13.3356 32.6721 13.4433 32.8849 13.75C32.5684 14.3818 32.302 15.0557 32.0858 15.7718C31.8907 16.4627 31.7657 17.1591 31.7109 17.861C31.8573 17.9411 31.9631 17.9551 32.0283 17.9029C32.0914 17.8277 32.1786 17.762 32.2899 17.7058C32.5193 17.4069 32.7362 17.0974 32.9406 16.7775C33.143 16.4345 33.3819 16.1115 33.6575 15.8085C33.7417 15.7082 33.8123 15.5859 33.8694 15.4414C33.9495 15.295 34.0422 15.1591 34.1474 15.0337C34.2526 14.9083 34.3378 14.8196 34.4029 14.7674C34.4661 14.6921 34.5322 14.6515 34.6014 14.6455C34.6916 14.6143 34.7954 14.6052 34.9127 14.6182C35.0511 14.6061 35.2376 14.613 35.4722 14.639ZM45.0623 15.9261C44.8779 15.9422 44.6839 15.9824 44.4804 16.0467C44.2748 16.0879 44.1029 16.1146 43.9645 16.1267C43.7801 16.1428 43.6051 16.1349 43.4396 16.1029C43.2742 16.0709 43.0952 16.0169 42.9026 15.9408C42.3711 15.7084 42.0496 15.3532 41.938 14.875C41.8244 14.3737 41.8828 13.8458 42.1131 13.2912C42.2313 13.0485 42.4543 12.8082 42.782 12.5704C43.1078 12.3095 43.4596 12.0812 43.8375 11.8855C44.2384 11.6878 44.6319 11.5372 45.0179 11.4337C45.4249 11.3051 45.7677 11.2403 46.0465 11.2391C46.254 11.221 46.4245 11.3106 46.558 11.5081C46.6162 11.6424 46.6148 11.7587 46.5537 11.857C46.4905 11.9322 46.4128 11.9739 46.3206 11.982C46.1151 12.0232 45.8559 12.1156 45.5432 12.2591C45.2515 12.3776 44.9628 12.5306 44.6771 12.7183C44.3895 12.8829 44.1153 13.0695 43.8547 13.2782C43.6172 13.4849 43.4374 13.6865 43.3151 13.8831C43.214 14.0546 43.184 14.2431 43.2252 14.4486C43.2664 14.6542 43.3477 14.7865 43.4691 14.8456L44.6797 14.7396C45.0256 14.7094 45.4257 14.7673 45.88 14.9135C46.3573 15.0576 46.6898 15.2725 46.8775 15.5582C47.0421 15.8458 47.0733 16.2033 46.9713 16.6305C46.8672 17.0346 46.6739 17.4814 46.3914 17.9708C46.13 18.4352 45.8109 18.9046 45.4342 19.3791C45.0574 19.8535 44.6536 20.2839 44.2226 20.6701C43.8127 21.0313 43.4103 21.3453 43.0154 21.6123C42.6415 21.8541 42.3278 21.9861 42.0741 22.0083C41.8435 22.0285 41.657 22.0216 41.5146 21.9875C41.3702 21.9305 41.317 21.8538 41.3551 21.7575C41.8532 21.3421 42.2766 21.003 42.6254 20.7401C42.9952 20.4522 43.3916 20.069 43.8145 19.5905C43.9597 19.3919 44.1767 19.0824 44.4652 18.6622C44.7768 18.2399 45.0308 17.8226 45.2271 17.4104C45.4464 16.9962 45.5661 16.6372 45.5859 16.3334C45.6289 16.0276 45.4544 15.8918 45.0623 15.9261Z" fill="#CF4267"/>
</svg>
