<svg width="83" height="48" viewBox="0 0 83 48" fill="none" xmlns="http://www.w3.org/2000/svg">
<path d="M40.3765 1.47305C42.4542 1.93465 43.8667 2.75828 44.6138 3.94393C45.3578 5.09411 45.4903 6.40502 45.0115 7.87665C44.7206 9.04589 44.2084 10.3417 43.475 11.7641C42.7416 13.1865 41.8324 14.6422 40.7474 16.1311C39.6624 17.62 38.4162 19.1052 37.0089 20.5866C35.6339 22.0294 34.1447 23.3928 32.5414 24.6768C31.1061 25.839 29.6229 26.8623 28.0918 27.7469C26.5931 28.5929 25.0543 29.3888 23.4754 30.1345C21.8933 30.8448 20.2727 31.5228 18.6135 32.1683C16.9898 32.8108 15.3499 33.4726 13.6938 34.1536C13.3838 34.2879 13.0708 34.3868 12.7546 34.4502C12.474 34.5105 12.235 34.6387 12.0377 34.8346C11.9915 35.1246 11.8922 35.4193 11.7397 35.7185C11.6226 36.0147 11.541 36.3078 11.4949 36.5978C11.2994 37.2225 11.1608 37.6815 11.0792 37.9745C11.0331 38.2645 11.0032 38.5352 10.9894 38.7866C10.9757 39.038 10.9473 39.3265 10.9043 39.6519C10.8582 39.9419 10.7728 40.3962 10.6482 41.0147C10.4974 41.7428 10.3983 42.4484 10.3509 43.1317C10.3389 43.8119 10.33 44.5275 10.3243 45.2786C10.2396 45.5362 10.2744 45.7298 10.4287 45.8593C10.5861 46.0242 10.6094 46.2902 10.4985 46.6574L10.5311 47.0298C10.2473 47.0547 9.99745 47.0586 9.78152 47.0418C9.60106 47.0218 9.4676 46.9263 9.38114 46.7551C9.0109 46.6088 8.75551 46.3452 8.61495 45.9643C8.4775 45.6189 8.34471 45.3267 8.21657 45.0877C8.20726 44.9813 8.21879 44.9088 8.25116 44.8702C8.3221 44.864 8.30437 44.8656 8.19795 44.8749L8.16071 44.4492L8.13278 44.13C7.9705 43.5008 7.91774 42.8978 7.97451 42.3209C8.06364 41.7055 8.11574 41.0754 8.13083 40.4307C8.13349 39.6441 8.21331 38.9223 8.37028 38.2652C8.52725 37.608 8.76049 36.8013 9.06999 35.8449C8.74454 35.8019 8.4754 35.7897 8.26257 35.8083C8.04663 35.7914 7.81451 35.7939 7.56621 35.8156C7.17602 35.8497 6.78273 35.8484 6.38633 35.8116C5.98993 35.7748 5.59664 35.7735 5.20645 35.8076C4.3906 35.879 3.66874 35.7992 3.0409 35.5681C2.40994 35.3016 1.75505 34.9658 1.07621 34.5605C0.513101 34.2523 0.19896 33.7258 0.133789 32.9809C0.766075 32.8541 1.2465 32.8299 1.57505 32.9084C1.90361 32.9869 2.24148 33.1718 2.58865 33.4631C2.82631 33.7283 3.11563 33.971 3.4566 34.1914C3.79446 34.3763 4.2117 34.447 4.70831 34.4036C5.27586 34.3539 5.89661 34.2996 6.57058 34.2406C7.24144 34.1462 7.87528 34.0371 8.47209 33.9134C8.75587 33.8886 8.99486 33.7605 9.18907 33.529C9.38328 33.2976 9.58215 33.1193 9.78567 32.9943C9.97367 32.6919 10.1309 32.4458 10.2572 32.256C10.416 32.0277 10.5361 31.767 10.6177 31.4739C11.2292 29.8834 11.8746 28.2721 12.5539 26.64C13.2332 25.0078 13.9333 23.4096 14.6543 21.8453C15.4077 20.2425 16.1688 18.7283 16.9376 17.3027C17.7389 15.8387 18.5155 14.5018 19.2675 13.2922C19.4262 13.0639 19.5704 12.8726 19.6998 12.7183C19.8617 12.5254 19.8754 12.274 19.7411 11.9641C19.7256 11.7867 19.7825 11.6209 19.912 11.4666C20.0738 11.2737 20.2388 11.1163 20.4068 10.9943C21.3876 10.7656 22.4141 10.8545 23.4862 11.2611C23.6977 11.6358 23.6787 12.0306 23.429 12.4456C23.1408 12.8283 22.8526 13.2109 22.5644 13.5936C22.2762 13.9762 21.9525 14.362 21.5933 14.7508C20.9092 15.9187 20.1503 17.254 19.3167 18.7567C18.5154 20.2208 17.7027 21.7574 16.8784 23.3664C16.0864 24.9369 15.3138 26.5236 14.5605 28.1265C13.8395 29.6908 13.2333 31.1378 12.742 32.4676C13.3096 32.4179 13.6435 32.353 13.7437 32.2727C16.7659 30.8645 19.6817 29.4656 22.4911 28.076C25.3359 26.6834 28.1251 25.0632 30.8587 23.2156C31.7668 22.5643 32.7981 21.6877 33.9528 20.5859C35.1397 19.4455 36.3012 18.2179 37.4372 16.9033C38.5701 15.5531 39.5742 14.1606 40.4495 12.7258C41.3603 11.2879 41.9564 9.9311 42.238 8.65545C42.5519 7.34122 42.4865 6.18528 42.0418 5.18763C41.6295 4.15141 40.6505 3.37922 39.1048 2.87107C38.48 2.67552 37.8631 2.56866 37.2538 2.55047C36.6801 2.52918 36.0739 2.54647 35.4355 2.60233C33.6911 2.68345 31.9738 2.86944 30.2836 3.16029C28.6288 3.44803 26.9688 3.87922 25.3034 4.45384C23.4251 5.04709 21.5901 5.72591 19.7983 6.49031C18.0066 7.2547 16.2981 8.15478 14.6731 9.19054C12.7412 10.3961 10.9636 11.7312 9.34028 13.1957C7.71698 14.6602 6.34442 16.3351 5.22261 18.2204C4.78186 18.9024 4.43445 19.6298 4.18038 20.4026C3.96177 21.1724 3.85269 21.9683 3.85312 22.7903C3.90898 23.4288 4.08124 23.9678 4.36988 24.4072C4.65853 24.8466 5.22319 25.1725 6.06387 25.3849C6.1765 25.4465 6.30996 25.5421 6.46426 25.6715C6.65093 25.7624 6.78284 25.8403 6.85999 25.905C7.1145 25.9542 7.28498 26.0644 7.37144 26.2356C7.4579 26.4067 7.59757 26.5732 7.79045 26.735C7.30936 26.9559 6.85443 27.0671 6.42567 27.0689C6.02927 27.0321 5.68608 26.9906 5.3961 26.9445C4.99039 26.8013 4.58624 26.6758 4.18363 26.5681C3.78103 26.4603 3.42698 26.2947 3.12148 26.0712C2.59074 25.7245 2.1101 25.3376 1.67956 24.9106C1.24903 24.4836 0.904071 24.0134 0.644689 23.4999C0.548919 23.2224 0.48862 22.9417 0.463793 22.6579C0.471334 22.3356 0.548268 21.9893 0.694593 21.619C0.98414 20.8431 1.29142 20.0656 1.61644 19.2866C1.94146 18.5075 2.32124 17.7415 2.75578 16.9887C2.899 16.583 3.10009 16.2258 3.35903 15.9172C3.65345 15.6055 3.98334 15.2907 4.34871 14.9728C4.54602 14.7768 4.69013 14.5855 4.78103 14.3988C4.9074 14.209 5.06769 13.9984 5.2619 13.767C6.92821 11.977 8.86299 10.3959 11.0662 9.02356C12.5911 8.06806 14.1206 7.16576 15.6548 6.31667C17.1858 5.43211 18.781 4.66704 20.4402 4.02148C21.35 3.7989 22.239 3.5424 23.1072 3.25199C23.9723 2.9261 24.8921 2.61329 25.8667 2.31357C27.1251 1.98902 28.446 1.76622 29.8294 1.64519C30.5295 1.47671 31.2165 1.36298 31.8905 1.30402C32.5968 1.20648 33.287 1.12823 33.961 1.06926C35.0606 0.97306 36.1487 0.949351 37.2252 0.998137C38.2987 1.01145 39.3491 1.16975 40.3765 1.47305ZM48.2922 30.9122C48.2275 30.9893 48.1789 31.0472 48.1465 31.0858C48.1496 31.1212 48.1173 31.1598 48.0494 31.2015C48.0202 31.2755 47.9408 31.3897 47.8113 31.544L47.7581 31.5487L47.6125 31.7222C47.4537 31.9506 47.2595 32.182 47.0298 32.4166C46.8356 32.648 46.6399 32.8618 46.4425 33.0577C46.0217 33.5592 45.5145 33.8895 44.9208 34.0487L44.7612 34.0627C44.4127 34.1647 44.0726 34.1587 43.7409 34.0447C43.4447 33.9277 43.1439 33.7574 42.8384 33.5339C42.414 33.1779 42.2334 32.7469 42.2963 32.241L42.287 32.1345C42.3438 31.5577 42.4198 30.997 42.5152 30.4525C42.575 29.9111 42.6542 29.3859 42.7526 28.8769L43.6047 25.7463C43.6707 25.2759 43.8062 24.7815 44.011 24.2631C44.4638 22.901 44.918 21.5567 45.3739 20.23C45.8297 18.9034 46.3048 17.5929 46.7992 16.2986L46.8731 15.9169C46.9746 15.4433 47.0985 15.0214 47.2449 14.6512C47.3912 14.281 47.5892 13.8883 47.8388 13.4733C47.9035 13.3962 47.9312 13.3044 47.9219 13.198C47.945 13.053 47.9842 12.8887 48.0397 12.7051L49.6446 7.14961C49.6938 6.8951 49.7623 6.65678 49.8501 6.43464C49.9348 6.17702 50.0195 5.91941 50.1042 5.6618C50.1951 5.47513 50.2328 5.29311 50.2173 5.11575C50.2341 4.89982 50.2703 4.70007 50.3257 4.5165C50.4042 4.18795 50.566 3.99507 50.8112 3.93787C50.9469 3.85452 51.0679 3.80818 51.1744 3.79887C51.2808 3.78956 51.3679 3.76407 51.4357 3.72239C51.6162 3.74235 51.7257 3.76851 51.7643 3.80088C51.9124 3.85941 52.0428 3.91949 52.1554 3.98112C52.3159 4.18154 52.3893 4.40745 52.3755 4.65886L52.4221 5.19093C52.3635 5.33903 52.3227 5.48557 52.2997 5.63056C52.309 5.73698 52.2813 5.82876 52.2165 5.90591C52.0472 6.42114 51.8778 6.93636 51.7084 7.45159C51.5714 7.92824 51.3989 8.408 51.1909 8.89085C50.7551 10.037 50.3354 11.1639 49.9319 12.2715C49.5638 13.376 49.2151 14.4967 48.8856 15.6336C48.7194 16.1843 48.5531 16.735 48.3868 17.2857C48.256 17.8333 48.0897 18.384 47.888 18.9378L46.5896 22.4827C46.5112 22.8113 46.4149 23.1414 46.301 23.473C46.2194 23.7661 46.1201 24.0608 46.003 24.3569C45.9476 24.5405 45.8775 24.7611 45.7928 25.0187C45.7405 25.2378 45.6704 25.4583 45.5827 25.6805C45.0776 27.2616 44.6674 28.906 44.3522 30.6135C44.3584 30.6844 44.3499 30.7924 44.3269 30.9374C44.3362 31.0438 44.3486 31.1857 44.3641 31.3631C44.3641 31.3631 44.3703 31.434 44.3828 31.5759C44.4076 31.8597 44.541 31.9552 44.7831 31.8625C44.8864 31.8178 44.972 31.7745 45.0399 31.7329C45.1401 31.6526 45.2403 31.5723 45.3405 31.4921C45.5347 31.2606 45.7513 31.0808 45.9903 30.9527C46.2262 30.7891 46.459 30.59 46.6887 30.3555L46.8829 30.124L46.9361 30.1194L47.4748 29.5361L47.4795 29.5893C47.7091 29.3547 47.9195 29.104 48.1106 28.8371C48.1723 28.7244 48.2355 28.6296 48.3002 28.5524C48.4004 28.4721 48.4829 28.3934 48.5476 28.3163L50.1824 26.7793C50.3798 26.5833 50.5609 26.4066 50.7258 26.2492C50.9263 26.0887 51.1429 25.9089 51.3756 25.7098L51.4821 25.7005C51.5237 25.7683 51.5492 25.8555 51.5585 25.9619C51.5031 26.1455 51.43 26.3306 51.3391 26.5172C51.2805 26.6653 51.1672 26.8003 50.9992 26.9223C50.9344 26.9994 50.8697 27.0766 50.805 27.1537C50.7402 27.2309 50.6755 27.308 50.6108 27.3852C50.4489 27.5781 50.3241 27.7856 50.2363 28.0077C50.1454 28.1944 50.019 28.3842 49.8572 28.577C49.6922 28.7344 49.5466 28.908 49.4202 29.0978C49.3262 29.249 49.216 29.4195 49.0897 29.6092L48.4771 30.5743C48.4124 30.6514 48.3638 30.7093 48.3314 30.7479C48.3345 30.7834 48.3022 30.8219 48.2343 30.8636L48.2922 30.9122ZM60.6837 31.1148C60.2226 31.1552 59.773 31.123 59.3349 31.0184C59.2608 30.9891 59.1868 30.9598 59.1127 30.9306C59.0356 30.8658 58.96 30.8188 58.8859 30.7896C58.5326 30.4273 58.3581 30.0673 58.3625 29.7094C58.3794 29.4935 58.4155 29.2938 58.4709 29.1102C58.5264 28.9266 58.5301 28.7654 58.4822 28.6267C58.4698 28.4848 58.3927 28.42 58.2508 28.4324C58.2184 28.471 58.1845 28.4919 58.149 28.495C58.1136 28.4981 58.0796 28.5189 58.0473 28.5575C57.83 28.9339 57.605 29.2217 57.3722 29.4208C57.2072 29.5782 57.0585 29.7163 56.9259 29.8351C56.7933 29.954 56.643 30.0743 56.475 30.1963C56.31 30.3537 56.1466 30.5288 55.9848 30.7217C55.8553 30.876 55.6888 31.0157 55.4853 31.1407C54.7577 31.812 53.8571 32.141 52.7837 32.1277C52.4999 32.1525 52.1682 32.0385 51.7887 31.7858C51.6282 31.5854 51.4901 31.4366 51.3743 31.3395C51.0981 31.042 51.054 30.742 51.242 30.4396C51.3267 30.182 51.4114 29.9244 51.4961 29.6668C51.5453 29.4123 51.5575 29.1431 51.5327 28.8594C51.608 28.4953 51.6958 28.2732 51.796 28.1929C51.9486 27.8936 52.1042 27.6298 52.2629 27.4015C52.4217 27.1731 52.6159 26.9417 52.8456 26.7071C53.0074 26.5143 53.1693 26.3214 53.3311 26.1285C53.4898 25.9002 53.6501 25.6895 53.812 25.4967C53.906 25.3455 54.0193 25.2105 54.1518 25.0916C54.2844 24.9728 54.4139 24.8185 54.5403 24.6287C54.7052 24.4713 54.8347 24.317 54.9287 24.1658C55.0582 24.0115 55.1876 23.8572 55.3171 23.7029C55.7995 23.0888 56.3329 22.649 56.9173 22.3834L58.2981 21.6192C58.3983 21.5389 58.5194 21.4926 58.6612 21.4802C58.8 21.4323 58.9388 21.3844 59.0776 21.3365C59.2811 21.2115 59.5117 21.1913 59.7693 21.276L59.8757 21.2667C60.0978 21.3545 60.3346 21.4053 60.586 21.419C60.8729 21.4297 61.142 21.4419 61.3935 21.4556C61.7544 21.4955 61.9974 21.6172 62.1224 21.8208C62.2798 21.9857 62.3339 22.1954 62.2847 22.45C62.3281 22.9466 62.2474 23.454 62.0426 23.9724C61.961 24.2654 61.8616 24.5601 61.7446 24.8563C61.6275 25.1525 61.5459 25.4455 61.4998 25.7355C61.4444 25.9191 61.389 26.1027 61.3335 26.2862C61.275 26.4343 61.218 26.6001 61.1626 26.7837C61.081 27.0768 60.9994 27.3699 60.9178 27.663C60.8363 27.956 60.7709 28.2298 60.7216 28.4844L60.7542 28.8568C60.7573 28.8923 60.7974 28.9424 60.8746 29.0071C60.9486 29.0364 61.0211 29.0479 61.0921 29.0417C61.2694 29.0262 61.4098 28.996 61.5131 28.9513C61.7876 28.82 62.0605 28.671 62.3318 28.5043C62.6387 28.3345 62.9278 28.1662 63.1991 27.9995C63.6 27.6785 64.0185 27.3559 64.4548 27.0318C64.888 26.6722 65.3051 26.3319 65.7059 26.0109C66.281 25.6389 66.8607 25.3201 67.4451 25.0545C67.5484 25.0097 67.671 24.9811 67.8129 24.9687C67.8839 24.9625 67.9579 24.9918 68.0351 25.0565C68.1122 25.1213 68.1539 25.1891 68.1601 25.2601L67.8828 25.7668C67.6885 25.9983 67.4943 26.2298 67.3001 26.4612C67.1059 26.6927 66.9101 26.9064 66.7128 27.1024C66.2442 27.465 65.8125 27.8424 65.4179 28.2343C65.0233 28.6263 64.6093 29.0021 64.1761 29.3617C63.9433 29.5607 63.6928 29.7614 63.4246 29.9636C63.1532 30.1303 62.8834 30.3147 62.6151 30.5169C62.1079 30.8472 61.4641 31.0465 60.6837 31.1148ZM59.9089 22.8723C59.8903 22.6594 59.7923 22.5608 59.615 22.5763C59.4793 22.6596 59.3582 22.706 59.2518 22.7153C59.1454 22.7246 59.0421 22.7694 58.9419 22.8496C58.6643 22.9454 58.4253 23.0735 58.2249 23.2341C58.0214 23.3591 57.821 23.5196 57.6237 23.7156C57.3585 23.9532 57.0965 24.2264 56.8375 24.535C56.5786 24.8436 56.3196 25.1522 56.0607 25.4608C55.6785 25.9946 55.3171 26.5624 54.9765 27.1641C54.6329 27.7303 54.2893 28.2965 53.9456 28.8627L53.9642 29.0755C53.935 29.1496 53.9219 29.2044 53.925 29.2398C53.9605 29.2367 53.9798 29.2529 53.9829 29.2884L54.3553 29.2558C54.4524 29.1401 54.5526 29.0598 54.6559 29.015C54.7562 28.9348 54.8548 28.8368 54.9519 28.7211C55.3789 28.2905 55.8059 27.86 56.2329 27.4295C56.6568 26.9635 57.0645 26.5167 57.456 26.0893C57.8152 25.7004 58.1582 25.3309 58.485 24.9806C58.8441 24.5917 59.1855 24.2044 59.5092 23.8187C59.6063 23.703 59.6872 23.6065 59.752 23.5294C59.8136 23.4168 59.8721 23.2687 59.9276 23.0851C59.9568 23.011 59.9537 22.9756 59.9183 22.9787C59.9152 22.9432 59.912 22.9077 59.9089 22.8723ZM75.119 29.1549C75.4874 28.8725 75.8559 28.59 76.2244 28.3076C76.6283 28.022 76.9937 27.7041 77.3205 27.3538C77.7182 26.9973 78.1545 26.6732 78.6294 26.3815C79.1366 26.0512 79.6069 25.7062 80.0401 25.3466C80.1757 25.2632 80.3114 25.1799 80.4471 25.0965C80.6151 24.9746 80.7847 24.8704 80.9559 24.7839C81.1271 24.6975 81.2805 24.6126 81.4161 24.5292C81.5518 24.4459 81.723 24.3594 81.9296 24.2698C82.0684 24.2219 82.1085 24.2721 82.05 24.4201C82.0948 24.5235 82.1025 24.6121 82.0733 24.6862C82.044 24.7602 82.0163 24.852 81.9901 24.9615L80.9472 25.9106C80.847 25.9909 80.7306 26.0904 80.5981 26.2092C80.4979 26.2895 80.3976 26.3697 80.2974 26.45L78.4431 28.5424C78.0516 28.9698 77.6423 29.3988 77.2153 29.8293C76.8238 30.2568 76.3968 30.6873 75.9343 31.1209C75.7663 31.2429 75.5998 31.3825 75.4349 31.5399C75.3054 31.6942 75.1582 31.8501 74.9932 32.0075C74.8607 32.1263 74.7281 32.2451 74.5955 32.364C74.4984 32.4797 74.4159 32.5584 74.3481 32.6001C73.867 32.8209 73.4737 32.8196 73.1682 32.5961L72.8835 32.4065C72.6073 32.109 72.4275 31.8924 72.3442 31.7567C72.2608 31.621 72.2506 31.3002 72.3136 30.7943L72.4473 29.8712C72.5812 29.359 72.6989 28.8662 72.8004 28.3927C72.902 27.9191 73.0375 27.4247 73.2068 26.9095L73.5693 25.5374L73.6292 24.996C73.6168 24.8541 73.5365 24.7539 73.3884 24.6954C73.282 24.7047 73.1949 24.7302 73.127 24.7719L71.9618 26.1606C71.7707 26.4275 71.5425 26.6798 71.2774 26.9175C71.0446 27.1165 70.7894 27.264 70.5119 27.3597C70.4117 27.44 70.3276 27.501 70.2598 27.5426C70.1919 27.5843 70.1272 27.6615 70.0656 27.7741C69.9778 27.9962 69.7465 28.2131 69.3719 28.4246L69.0134 28.6168C68.7066 28.7866 68.4667 28.7003 68.2938 28.358C68.1332 28.1576 68.0745 27.8947 68.1175 27.5692C68.2346 27.273 68.3354 26.9961 68.4201 26.7385C68.4694 26.484 68.5363 26.2279 68.621 25.9703C68.7735 25.671 68.9068 25.3556 69.0207 25.0239C69.1347 24.6922 69.2294 24.3444 69.3047 23.9804C69.3509 23.6904 69.4356 23.4328 69.5588 23.2075C69.6373 22.879 69.7335 22.5489 69.8475 22.2172C69.9614 21.8856 70.0561 21.5377 70.1315 21.1737C70.1838 20.9546 70.2377 20.7533 70.2931 20.5698C70.384 20.3831 70.4572 20.198 70.5126 20.0144C70.568 19.8309 70.7199 19.7282 70.9682 19.7065L71.5003 19.6599C71.6067 19.6506 71.7147 19.659 71.8242 19.6852C71.9661 19.6728 72.0771 19.7167 72.1574 19.8169C72.4984 20.0373 72.6473 20.3102 72.6043 20.6356C72.6198 20.813 72.5999 20.9935 72.5445 21.177C72.4859 21.3251 72.4644 21.4879 72.4799 21.6652C72.5216 21.7331 72.5957 21.7623 72.7021 21.753C72.8085 21.7437 72.8956 21.7182 72.9635 21.6765C73.2224 21.3679 73.5022 21.0932 73.8028 20.8525C74.1389 20.6086 74.4365 20.3324 74.6954 20.0238C75.0284 19.7444 75.4609 19.5815 75.993 19.5349C76.3832 19.5008 76.6763 19.5824 76.8723 19.7797C76.9139 19.8476 76.9556 19.9154 76.9973 19.9832C77.0359 20.0156 77.0583 20.0673 77.0645 20.1382C77.1895 20.3417 77.2374 20.4805 77.2081 20.5546C77.162 20.8445 77.1112 21.0813 77.0558 21.2649L75.5473 25.4716L74.8037 28.0029C74.6636 28.4441 74.6414 28.8035 74.7372 29.0811C74.7465 29.1875 74.8044 29.236 74.9108 29.2267L75.0172 29.2174L75.0219 29.2706L75.119 29.1549Z" fill="#CF4267"/>
</svg>
