<svg width="92" height="45" viewBox="0 0 92 45" fill="none" xmlns="http://www.w3.org/2000/svg">
<path d="M14.7193 9.74733C15.0124 9.82892 15.2392 9.96993 15.3997 10.1703C15.5571 10.3353 15.7014 10.555 15.8326 10.8295C15.9639 11.1039 16.0033 11.3507 15.951 11.5697C15.8987 11.7888 15.8271 11.9916 15.7362 12.1783C15.0041 13.2074 14.3685 14.3174 13.8293 15.5084C13.3225 16.6608 12.8042 17.8857 12.2743 19.183C12.5306 19.661 12.7205 20.1984 12.8442 20.7952C13.0003 21.3535 13.1402 21.931 13.2639 22.5278C13.3876 23.1246 13.5098 23.7037 13.6304 24.2651C13.7864 24.8233 13.991 25.3237 14.2442 25.7662C14.6561 25.9803 15.0332 26.001 15.3755 25.828C15.7502 25.6165 16.128 25.4405 16.5089 25.3C18.2838 24.7515 19.9446 24.1237 21.4911 23.4165C23.0701 22.6707 24.6814 21.8863 26.3251 21.0634C28.0982 20.0862 29.5845 19.0983 30.7839 18.0998C31.9833 17.1013 33.1302 15.9108 34.2245 14.5283C35.2448 13.1165 35.8602 11.7759 36.0709 10.5065C36.2815 9.23701 36.1629 8.08572 35.7151 7.0526C35.312 6.12279 34.694 5.39051 33.8608 4.85577C33.0246 4.28555 32.0589 3.86963 30.9637 3.60801C29.9008 3.30782 28.7602 3.13954 27.5418 3.10317C26.3202 3.03132 25.1064 3.04816 23.9003 3.15367C22.7267 3.22061 21.6109 3.33611 20.5529 3.50015C19.4919 3.62872 18.6082 3.74178 17.9018 3.83932C15.8276 4.23525 13.8784 4.8347 12.0543 5.63768C10.2301 6.44065 8.46629 7.52429 6.76274 8.88861C6.39117 9.13557 6.05818 9.41491 5.76376 9.72662C5.46934 10.0383 5.17337 10.3323 4.87584 10.6085C4.44885 11.0391 4.0673 11.3763 3.7312 11.6201C3.3951 11.864 3.05125 12.0192 2.69963 12.0857C2.38349 12.1491 2.00483 12.1107 1.56365 11.9706C1.15794 11.8274 0.671979 11.584 0.105764 11.2403C0.158088 11.0213 0.228147 10.8007 0.315942 10.5785C0.400634 10.3209 0.493085 10.152 0.593293 10.0717C1.24997 9.40666 1.9082 8.7593 2.56799 8.12969C3.22777 7.50007 3.94386 6.90127 4.71627 6.33328C6.53554 5.06607 8.41357 4.0618 10.3503 3.32046C12.2871 2.57912 14.3026 1.92025 16.3967 1.34386C19.5551 0.674367 22.7506 0.430534 25.9835 0.612361C29.2517 0.791088 32.2651 1.52827 35.0234 2.82391C35.6867 3.05182 36.2915 3.42783 36.8378 3.95193C37.3841 4.47604 37.8124 5.08194 38.1227 5.76966C38.4686 6.45427 38.6934 7.18521 38.7971 7.96249C38.8978 8.70429 38.8503 9.38757 38.6548 10.0123C38.2916 11.581 37.7679 12.9494 37.0838 14.1173C36.3996 15.2852 35.5851 16.393 34.6402 17.4407C33.6598 18.4916 32.6284 19.3682 31.5461 20.0705C30.4961 20.7342 29.4153 21.4543 28.3037 22.2307C27.3925 22.8466 26.4397 23.3946 25.4451 23.8748C24.4861 24.3519 23.5061 24.795 22.5054 25.2043C21.537 25.5749 20.5671 25.9279 19.5956 26.2631C18.6241 26.5983 17.6557 26.9689 16.6904 27.3751C16.3774 27.4739 16.0983 27.552 15.8531 27.6092C15.6048 27.6309 15.3434 27.7074 15.0689 27.8386C15.8675 30.0206 16.7121 31.9126 17.6029 33.5146C18.5291 35.1135 19.6881 36.5133 21.0799 37.714C22.0536 38.6297 23.0905 39.4504 24.1906 40.1763C25.3261 40.899 26.4816 41.4413 27.657 41.8031C31.9562 43.1427 36.3711 43.1496 40.9018 41.8239C41.0791 41.8084 41.3343 41.661 41.6673 41.3816C42.0034 41.1378 42.3133 41.0034 42.5971 40.9786C42.4632 41.4907 42.2991 41.8625 42.1049 42.0939C41.4327 42.5817 40.7559 43.0162 40.0744 43.3975C39.4314 43.8112 38.6974 44.0005 37.8722 43.9655C36.6307 44.0741 35.4069 44.1812 34.2009 44.2867C33.0334 44.4246 31.8343 44.4044 30.6034 44.2261C24.355 43.486 19.1425 40.0818 14.9658 34.0134C14.3978 33.241 13.8768 32.393 13.4028 31.4694C12.9612 30.5072 12.444 29.498 11.8512 28.4418L8.65871 28.7211C8.51859 29.1623 8.35608 29.5518 8.17118 29.8897C8.02175 30.2245 7.87543 30.5947 7.7322 31.0004C6.96821 32.8902 6.16564 34.7476 5.32449 36.5726C4.48335 38.3976 3.6453 40.2581 2.81036 42.154L2.67402 42.434C2.53213 42.4464 2.41108 42.4928 2.31087 42.573C2.24303 42.6147 2.15125 42.587 2.03552 42.4899C2.02311 42.348 1.97833 42.2447 1.90118 42.18C1.8595 42.1121 1.88721 42.0203 1.98432 41.9046C2.10892 41.2861 2.20115 40.7061 2.26102 40.1647C2.35325 39.5848 2.37299 38.9933 2.32023 38.3902C2.30471 38.2129 2.32467 38.0324 2.3801 37.8489C2.43242 37.6298 2.49095 37.4817 2.55569 37.4046C2.99953 36.7581 3.25982 36.0562 3.33653 35.2989C3.44562 34.503 3.66732 33.7687 4.00165 33.0961C4.26814 32.4651 4.51224 31.7825 4.73395 31.0483C4.95566 30.314 5.1951 29.5782 5.45228 28.8408C4.60539 28.5575 3.80861 28.234 3.06193 27.8704C2.34762 27.4682 1.62023 27.1208 0.879761 26.8282C0.606631 26.5661 0.358111 26.1768 0.134201 25.6603L1.19836 25.5672C1.99736 25.7117 2.76244 25.8771 3.4936 26.0634C4.22476 26.2496 4.9721 26.4165 5.73563 26.5642C5.84205 26.5549 5.9662 26.544 6.10809 26.5316C6.24687 26.4837 6.36637 26.4197 6.46658 26.3394C6.91797 25.3706 7.37712 24.4904 7.84402 23.699C8.3433 22.869 8.74769 21.9757 9.05719 21.0193C9.22347 20.4686 9.3944 19.9711 9.56999 19.5269C9.78106 19.0795 10.0453 18.6274 10.3628 18.1707C10.7388 17.5659 11.0716 16.8756 11.3611 16.0996C11.6476 15.2882 11.9356 14.4945 12.2251 13.7186C12.5116 12.9072 12.8027 12.149 13.0984 11.444C13.3942 10.739 13.7216 10.1921 14.0808 9.8032L14.7193 9.74733ZM10.8802 25.3099C10.7675 25.2483 10.6888 25.1658 10.6441 25.0625C10.5993 24.9592 10.519 24.8589 10.4033 24.7618L10.2576 24.9354C10.1991 25.0835 10.1714 25.1753 10.1745 25.2108C10.1931 25.4236 10.2911 25.5223 10.4685 25.5067L10.5702 25.4442C10.635 25.3671 10.7383 25.3223 10.8802 25.3099ZM38.0902 31.883C37.7 31.9172 37.3761 31.8919 37.1185 31.8072C37.0444 31.7779 36.9704 31.7487 36.8963 31.7194C36.8223 31.6901 36.7128 31.664 36.5678 31.6409C36.4937 31.6117 36.4374 31.5808 36.3989 31.5485C36.3603 31.5161 36.304 31.4853 36.2299 31.456C36.037 31.2942 35.8635 31.1485 35.7092 31.019C35.5194 30.8927 35.362 30.7277 35.2369 30.5242C35.0702 30.2528 35.0407 29.9159 35.1485 29.5133C35.1946 29.2233 35.2585 28.9317 35.3401 28.6387C35.4216 28.3456 35.5017 28.0348 35.5802 27.7062C35.6063 27.5967 35.6487 27.4679 35.7072 27.3198C35.7303 27.1748 35.7726 27.046 35.8342 26.9334C35.9837 26.5986 36.0914 26.196 36.1575 25.7255C36.1943 25.3291 36.3114 25.033 36.5087 24.837C36.6457 24.3603 36.9439 23.8874 37.4032 23.4183C37.5974 23.1869 37.7739 22.957 37.9327 22.7286C38.1269 22.4972 38.3226 22.2835 38.52 22.0875C38.6556 22.0041 38.7736 21.9223 38.8738 21.8421C39.0804 21.7525 39.2708 21.6822 39.4451 21.6312C39.6517 21.5417 39.8938 21.449 40.1714 21.3532C40.2392 21.3116 40.3086 21.2876 40.3796 21.2814C40.486 21.2721 40.5747 21.2643 40.6456 21.2581C40.9711 21.3012 41.1739 21.3728 41.2542 21.473C41.5597 21.6964 41.8297 21.923 42.0642 22.1527C42.2248 22.3531 42.3706 22.5906 42.5019 22.865C42.6331 23.1395 42.6225 23.4264 42.4699 23.7257C42.2819 24.0281 42.0585 24.3336 41.7995 24.6422C41.5375 24.9153 41.2754 25.1884 41.0134 25.4616C40.6835 25.7764 40.3551 26.1089 40.0283 26.4592C39.6984 26.774 39.3508 27.0904 38.9855 27.4083C38.7527 27.6074 38.4751 27.7031 38.1528 27.6956C38.0109 27.708 37.906 27.735 37.8382 27.7767C37.6346 27.9018 37.5021 28.0206 37.4404 28.1332C37.3234 28.4294 37.271 28.6484 37.2835 28.7903C37.1402 29.196 37.1258 29.6441 37.2402 30.1345C37.3174 30.1992 37.3768 30.2655 37.4185 30.3333C37.457 30.3657 37.5326 30.4127 37.6453 30.4743C37.9352 30.5205 38.1674 30.518 38.3416 30.467C38.7965 30.3558 39.2113 30.1944 39.586 29.9829C40.0671 29.7621 40.4934 29.5282 40.865 29.2812C41.272 29.0311 41.6775 28.7633 42.0815 28.4778C42.5178 28.1537 42.9379 27.8488 43.3418 27.5633C43.7781 27.2392 44.2145 26.915 44.6508 26.5909C44.8574 26.5014 45.0139 26.4519 45.1203 26.4426C45.2205 26.3624 45.3285 26.3708 45.4442 26.4679C45.5923 26.5264 45.6517 26.5927 45.6225 26.6668C45.5595 27.1727 45.3322 27.6394 44.9407 28.0668C44.5692 28.3137 44.2007 28.5962 43.8353 28.9141C43.5054 29.2289 43.1933 29.5422 42.8989 29.8539C42.6306 30.0561 42.3462 30.2775 42.0455 30.5183C41.7773 30.7205 41.4704 30.8903 41.125 31.0277C40.886 31.1559 40.6293 31.2856 40.3548 31.4168C40.1127 31.5095 39.8498 31.5682 39.566 31.5931C39.3239 31.6857 39.0803 31.7607 38.8351 31.8179C38.5899 31.8751 38.3416 31.8968 38.0902 31.883ZM40.7254 23.3958C40.6482 23.331 40.6081 23.2809 40.605 23.2454C40.5988 23.1745 40.578 23.1406 40.5425 23.1437L40.2232 23.1716C40.194 23.2457 40.1308 23.3406 40.0337 23.4563C39.71 23.842 39.3879 24.2455 39.0673 24.6667C38.7822 25.0849 38.5534 25.5338 38.3809 26.0136C38.3933 26.1554 38.4173 26.2248 38.4527 26.2217L38.6124 26.2078C38.7742 26.0149 38.9376 25.8397 39.1025 25.6823C39.2644 25.4895 39.4262 25.2966 39.5881 25.1037C39.8563 24.9015 40.0683 24.6685 40.2239 24.4047C40.3795 24.1409 40.5174 23.8786 40.6376 23.6179C40.7023 23.5408 40.7316 23.4667 40.7254 23.3958ZM53.2972 29.2122C52.8361 29.2526 52.3865 29.2204 51.9484 29.1158C51.8744 29.0865 51.8003 29.0572 51.7263 29.028C51.6491 28.9632 51.5735 28.9162 51.4995 28.887C51.1461 28.5247 50.9716 28.1647 50.9761 27.8068C50.9929 27.5909 51.029 27.3911 51.0845 27.2076C51.1399 27.024 51.1437 26.8628 51.0958 26.7241C51.0834 26.5822 51.0062 26.5174 50.8643 26.5298C50.832 26.5684 50.798 26.5893 50.7626 26.5924C50.7271 26.5955 50.6932 26.6163 50.6608 26.6549C50.4435 27.0313 50.2185 27.3191 49.9857 27.5182C49.8208 27.6756 49.672 27.8137 49.5394 27.9325C49.4069 28.0513 49.2566 28.1717 49.0885 28.2937C48.9236 28.4511 48.7602 28.6262 48.5983 28.8191C48.4689 28.9734 48.3024 29.1131 48.0988 29.2381C47.3712 29.9094 46.4707 30.2384 45.3972 30.2251C45.1134 30.2499 44.7818 30.1359 44.4022 29.8832C44.2417 29.6828 44.1036 29.534 43.9879 29.4369C43.7116 29.1394 43.6675 28.8394 43.8555 28.537C43.9402 28.2794 44.0249 28.0218 44.1096 27.7642C44.1588 27.5097 44.171 27.2405 44.1462 26.9568C44.2216 26.5927 44.3094 26.3706 44.4096 26.2903C44.5621 25.991 44.7177 25.7272 44.8765 25.4989C45.0352 25.2705 45.2294 25.0391 45.4591 24.8045C45.621 24.6116 45.7828 24.4188 45.9446 24.2259C46.1034 23.9975 46.2637 23.7869 46.4255 23.5941C46.5195 23.4429 46.6328 23.3079 46.7654 23.189C46.898 23.0702 47.0274 22.9159 47.1538 22.7261C47.3188 22.5687 47.4482 22.4144 47.5422 22.2632C47.6717 22.1089 47.8012 21.9546 47.9307 21.8003C48.4131 21.1862 48.9465 20.7464 49.5309 20.4808L50.9116 19.7166C51.0118 19.6363 51.1329 19.59 51.2748 19.5776C51.4136 19.5297 51.5523 19.4818 51.6911 19.4339C51.8947 19.3089 52.1252 19.2887 52.3828 19.3734L52.4892 19.3641C52.7114 19.4519 52.9482 19.5027 53.1996 19.5164C53.4864 19.5271 53.7556 19.5393 54.007 19.553C54.3679 19.5929 54.6109 19.7146 54.7359 19.9182C54.8933 20.0831 54.9474 20.2928 54.8982 20.5474C54.9417 21.044 54.861 21.5514 54.6561 22.0698C54.5745 22.3628 54.4752 22.6575 54.3581 22.9537C54.2411 23.2499 54.1595 23.5429 54.1134 23.8329C54.0579 24.0165 54.0025 24.2 53.9471 24.3836C53.8886 24.5317 53.8316 24.6975 53.7761 24.8811C53.6946 25.1742 53.613 25.4673 53.5314 25.7604C53.4498 26.0534 53.3844 26.3272 53.3352 26.5818L53.3678 26.9542C53.3709 26.9897 53.411 27.0398 53.4881 27.1045C53.5622 27.1338 53.6347 27.1453 53.7056 27.1391C53.883 27.1236 54.0233 27.0934 54.1266 27.0487C54.4011 26.9174 54.674 26.7684 54.9454 26.6017C55.2522 26.4319 55.5413 26.2636 55.8127 26.0969C56.2135 25.7759 56.6321 25.4533 57.0684 25.1292C57.5016 24.7696 57.9186 24.4293 58.3194 24.1083C58.8945 23.7363 59.4743 23.4175 60.0587 23.1519C60.162 23.1071 60.2846 23.0785 60.4265 23.0661C60.4974 23.0599 60.5715 23.0892 60.6486 23.1539C60.7258 23.2187 60.7674 23.2865 60.7736 23.3574L60.4963 23.8642C60.3021 24.0957 60.1079 24.3272 59.9137 24.5586C59.7195 24.7901 59.5237 25.0038 59.3264 25.1997C58.8577 25.5624 58.426 25.9398 58.0314 26.3317C57.6368 26.7237 57.2229 27.0995 56.7897 27.4591C56.5569 27.6581 56.3064 27.8588 56.0381 28.061C55.7667 28.2277 55.4969 28.4121 55.2287 28.6143C54.7214 28.9446 54.0776 29.1439 53.2972 29.2122ZM52.5225 20.9697C52.5039 20.7568 52.4059 20.6582 52.2285 20.6737C52.0928 20.757 51.9718 20.8034 51.8654 20.8127C51.759 20.822 51.6556 20.8668 51.5554 20.947C51.2779 21.0428 51.0389 21.1709 50.8385 21.3315C50.6349 21.4565 50.4345 21.617 50.2372 21.813C49.9721 22.0506 49.71 22.3238 49.4511 22.6324C49.1921 22.941 48.9332 23.2496 48.6742 23.5582C48.292 24.092 47.9306 24.6598 47.5901 25.2615C47.2464 25.8277 46.9028 26.3939 46.5592 26.9601L46.5778 27.1729C46.5485 27.247 46.5354 27.3018 46.5385 27.3372C46.574 27.3341 46.5933 27.3503 46.5964 27.3858L46.9689 27.3532C47.066 27.2375 47.1662 27.1572 47.2695 27.1124C47.3697 27.0322 47.4684 26.9342 47.5655 26.8185C47.9925 26.3879 48.4194 25.9574 48.8464 25.5269C49.2703 25.0609 49.678 24.6141 50.0696 24.1867C50.4287 23.7978 50.7717 23.4283 51.0985 23.078C51.4576 22.6891 51.7991 22.3018 52.1228 21.9161C52.2199 21.8004 52.3008 21.7039 52.3655 21.6268C52.4271 21.5142 52.4857 21.3661 52.5411 21.1825C52.5704 21.1084 52.5673 21.073 52.5318 21.0761C52.5287 21.0406 52.5256 21.0051 52.5225 20.9697ZM64.1244 24.6191C63.8406 24.644 63.5422 24.7058 63.2292 24.8047C62.913 24.8681 62.6485 24.9091 62.4357 24.9277C62.1519 24.9525 61.8828 24.9403 61.6283 24.8911C61.3738 24.8419 61.0984 24.7588 60.8022 24.6417C59.9846 24.2843 59.49 23.7378 59.3184 23.0022C59.1437 22.2312 59.2335 21.4191 59.5878 20.566C59.7696 20.1926 60.1126 19.8231 60.6167 19.4573C61.1178 19.056 61.6589 18.7048 62.2402 18.4038C62.857 18.0996 63.4622 17.868 64.056 17.7088C64.682 17.511 65.2095 17.4113 65.6382 17.4095C65.9575 17.3816 66.2197 17.5195 66.425 17.8232C66.5146 18.0298 66.5124 18.2087 66.4184 18.3599C66.3213 18.4757 66.2018 18.5397 66.0599 18.5521C65.7437 18.6155 65.3451 18.7577 64.864 18.9785C64.4153 19.1607 63.9713 19.3961 63.5318 19.6848C63.0893 19.9379 62.6677 20.225 62.2668 20.5461C61.9015 20.864 61.6248 21.1741 61.4368 21.4765C61.2811 21.7403 61.235 22.0303 61.2984 22.3465C61.3618 22.6626 61.4869 22.8661 61.6735 22.957L63.5358 22.7941C64.0679 22.7476 64.6833 22.8367 65.3821 23.0615C66.1164 23.2832 66.6278 23.6138 66.9165 24.0532C67.1696 24.4957 67.2177 25.0455 67.0608 25.7026C66.9007 26.3242 66.6034 27.0115 66.1689 27.7644C65.7667 28.4787 65.2758 29.2008 64.6963 29.9306C64.1168 30.6604 63.4956 31.3224 62.8327 31.9166C62.2022 32.4721 61.5832 32.9552 60.9757 33.3658C60.4006 33.7378 59.918 33.9409 59.5278 33.975C59.1731 34.006 58.8862 33.9954 58.6672 33.9431C58.445 33.8553 58.3632 33.7373 58.4218 33.5892C59.1879 32.9503 59.8393 32.4286 60.3758 32.0243C60.9447 31.5813 61.5544 30.9918 62.2049 30.2558C62.4283 29.9503 62.762 29.4743 63.2058 28.8279C63.6852 28.1783 64.0758 27.5365 64.3778 26.9024C64.7152 26.2653 64.8992 25.713 64.9298 25.2457C64.9959 24.7752 64.7274 24.5664 64.1244 24.6191ZM76.3816 19.6865C76.3909 19.7929 76.384 19.9186 76.361 20.0636C76.3858 20.3474 76.5578 20.4753 76.8771 20.4474L77.4092 20.4008C77.6867 20.305 78.0561 20.237 78.5172 20.1966C79.0138 20.1532 79.4009 20.0836 79.6785 19.9878L80.4234 19.9226C80.5005 19.9874 80.5422 20.0552 80.5484 20.1262C80.7089 20.3266 80.7052 20.4878 80.5371 20.6097C80.5109 20.7192 80.4639 20.7948 80.3961 20.8365C80.3606 20.8396 80.3105 20.8797 80.2458 20.9569C80.1163 21.1112 80.0161 21.1914 79.9452 21.1976C79.5643 21.3382 79.1109 21.4672 78.585 21.5847C78.0946 21.6991 77.6767 21.825 77.3313 21.9625C76.7855 22.2604 76.2465 22.4327 75.7145 22.4792C75.6466 22.5209 75.5788 22.5626 75.5109 22.6043C75.4786 22.6428 75.4285 22.683 75.3606 22.7246C75.2959 22.8018 75.2489 22.8774 75.2196 22.9514C75.2227 22.9869 75.2081 23.0239 75.1757 23.0625C75.0817 23.2137 75.0216 23.3441 74.9955 23.4536C74.9662 23.5276 74.9192 23.6032 74.8545 23.6804C74.5357 24.5304 74.0333 25.3249 73.3473 26.0641C72.6969 26.8001 72.0903 27.4251 71.5276 27.9389C71.2979 28.1735 70.9556 28.3464 70.5007 28.4577L70.1283 28.4903C70.0218 28.4996 69.8946 28.475 69.7465 28.4165C69.3115 28.3473 68.9768 28.1979 68.7422 27.9682C68.5076 27.7385 68.3201 27.4332 68.1795 27.0523C68.1379 26.9845 68.1155 26.9328 68.1124 26.8974C68.0166 26.6198 68.0111 26.3522 68.0957 26.0946C68.1219 25.9851 68.1674 25.8917 68.2321 25.8146C68.2614 25.7405 68.2713 25.6503 68.262 25.5439C68.3791 25.2477 68.4491 25.0271 68.4722 24.8821C68.5706 24.3731 68.6768 23.9528 68.7908 23.6211C68.8693 23.2926 68.9932 22.8707 69.1626 22.3554C69.2473 22.0978 69.332 21.8402 69.4167 21.5826C69.5014 21.325 69.6038 21.0658 69.724 20.8051C69.8441 20.5444 69.9658 20.3014 70.0891 20.0762C70.2478 19.8478 70.4066 19.6195 70.5653 19.3911C70.7179 19.0918 70.8542 18.8118 70.9744 18.5511C71.0945 18.2904 71.2309 18.0104 71.3834 17.7111C71.5067 17.4858 71.6909 17.3446 71.9361 17.2874C72.0656 17.1331 72.2545 17.0451 72.5028 17.0234C72.8868 16.9183 73.324 16.8086 73.8144 16.6942C74.3048 16.5798 74.7043 16.6521 75.0129 16.911C75.09 16.9758 75.1656 17.0228 75.2396 17.052C75.3106 17.0458 75.3846 17.0751 75.4618 17.1398C75.5837 17.3079 75.6864 17.4597 75.7697 17.5954C75.8531 17.7311 75.9557 17.883 76.0777 18.051C76.1641 18.2222 76.2328 18.3949 76.2838 18.5691C76.3317 18.7079 76.3472 18.8853 76.3304 19.1012L76.3816 19.6865ZM73.4911 22.1912C73.4786 22.0493 73.4531 21.9622 73.4146 21.9298C73.2186 21.7325 73.0581 21.5321 72.933 21.3286C72.808 21.125 72.683 20.9215 72.5579 20.718C72.5163 20.6502 72.4214 20.587 72.2733 20.5284C72.2347 20.4961 72.1445 20.4861 72.0026 20.4985C71.9316 20.5047 71.8476 20.5657 71.7505 20.6814C71.5949 20.9452 71.4423 21.2445 71.2929 21.5793C70.9648 22.3229 70.7191 22.9877 70.556 23.5739C70.3928 24.1601 70.2389 24.8527 70.0944 25.6517L70.1083 25.8113C70.0791 25.8853 70.0675 25.9578 70.0737 26.0288C70.1154 26.0966 70.1717 26.1274 70.2427 26.1212C70.3553 26.1829 70.444 26.1751 70.5087 26.0979C71.2288 25.749 71.8254 25.2143 72.2985 24.4938C72.7716 23.7732 73.1592 23.096 73.4611 22.4619C73.4904 22.3879 73.5004 22.2976 73.4911 22.1912ZM74.8725 18.3709C74.8663 18.3 74.8246 18.2321 74.7475 18.1674C74.6056 18.1798 74.5362 18.2037 74.5393 18.2392C74.0768 18.6729 73.8203 19.2136 73.7698 19.8614C73.7405 19.9354 73.729 20.0079 73.7352 20.0789C73.7737 20.1112 73.7961 20.1629 73.8023 20.2338C73.8054 20.2693 73.8487 20.3549 73.932 20.4906C74.0092 20.5553 74.0832 20.5846 74.1542 20.5784C74.2606 20.569 74.3462 20.5258 74.4109 20.4487C74.508 20.3329 74.5874 20.2188 74.649 20.1061C74.7723 19.8809 74.8392 19.6248 74.8499 19.338C74.8605 19.0511 74.8712 18.7642 74.8818 18.4773L74.8725 18.3709ZM84.1417 25.8167C84.5102 25.5342 84.8786 25.2518 85.2471 24.9694C85.651 24.6838 86.0164 24.3659 86.3432 24.0156C86.7409 23.6591 87.1772 23.335 87.6521 23.0433C88.1594 22.7129 88.6296 22.368 89.0628 22.0084C89.1985 21.925 89.3342 21.8417 89.4698 21.7583C89.6379 21.6364 89.8075 21.5322 89.9786 21.4457C90.1498 21.3593 90.3032 21.2744 90.4389 21.191C90.5746 21.1076 90.7457 21.0212 90.9523 20.9316C91.0911 20.8837 91.1313 20.9338 91.0727 21.0819C91.1175 21.1852 91.1253 21.2739 91.096 21.348C91.0667 21.422 91.039 21.5138 91.0129 21.6233L89.97 22.5724C89.8698 22.6526 89.7534 22.7522 89.6208 22.871C89.5206 22.9513 89.4204 23.0315 89.3202 23.1118L87.4659 25.2042C87.0743 25.6316 86.6651 26.0606 86.2381 26.4911C85.8466 26.9185 85.4196 27.3491 84.9571 27.7827C84.789 27.9046 84.6225 28.0443 84.4576 28.2017C84.3281 28.356 84.1809 28.5119 84.016 28.6693C83.8834 28.7881 83.7508 28.9069 83.6182 29.0258C83.5211 29.1415 83.4387 29.2202 83.3708 29.2619C82.8897 29.4827 82.4964 29.4813 82.1909 29.2579L81.9063 29.0683C81.63 28.7708 81.4502 28.5542 81.3669 28.4185C81.2835 28.2828 81.2733 27.962 81.3363 27.4561L81.47 26.533C81.6039 26.0208 81.7216 25.528 81.8232 25.0544C81.9247 24.5809 82.0602 24.0865 82.2296 23.5713L82.5921 22.1992L82.6519 21.6578C82.6395 21.5159 82.5593 21.4157 82.4112 21.3572C82.3048 21.3665 82.2176 21.392 82.1498 21.4337L80.9845 22.8224C80.7934 23.0893 80.5653 23.3416 80.3001 23.5792C80.0673 23.7783 79.8122 23.9258 79.5346 24.0215C79.4344 24.1018 79.3504 24.1627 79.2825 24.2044C79.2147 24.2461 79.1499 24.3233 79.0883 24.4359C79.0005 24.658 78.7693 24.8748 78.3946 25.0863L78.0361 25.2785C77.7293 25.4484 77.4894 25.3621 77.3165 25.0198C77.156 24.8194 77.0972 24.5565 77.1402 24.231C77.2573 23.9348 77.3582 23.6579 77.4429 23.4003C77.4921 23.1458 77.5591 22.8897 77.6437 22.6321C77.7963 22.3328 77.9295 22.0173 78.0435 21.6857C78.1574 21.354 78.2521 21.0062 78.3275 20.6422C78.3736 20.3522 78.4583 20.0946 78.5816 19.8693C78.66 19.5408 78.7563 19.2107 78.8702 18.879C78.9842 18.5473 79.0789 18.1995 79.1542 17.8355C79.2066 17.6164 79.2604 17.4151 79.3159 17.2316C79.4068 17.0449 79.4799 16.8598 79.5353 16.6762C79.5908 16.4926 79.7426 16.39 79.9909 16.3683L80.523 16.3217C80.6294 16.3124 80.7374 16.3208 80.8469 16.347C80.9888 16.3346 81.0999 16.3785 81.1801 16.4787C81.5211 16.6991 81.6701 16.972 81.6271 17.2974C81.6426 17.4748 81.6226 17.6552 81.5672 17.8388C81.5087 17.9869 81.4872 18.1496 81.5027 18.327C81.5444 18.3948 81.6184 18.4241 81.7248 18.4148C81.8312 18.4055 81.9184 18.38 81.9862 18.3383C82.2452 18.0297 82.5249 17.755 82.8256 17.5143C83.1617 17.2704 83.4592 16.9942 83.7181 16.6856C84.0511 16.4062 84.4837 16.2433 85.0157 16.1967C85.4059 16.1626 85.699 16.2442 85.895 16.4415C85.9367 16.5093 85.9784 16.5772 86.02 16.645C86.0586 16.6774 86.081 16.729 86.0872 16.8C86.2122 17.0035 86.2601 17.1423 86.2309 17.2163C86.1847 17.5063 86.134 17.7431 86.0786 17.9267L84.5701 22.1334L83.8265 24.6647C83.6863 25.1059 83.6642 25.4653 83.7599 25.7428C83.7692 25.8493 83.8271 25.8978 83.9335 25.8885L84.0399 25.8792L84.0446 25.9324L84.1417 25.8167Z" fill="#CF4267"/>
</svg>
